<svg version="1.1" xmlns="http://www.w3.org/2000/svg" xmlns:xlink="http://www.w3.org/1999/xlink" width="753.0944" height="218.85243" viewBox="0,0,753.0944,218.85243"><defs><linearGradient x1="-142.43636" y1="86.64757" x2="-142.43636" y2="117.24384" gradientUnits="userSpaceOnUse" id="color-1"><stop offset="0" stop-color="#8f8f8f"/><stop offset="1" stop-color="#8f8f8f" stop-opacity="0"/></linearGradient><linearGradient x1="255.0545" y1="179.875" x2="255.0545" y2="229.52703" gradientUnits="userSpaceOnUse" id="color-2"><stop offset="0" stop-color="#ffffff"/><stop offset="1" stop-color="#b4b4b4"/></linearGradient><linearGradient x1="254.32432" y1="230.98738" x2="254.32432" y2="245.77636" gradientUnits="userSpaceOnUse" id="color-3"><stop offset="0" stop-color="#c9c9c9"/><stop offset="1" stop-color="#c9c9c9" stop-opacity="0"/></linearGradient><linearGradient x1="301.0545" y1="179.875" x2="301.0545" y2="229.52703" gradientUnits="userSpaceOnUse" id="color-4"><stop offset="0" stop-color="#ffffff"/><stop offset="1" stop-color="#b4b4b4"/></linearGradient><linearGradient x1="300.32432" y1="230.98738" x2="300.32432" y2="245.77636" gradientUnits="userSpaceOnUse" id="color-5"><stop offset="0" stop-color="#c9c9c9"/><stop offset="1" stop-color="#c9c9c9" stop-opacity="0"/></linearGradient><linearGradient x1="76.88699" y1="284.75144" x2="76.88699" y2="290.95343" gradientUnits="userSpaceOnUse" id="color-6"><stop offset="0" stop-color="#ffffff"/><stop offset="1" stop-color="#b4b4b4"/></linearGradient><linearGradient x1="75.87735" y1="271.48205" x2="75.87735" y2="277.68404" gradientUnits="userSpaceOnUse" id="color-7"><stop offset="0" stop-color="#ffffff"/><stop offset="1" stop-color="#b4b4b4"/></linearGradient><linearGradient x1="93.56028" y1="263.44108" x2="93.56028" y2="296.47032" gradientUnits="userSpaceOnUse" id="color-8"><stop offset="0" stop-color="#ffffff"/><stop offset="1" stop-color="#b4b4b4"/></linearGradient><linearGradient x1="41.67623" y1="284.58917" x2="41.67623" y2="290.79117" gradientUnits="userSpaceOnUse" id="color-9"><stop offset="0" stop-color="#ffffff"/><stop offset="1" stop-color="#b4b4b4"/></linearGradient><linearGradient x1="40.6666" y1="271.31978" x2="40.6666" y2="277.52178" gradientUnits="userSpaceOnUse" id="color-10"><stop offset="0" stop-color="#ffffff"/><stop offset="1" stop-color="#b4b4b4"/></linearGradient><linearGradient x1="26.74817" y1="262.9543" x2="26.74817" y2="295.98354" gradientUnits="userSpaceOnUse" id="color-11"><stop offset="0" stop-color="#ffffff"/><stop offset="1" stop-color="#b4b4b4"/></linearGradient><linearGradient x1="59.84952" y1="263.27882" x2="59.84952" y2="296.30806" gradientUnits="userSpaceOnUse" id="color-12"><stop offset="0" stop-color="#ffffff"/><stop offset="1" stop-color="#b4b4b4"/></linearGradient></defs><g transform="translate(435.2194,-86.64757)"><g data-paper-data="{&quot;isPaintingLayer&quot;:true}" fill-rule="nonzero" stroke-linecap="butt" stroke-linejoin="miter" stroke-miterlimit="10" stroke-dasharray="" stroke-dashoffset="0" style="mix-blend-mode: normal"><path d="M-435.2194,117.24384v-30.59627h585.56613v30.59627z" data-paper-data="{&quot;index&quot;:null}" fill="url(#color-1)" stroke="none" stroke-width="0"/><path d="M250.75457,261.81708v-34.72397h7.13951v34.72397z" fill="#ffffff" stroke="#000000" stroke-width="2"/><path d="M239.234,224.65918c0,-10.60503 0,-35.28201 0,-40.72765c0,-2.08304 1.72154,-4.05654 3.40749,-4.05654c3.5823,0 17.25992,0 24.17697,0c2.45359,0 4.05654,2.24412 4.05654,4.54332c0,5.69204 0,30.28532 0,40.56538c0,2.80416 -2.10179,4.54332 -4.05654,4.54332c-3.79628,0 -17.23792,0 -23.85245,0c-2.26697,0 -3.73202,-1.8727 -3.73202,-4.86785z" fill="url(#color-2)" stroke="#000000" stroke-width="2"/><path d="M252.14538,245.77636v-14.78898h4.35788v14.78898z" fill="url(#color-3)" stroke="none" stroke-width="2"/><path d="M296.75457,261.81708v-34.72397h7.13951v34.72397z" fill="#ffffff" stroke="#000000" stroke-width="2"/><path d="M285.234,224.65918c0,-10.60503 0,-35.28201 0,-40.72765c0,-2.08304 1.72154,-4.05654 3.40749,-4.05654c3.5823,0 17.25992,0 24.17697,0c2.45359,0 4.05654,2.24412 4.05654,4.54332c0,5.69204 0,30.28532 0,40.56538c0,2.80416 -2.10179,4.54332 -4.05654,4.54332c-3.79628,0 -17.23792,0 -23.85245,0c-2.26697,0 -3.73202,-1.8727 -3.73202,-4.86785z" fill="url(#color-4)" stroke="#000000" stroke-width="2"/><path d="M298.14538,245.77636v-14.78898h4.35788v14.78898z" fill="url(#color-5)" stroke="none" stroke-width="2"/><path d="M61.05747,290.95343v-6.20199h31.65903v6.20199z" fill="url(#color-6)" stroke="#000000" stroke-width="2"/><path d="M60.04784,277.68404v-6.20199h31.65903v6.20199z" fill="url(#color-7)" stroke="#000000" stroke-width="2"/><path d="M90.42322,296.47032v-29.83286c0,0 2.00285,-3.19638 3.03011,-3.19638c1.0629,0 3.244,3.19638 3.244,3.19638v29.83286z" fill="url(#color-8)" stroke="#000000" stroke-width="2"/><path d="M25.84671,290.79117v-6.20199h31.65903v6.20199z" fill="url(#color-9)" stroke="#000000" stroke-width="2"/><path d="M24.83709,277.52178v-6.20199h31.65903v6.20199z" fill="url(#color-10)" stroke="#000000" stroke-width="2"/><path d="M23.61111,295.98354v-29.83286c0,0 2.00285,-3.19638 3.03011,-3.19638c1.0629,0 3.244,3.19638 3.244,3.19638v29.83286z" fill="url(#color-11)" stroke="#000000" stroke-width="2"/><path d="M56.71246,296.30806v-29.83286c0,0 2.00285,-3.19638 3.03011,-3.19638c1.0629,0 3.244,3.19638 3.244,3.19638v29.83286z" fill="url(#color-12)" stroke="#000000" stroke-width="2"/><path d="M29.11111,305.5v-49.5h82.5v49.5z" fill="none" stroke="none" stroke-width="0"/></g></g></svg>