<svg version="1.1" xmlns="http://www.w3.org/2000/svg" xmlns:xlink="http://www.w3.org/1999/xlink" width="591.33333" height="502" viewBox="0,0,591.33333,502"><defs><linearGradient x1="238.86287" y1="260.16667" x2="238.86287" y2="282.16667" gradientUnits="userSpaceOnUse" id="color-1"><stop offset="0" stop-color="#999999"/><stop offset="1" stop-color="#999999" stop-opacity="0"/></linearGradient><linearGradient x1="225" y1="323.5" x2="225" y2="345.5" gradientUnits="userSpaceOnUse" id="color-2"><stop offset="0" stop-color="#999999"/><stop offset="1" stop-color="#999999" stop-opacity="0"/></linearGradient><linearGradient x1="227" y1="43.5" x2="227" y2="21.5" gradientUnits="userSpaceOnUse" id="color-3"><stop offset="0" stop-color="#999999"/><stop offset="1" stop-color="#999999" stop-opacity="0"/></linearGradient><linearGradient x1="472.23787" y1="164.41667" x2="472.23787" y2="186.41667" gradientUnits="userSpaceOnUse" id="color-4"><stop offset="0" stop-color="#999999"/><stop offset="1" stop-color="#999999" stop-opacity="0"/></linearGradient></defs><g transform="translate(69.5,67.5)"><g data-paper-data="{&quot;isPaintingLayer&quot;:true}" fill-rule="nonzero" stroke-linecap="butt" stroke-linejoin="miter" stroke-miterlimit="10" stroke-dasharray="" stroke-dashoffset="0" style="mix-blend-mode: normal"><path d="M404.29048,305.5v-159h113.14286v159z" fill="#ffffff" stroke="#000000" stroke-width="4.5"/><path d="M174.84012,306.5v-63h129.59322v63z" fill="#ffffff" stroke="#000000" stroke-width="4.5"/><path d="M420.33333,318.16667v-156h99.19092v156z" fill="#cccccc" stroke="#000000" stroke-width="4.5"/><path d="M189.33333,312.16667v-54h99.19092v54z" fill="#cccccc" stroke="#000000" stroke-width="4.5"/><path d="M191.64241,282.16667v-22h94.44092v22z" fill="url(#color-1)" stroke="none" stroke-width="0"/><path d="M-69.5,434.5v-120h582v120z" fill="#cccccc" stroke="none" stroke-width="0"/><path d="M-53.5,321.5v-16h555v16z" fill="#ffffff" stroke="#000000" stroke-width="4.5"/><path d="M-52.5,345.5v-22h555v22z" fill="url(#color-2)" stroke="none" stroke-width="0"/><path d="M514.5,-67.5v120h-582v-120z" data-paper-data="{&quot;index&quot;:null}" fill="#cccccc" stroke="none" stroke-width="0"/><path d="M503.5,45.5v16h-555v-16z" data-paper-data="{&quot;index&quot;:null}" fill="#ffffff" stroke="#000000" stroke-width="4.5"/><path d="M504.5,21.5v22h-555v-22z" data-paper-data="{&quot;index&quot;:null}" fill="url(#color-3)" stroke="none" stroke-width="0"/><path d="M422.64241,186.41667v-22h99.19092v22z" fill="url(#color-4)" stroke="none" stroke-width="0"/><g data-paper-data="{&quot;index&quot;:null}"><path d="M37.5,372.49232l1.38008,-25.53149l28.29165,-11.73069l14.49084,27.60161c0,0 -10.61175,9.13032 -17.74618,12.91718c-1.3318,0.7069 -26.41638,-3.25662 -26.41638,-3.25662z" fill="#bbbbbb" stroke="none" stroke-width="0"/><path d="M38.15915,363.57328l1.31828,-24.38829l27.02486,-11.20542l13.842,26.36572c0,0 -10.13661,8.72151 -16.95158,12.33881c-1.27217,0.67525 -25.23355,-3.11082 -25.23355,-3.11082z" fill="#ffffff" stroke="#000000" stroke-width="4.5"/></g><g data-paper-data="{&quot;index&quot;:null}"><path d="M98.5,356.37338l0.91133,-16.85962l18.68227,-7.74631l9.56897,18.22661c0,0 -7.00742,6.02917 -11.71861,8.52981c-0.87945,0.4668 -17.44395,-2.15049 -17.44395,-2.15049z" fill="#bbbbbb" stroke="none" stroke-width="0"/><path d="M98.93527,350.48373l0.87053,-16.1047l17.84575,-7.39946l9.14051,17.4105c0,0 -6.69367,5.75921 -11.1939,8.14788c-0.84007,0.4459 -16.66287,-2.05421 -16.66287,-2.05421z" fill="#ffffff" stroke="#000000" stroke-width="4.5"/></g><g data-paper-data="{&quot;index&quot;:null}"><path d="M204.5,294.37338l0.91133,-16.85962l18.68228,-7.74631l9.56896,18.22661c0,0 -7.00743,6.02917 -11.71861,8.52981c-0.87945,0.4668 -17.44395,-2.15049 -17.44395,-2.15049z" fill="#bbbbbb" stroke="none" stroke-width="0"/><path d="M204.93527,288.48373l0.87053,-16.1047l17.84575,-7.39946l9.14051,17.4105c0,0 -6.69367,5.75921 -11.1939,8.14788c-0.84007,0.4459 -16.66287,-2.05421 -16.66287,-2.05421z" fill="#ffffff" stroke="#000000" stroke-width="4.5"/></g><g data-paper-data="{&quot;index&quot;:null}"><path d="M236.5,301.00174l0.65177,-12.05784l13.36139,-5.54008l6.84363,13.03549c0,0 -5.01164,4.312 -8.38104,6.10044c-0.62897,0.33385 -12.47575,-1.53801 -12.47575,-1.53801z" fill="#bbbbbb" stroke="none" stroke-width="0"/><path d="M236.8113,296.78952l0.62259,-11.51793l12.76311,-5.29202l6.5372,12.45182c0,0 -4.78725,4.11893 -8.00577,5.82729c-0.60081,0.3189 -11.91712,-1.46916 -11.91712,-1.46916z" fill="#ffffff" stroke="#000000" stroke-width="4.5"/></g><g data-paper-data="{&quot;index&quot;:null}"><path d="M261.5,281.96209l0.49552,-9.16721l10.15826,-4.21196l5.20301,9.91049c0,0 -3.8102,3.27829 -6.37185,4.63798c-0.47819,0.25382 -9.48493,-1.1693 -9.48493,-1.1693z" fill="#bbbbbb" stroke="none" stroke-width="0"/><path d="M261.73667,278.75966l0.47334,-8.75674l9.70341,-4.02336l4.97004,9.46674c0,0 -3.6396,3.1315 -6.08655,4.43031c-0.45678,0.24245 -9.06023,-1.11695 -9.06023,-1.11695z" fill="#ffffff" stroke="#000000" stroke-width="4.5"/></g><g data-paper-data="{&quot;index&quot;:null}"><path d="M434.5,231.48439l1.34883,-24.95337l27.65103,-11.46506l14.16271,26.97661c0,0 -10.37146,8.92358 -17.34434,12.62469c-1.30165,0.6909 -25.81822,-3.18288 -25.81822,-3.18288z" fill="#bbbbbb" stroke="none" stroke-width="0"/><path d="M435.14422,222.76731l1.28844,-23.83605l26.41291,-10.95169l13.52857,25.76871c0,0 -9.90708,8.52402 -16.56773,12.05941c-1.24336,0.65996 -24.66217,-3.04038 -24.66217,-3.04038z" fill="#ffffff" stroke="#000000" stroke-width="4.5"/></g><g data-paper-data="{&quot;index&quot;:null}"><path d="M446.5,269.39202l0.97392,-18.01746l19.96529,-8.27829l10.22612,19.47834c0,0 -7.48866,6.44323 -12.5234,9.1156c-0.93985,0.49886 -18.64193,-2.29818 -18.64193,-2.29818z" fill="#bbbbbb" stroke="none" stroke-width="0"/><path d="M446.96516,263.09789l0.93031,-17.21071l19.07132,-7.90762l9.76824,18.60617c0,0 -7.15336,6.15473 -11.96265,8.70744c-0.89776,0.47652 -17.80721,-2.19529 -17.80721,-2.19529z" fill="#ffffff" stroke="#000000" stroke-width="4.5"/></g><g data-paper-data="{&quot;index&quot;:null}"><path d="M365.5,359.39202l0.97391,-18.01747l19.9653,-8.27829l10.22613,19.47833c0,0 -7.48867,6.44323 -12.5234,9.1156c-0.93984,0.49886 -18.64193,-2.29818 -18.64193,-2.29818z" fill="#bbbbbb" stroke="none" stroke-width="0"/><path d="M365.96516,353.09789l0.93031,-17.21071l19.07133,-7.90762l9.76824,18.60618c0,0 -7.15337,6.15473 -11.96265,8.70745c-0.89776,0.47652 -17.80721,-2.19529 -17.80721,-2.19529z" fill="#ffffff" stroke="#000000" stroke-width="4.5"/></g><g data-paper-data="{&quot;index&quot;:null}"><path d="M307.5,386.55061l1.59891,-29.57997l32.7778,-13.59079l16.78862,31.97834c0,0 -12.29443,10.57809 -20.56015,14.96542c-1.54298,0.819 -30.60518,-3.77301 -30.60518,-3.77301z" fill="#bbbbbb" stroke="none" stroke-width="0"/><path d="M308.26366,376.21729l1.52733,-28.25549l31.31013,-12.98224l16.0369,30.54648c0,0 -11.74396,10.10446 -19.63955,14.29535c-1.47389,0.78232 -29.23478,-3.6041 -29.23478,-3.6041z" fill="#ffffff" stroke="#000000" stroke-width="4.5"/></g><g data-paper-data="{&quot;index&quot;:null}"><path d="M265.5,356.88075l0.77204,-14.28275l15.82682,-6.56234l8.10642,15.4408c0,0 -5.93639,5.10765 -9.92751,7.22609c-0.74503,0.39545 -14.77777,-1.82181 -14.77777,-1.82181z" fill="#bbbbbb" stroke="none" stroke-width="0"/><path d="M265.86874,351.89128l0.73747,-13.64322l15.11816,-6.2685l7.74345,14.74943c0,0 -5.67059,4.87896 -9.483,6.90254c-0.71167,0.37775 -14.11607,-1.74025 -14.11607,-1.74025z" fill="#ffffff" stroke="#000000" stroke-width="4.5"/></g></g></g></svg>