<svg version="1.1" xmlns="http://www.w3.org/2000/svg" xmlns:xlink="http://www.w3.org/1999/xlink" width="20" height="36" viewBox="0,0,20,36"><g transform="translate(-230,-162)"><g data-paper-data="{&quot;isPaintingLayer&quot;:true}" fill-rule="nonzero" stroke-linejoin="miter" stroke-miterlimit="10" stroke-dasharray="" stroke-dashoffset="0" style="mix-blend-mode: normal"><path d="M245.1875,171c0,3.07208 -2.54638,5.5625 -5.6875,5.5625c-3.14112,0 -5.6875,-2.49042 -5.6875,-5.5625c0,-3.07208 2.54638,-5.5625 5.6875,-5.5625c3.14112,0 5.6875,2.49042 5.6875,5.5625z" fill="#ffffff" stroke="#000000" stroke-width="2" stroke-linecap="butt"/><path d="M239.26042,176.92709l-0.0625,9.4375" fill="none" stroke="#000000" stroke-width="2" stroke-linecap="round"/><path d="M239.19792,186.30209c0,0 2.39162,2.63654 3.10073,4.04417c0.68596,1.36167 1.08677,4.26833 1.08677,4.26833" fill="none" stroke="#000000" stroke-width="2" stroke-linecap="round"/><path d="M239.19792,186.36459c0,0 -0.72975,3.10404 -1.26247,4.51042c-0.50775,1.34045 -2.23753,3.48958 -2.23753,3.48958" fill="none" stroke="#000000" stroke-width="2" stroke-linecap="round"/><path d="M237.8095,186.11006l-1.43475,-3.25662l2.39278,-3.67864" fill="none" stroke="#000000" stroke-width="2" stroke-linecap="round"/><path d="M242.88196,185.33742l-3.11348,-1.72344l-0.32253,-4.37651" fill="none" stroke="#000000" stroke-width="2" stroke-linecap="round"/><path d="M230,198v-36h20v36z" fill="none" stroke="none" stroke-width="0" stroke-linecap="butt"/></g></g></svg>