<svg version="1.1" xmlns="http://www.w3.org/2000/svg" xmlns:xlink="http://www.w3.org/1999/xlink" width="690.59609" height="754.85146" viewBox="0,0,690.59609,754.85146"><defs><linearGradient x1="245" y1="305.5" x2="245" y2="327.5" gradientUnits="userSpaceOnUse" id="color-1"><stop offset="0" stop-color="#999999"/><stop offset="1" stop-color="#999999" stop-opacity="0"/></linearGradient><linearGradient x1="245" y1="36.5" x2="245" y2="14.5" gradientUnits="userSpaceOnUse" id="color-2"><stop offset="0" stop-color="#999999"/><stop offset="1" stop-color="#999999" stop-opacity="0"/></linearGradient></defs><g transform="translate(71.29804,231.17574)"><g data-paper-data="{&quot;isPaintingLayer&quot;:true}" fill-rule="nonzero" stroke-linejoin="miter" stroke-miterlimit="10" stroke-dasharray="" stroke-dashoffset="0" style="mix-blend-mode: normal"><path d="M349.20834,-61.125c0,-2.75912 0,-7.96471 0,-9.5c0,-0.83667 0.7851,-1.75 1.47916,-1.75c1.11192,0 4.52108,0 6.625,0c1.01711,0 1.72916,1.06525 1.72916,2c0,1.62535 0,6.88743 0,9.5c0,0.91112 -0.7851,1.5 -1.47916,1.5c-1.11192,0 -4.52108,0 -6.625,0c-1.01711,0 -1.72916,-0.69675 -1.72916,-1.75z" fill="none" stroke="#000000" stroke-width="3" stroke-linecap="butt"/><path d="M-14,388v-416h508v416z" fill="#ffffff" stroke="#000000" stroke-width="2" stroke-linecap="butt"/><path d="M288.0282,48.85257c0,-3.60808 0,-10.41539 0,-12.42308c0,-1.09412 1.02667,-2.28846 1.9343,-2.28846c1.45405,0 5.91218,0 8.66346,0c1.33006,0 2.26122,1.39302 2.26122,2.61539c0,2.12546 0,9.00664 0,12.42308c0,1.19146 -1.02667,1.96154 -1.9343,1.96154c-1.45405,0 -5.91218,0 -8.66346,0c-1.33006,0 -2.26123,-0.91114 -2.26123,-2.28846z" fill="none" stroke="#000000" stroke-width="2.5" stroke-linecap="butt"/><path d="M294.62116,48.08975v14.82051" fill="none" stroke="#000000" stroke-width="2.5" stroke-linecap="round"/><path d="M288.35514,74.35257c0,-3.60809 0,-10.41539 0,-12.42308c0,-1.09412 1.02667,-2.28846 1.93429,-2.28846c1.45405,0 5.91218,0 8.66346,0c1.33006,0 2.26121,1.39302 2.26121,2.61538c0,2.12547 0,9.00665 0,12.42308c0,1.19146 -1.02667,1.96154 -1.93429,1.96154c-1.45405,0 -5.91219,0 -8.66346,0c-1.33006,0 -2.26121,-0.91114 -2.26121,-2.28846z" fill="none" stroke="#000000" stroke-width="2.5" stroke-linecap="butt"/><path d="M288.19168,23.84295c0,-3.60809 0,-10.41539 0,-12.42307c0,-1.09412 1.02667,-2.28847 1.93428,-2.28847c1.45405,0 5.91218,0 8.66346,0c1.33006,0 2.26121,1.39302 2.26121,2.61539c0,2.12547 0,9.00665 0,12.42308c0,1.19146 -1.02667,1.96154 -1.93428,1.96154c-1.45405,0 -5.91218,0 -8.66346,0c-1.33005,0 -2.26121,-0.91114 -2.26121,-2.28846z" fill="none" stroke="#000000" stroke-width="2.5" stroke-linecap="butt"/><path d="M294.78462,23.08014v14.82052" fill="none" stroke="#000000" stroke-width="2.5" stroke-linecap="round"/><path d="M295.05705,71.84615v14.82053" fill="none" stroke="#000000" stroke-width="2.5" stroke-linecap="round"/><path d="M282.03461,91.67949v-143.84615h26.15385v143.84615z" fill="none" stroke="none" stroke-width="2.5" stroke-linecap="butt"/><path d="M305.37693,98.43591c0,5.77775 -4.68379,10.46153 -10.46154,10.46153c-5.77775,0 -10.46154,-4.68379 -10.46154,-10.46153c0,-5.77775 4.68379,-10.46154 10.46154,-10.46154c5.77775,0 10.46154,4.68379 10.46154,10.46154z" fill="none" stroke="#000000" stroke-width="2.5" stroke-linecap="butt"/><path d="M278.7,119.62052v-37.4h46.75v37.4z" fill="none" stroke="none" stroke-width="2.5" stroke-linecap="butt"/><path d="M357.70196,507.37169l208.02204,-683.54743l53.57405,16.30403l-208.02204,683.54743z" fill="#f3f3f3" stroke="none" stroke-width="0" stroke-linecap="butt"/><path d="M222.70196,475.37169l208.02204,-683.54743l53.57405,16.30403l-208.02204,683.54743z" fill="#f3f3f3" stroke="none" stroke-width="0" stroke-linecap="butt"/><path d="M62.70196,465.37169l208.02204,-683.54743l53.57405,16.30403l-208.02204,683.54743z" fill="#f3f3f3" stroke="none" stroke-width="0" stroke-linecap="butt"/><path d="M-71.29804,452.37169l208.02204,-683.54743l53.57405,16.30403l-208.02204,683.54743z" fill="#f3f3f3" stroke="none" stroke-width="0" stroke-linecap="butt"/><path d="M-49.5,416.5v-120h582v120z" fill="#cccccc" stroke="none" stroke-width="0" stroke-linecap="butt"/><path d="M-33.5,303.5v-16h555v16z" fill="#ffffff" stroke="#000000" stroke-width="4.5" stroke-linecap="butt"/><g stroke-linecap="butt"><path d="M62.5,373.41634l1.31508,-24.32904l26.95921,-11.17821l13.80838,26.30167c0,0 -10.11198,8.70032 -16.91041,12.30884c-1.26908,0.67361 -25.17226,-3.10325 -25.17226,-3.10325z" fill="#bbbbbb" stroke="none" stroke-width="0"/><path d="M63.1281,364.91737l1.2562,-23.23968l25.75208,-10.67769l13.19009,25.12398c0,0 -9.65921,8.31076 -16.15322,11.7577c-1.21225,0.64345 -24.04515,-2.9643 -24.04515,-2.9643z" fill="#ffffff" stroke="#000000" stroke-width="4.5"/></g><g stroke-linecap="butt"><path d="M305.5,341.3938l0.91133,-16.85961l18.68228,-7.74631l9.56896,18.22661c0,0 -7.00743,6.02917 -11.71862,8.52981c-0.87945,0.4668 -17.44395,-2.1505 -17.44395,-2.1505z" fill="#bbbbbb" stroke="none" stroke-width="0"/><path d="M305.93526,335.50416l0.87053,-16.1047l17.84575,-7.39945l9.14051,17.41049c0,0 -6.69367,5.75922 -11.19391,8.14788c-0.84007,0.4459 -16.66287,-2.05421 -16.66287,-2.05421z" fill="#ffffff" stroke="#000000" stroke-width="4.5"/></g><g stroke-linecap="butt"><path d="M108.5,349.3938l0.91133,-16.85961l18.68227,-7.74631l9.56897,18.22661c0,0 -7.00743,6.02917 -11.71862,8.52981c-0.87945,0.4668 -17.44395,-2.1505 -17.44395,-2.1505z" fill="#bbbbbb" stroke="none" stroke-width="0"/><path d="M108.93526,343.50416l0.87053,-16.1047l17.84575,-7.39946l9.14051,17.41049c0,0 -6.69366,5.75921 -11.19391,8.14789c-0.84007,0.4459 -16.66288,-2.05421 -16.66288,-2.05421z" fill="#ffffff" stroke="#000000" stroke-width="4.5"/></g><g stroke-linecap="butt"><path d="M344.5,349.44138l1.09883,-20.32836l22.52603,-9.34006l11.53771,21.97661c0,0 -8.44916,7.26963 -14.12965,10.28476c-1.06039,0.56284 -21.03292,-2.59295 -21.03292,-2.59295z" fill="#bbbbbb" stroke="none" stroke-width="0"/><path d="M345.02482,342.33998l1.04963,-19.41814l21.51739,-8.92184l11.0211,20.99258c0,0 -8.07084,6.94413 -13.49697,9.82426c-1.01291,0.53764 -20.09115,-2.47686 -20.09115,-2.47686z" fill="#ffffff" stroke="#000000" stroke-width="4.5"/></g><g stroke-linecap="butt"><path d="M383.5,336.41883l0.69508,-12.85893l14.24909,-5.90816l7.29831,13.90155c0,0 -5.34461,4.59848 -8.93786,6.50574c-0.67076,0.35603 -13.30461,-1.6402 -13.30461,-1.6402z" fill="#bbbbbb" stroke="none" stroke-width="0"/><path d="M383.83198,331.92676l0.66395,-12.28316l13.61107,-5.64361l6.97152,13.27909c0,0 -5.1053,4.39259 -8.53766,6.21444c-0.64073,0.34009 -12.70888,-1.56676 -12.70888,-1.56676z" fill="#ffffff" stroke="#000000" stroke-width="4.5"/></g><path d="M-32.5,327.5v-22h555v22z" fill="url(#color-1)" stroke="none" stroke-width="0" stroke-linecap="butt"/><path d="M532.5,-73.5v120h-582v-120z" data-paper-data="{&quot;index&quot;:null}" fill="#cccccc" stroke="none" stroke-width="0" stroke-linecap="butt"/><path d="M353.41715,146.04353v-117.2102h21.31095v117.2102z" fill="none" stroke="none" stroke-width="2.5" stroke-linecap="butt"/><path d="M521.5,38.5v16h-555v-16z" data-paper-data="{&quot;index&quot;:null}" fill="#ffffff" stroke="#000000" stroke-width="4.5" stroke-linecap="butt"/><path d="M522.5,14.5v22h-555v-22z" data-paper-data="{&quot;index&quot;:null}" fill="url(#color-2)" stroke="none" stroke-width="0" stroke-linecap="butt"/><path d="M61.00625,220.63333c0,8.29462 -6.87523,15.01875 -15.35625,15.01875c-8.48102,0 -15.35625,-6.72413 -15.35625,-15.01875c0,-8.29462 6.87523,-15.01875 15.35625,-15.01875c8.48102,0 15.35625,6.72413 15.35625,15.01875z" fill="#ffffff" stroke="#000000" stroke-width="5.5" stroke-linecap="butt"/><path d="M45.00313,236.63648l-0.16875,25.48125" fill="none" stroke="#000000" stroke-width="5.5" stroke-linecap="round"/><path d="M44.83438,261.94898l7.425,22.44375" fill="none" stroke="#000000" stroke-width="5.5" stroke-linecap="round"/><path d="M36.39688,284.39273l8.4375,-22.275" fill="none" stroke="#000000" stroke-width="5.5" stroke-linecap="round"/><path d="M34.96791,260.15135l-0.84972,-9.57074l9.30428,-7.3362" fill="none" stroke="#000000" stroke-width="5.5" stroke-linecap="round"/><path d="M60.87301,253.73169l-9.58638,-0.64965l-5.79928,-10.33239" fill="none" stroke="#000000" stroke-width="5.5" stroke-linecap="round"/><path d="M20,293.53333v-97.2h54v97.2z" fill="none" stroke="none" stroke-width="5.5" stroke-linecap="butt"/><path d="M461.08936,180.93502l10.77582,106.06719" data-paper-data="{&quot;index&quot;:null}" fill="none" stroke="#000000" stroke-width="4.5" stroke-linecap="round"/><path d="M466.04768,232.70007l-47.81714,-15.91835l43.30889,-28.4567z" data-paper-data="{&quot;index&quot;:null}" fill="none" stroke="#000000" stroke-width="4.5" stroke-linecap="round"/><path d="M342.10891,287.11561c-4.02229,3.57112 -42.10526,3.54714 -46.0215,-0.77269c-1.09726,-1.21033 3.9518,-27.99528 15.81023,-27.86782c1.25196,0.01346 2.82391,-0.10427 4.76497,0.00653c1.50881,0.08613 3.29589,0.36557 4.97414,0.59712c4.51737,0.62326 9.25733,2.60823 12.11371,5.29822c8.31924,7.83462 9.31868,21.88613 8.35844,22.73866z" data-paper-data="{&quot;index&quot;:null}" fill="#ffffff" stroke="#000000" stroke-width="2" stroke-linecap="butt"/><path d="M305.14109,270.09663c0,-2.50455 2.03034,-4.53489 4.53489,-4.53489c2.50455,0 4.53489,2.03034 4.53489,4.53489c0,2.50455 -2.03034,4.53489 -4.53489,4.53489c-2.50455,0 -4.53489,-2.03034 -4.53489,-4.53489z" data-paper-data="{&quot;index&quot;:null}" fill="#000000" stroke="none" stroke-width="0.5" stroke-linecap="butt"/><path d="M315.60622,270.65476c0,-2.50455 2.03034,-4.53489 4.53489,-4.53489c2.50455,0 4.53489,2.03034 4.53489,4.53489c0,2.50455 -2.03034,4.53489 -4.53489,4.53489c-2.50455,0 -4.53489,-2.03034 -4.53489,-4.53489z" data-paper-data="{&quot;index&quot;:null}" fill="#000000" stroke="none" stroke-width="0.5" stroke-linecap="butt"/><path d="M306.57132,269.53849c0,-1.25228 1.01516,-2.26745 2.26745,-2.26745c1.25228,0 2.26745,1.01516 2.26745,2.26745c0,1.25228 -1.01516,2.26745 -2.26745,2.26745c-1.25228,0 -2.26745,-1.01516 -2.26745,-2.26745z" data-paper-data="{&quot;index&quot;:null}" fill="#ffffff" stroke="none" stroke-width="0.5" stroke-linecap="butt"/><path d="M317.03645,270.23616c0,-1.25228 1.01516,-2.26745 2.26745,-2.26745c1.25228,0 2.26745,1.01516 2.26745,2.26745c0,1.25228 -1.01516,2.26745 -2.26745,2.26745c-1.25228,0 -2.26745,-1.01516 -2.26745,-2.26745z" data-paper-data="{&quot;index&quot;:null}" fill="#ffffff" stroke="none" stroke-width="0.5" stroke-linecap="butt"/><path d="M296.42015,291.16642v-33.62796h50.93032v33.62796z" data-paper-data="{&quot;index&quot;:null}" fill="none" stroke="none" stroke-width="NaN" stroke-linecap="butt"/><path d="M61.66862,250.99805v-7.9961h7.9961v7.9961z" fill="none" stroke="#000000" stroke-width="3.5" stroke-linecap="butt"/><path d="M60.01258,247l5.65409,-5.65409l5.65409,5.65409l-5.65409,5.65409z" fill="none" stroke="#000000" stroke-width="3.5" stroke-linecap="butt"/><path d="M75.0282,132.85257c0,-3.60808 0,-10.41539 0,-12.42308c0,-1.09412 1.02667,-2.28846 1.9343,-2.28846c1.45405,0 5.91218,0 8.66346,0c1.33007,0 2.26122,1.39302 2.26122,2.61538c0,2.12546 0,9.00664 0,12.42308c0,1.19146 -1.02667,1.96154 -1.9343,1.96154c-1.45405,0 -5.91218,0 -8.66346,0c-1.33007,0 -2.26122,-0.91113 -2.26122,-2.28846z" fill="none" stroke="#000000" stroke-width="2.5" stroke-linecap="butt"/><path d="M81.62115,132.08975v14.82051" fill="none" stroke="#000000" stroke-width="2.5" stroke-linecap="round"/><path d="M75.35514,158.35257c0,-3.60809 0,-10.41539 0,-12.42308c0,-1.09412 1.02667,-2.28846 1.93429,-2.28846c1.45405,0 5.91218,0 8.66346,0c1.33005,0 2.26121,1.39302 2.26121,2.61538c0,2.12547 0,9.00665 0,12.42308c0,1.19146 -1.02667,1.96154 -1.93429,1.96154c-1.45405,0 -5.91218,0 -8.66346,0c-1.33005,0 -2.26121,-0.91113 -2.26121,-2.28846z" fill="none" stroke="#000000" stroke-width="2.5" stroke-linecap="butt"/><path d="M75.19168,107.84295c0,-3.60809 0,-10.41539 0,-12.42308c0,-1.09412 1.02667,-2.28846 1.93429,-2.28846c1.45405,0 5.91218,0 8.66346,0c1.33005,0 2.26121,1.39302 2.26121,2.61538c0,2.12547 0,9.00665 0,12.42308c0,1.19146 -1.02667,1.96154 -1.93429,1.96154c-1.45405,0 -5.91218,0 -8.66346,0c-1.33005,0 -2.26121,-0.91113 -2.26121,-2.28846z" fill="none" stroke="#000000" stroke-width="2.5" stroke-linecap="butt"/><path d="M81.78462,107.08013v14.82052" fill="none" stroke="#000000" stroke-width="2.5" stroke-linecap="round"/><path d="M75.02821,82.83333c0,-3.60809 0,-10.41539 0,-12.42308c0,-1.09412 1.02667,-2.28846 1.93429,-2.28846c1.45405,0 5.91218,0 8.66346,0c1.33005,0 2.26121,1.39302 2.26121,2.61538c0,2.12547 0,9.00665 0,12.42308c0,1.19146 -1.02667,1.96154 -1.93429,1.96154c-1.45405,0 -5.91218,0 -8.66346,0c-1.33005,0 -2.26121,-0.91113 -2.26121,-2.28846z" fill="none" stroke="#000000" stroke-width="2.5" stroke-linecap="butt"/><path d="M81.62115,82.07052v14.82052" fill="none" stroke="#000000" stroke-width="2.5" stroke-linecap="round"/><path d="M81.78462,57.06089v14.82052" fill="none" stroke="#000000" stroke-width="2.5" stroke-linecap="round"/><path d="M82.05705,155.84615v14.82052" fill="none" stroke="#000000" stroke-width="2.5" stroke-linecap="round"/><path d="M69.03462,175.67949v-143.84615h26.15385v143.84615z" fill="none" stroke="none" stroke-width="2.5" stroke-linecap="butt"/><path d="M92.37692,182.4359c0,5.77775 -4.68379,10.46154 -10.46154,10.46154c-5.77775,0 -10.46154,-4.68379 -10.46154,-10.46154c0,-5.77775 4.68379,-10.46154 10.46154,-10.46154c5.77775,0 10.46154,4.68379 10.46154,10.46154z" fill="none" stroke="#000000" stroke-width="2.5" stroke-linecap="butt"/><path d="M65.7,203.62052v-37.4h46.75v37.4z" fill="none" stroke="none" stroke-width="2.5" stroke-linecap="butt"/><text transform="translate(35.02017,163.45631) scale(1.97491,1.97491)" font-size="40" xml:space="preserve" fill="#2e2e2e" fill-rule="nonzero" stroke="#2e2e2e" stroke-width="2" stroke-linecap="butt" stroke-linejoin="miter" stroke-miterlimit="10" stroke-dasharray="" stroke-dashoffset="0" font-family="&quot;ヒラギノ角ゴ Pro W3&quot;, &quot;Hiragino Kaku Gothic Pro&quot;, Osaka, &quot;メイリオ&quot;, Meiryo, &quot;ＭＳ Ｐゴシック&quot;, &quot;MS PGothic&quot;" font-weight="normal" text-anchor="start" style="mix-blend-mode: normal"><tspan x="0" dy="0">StickQuest</tspan></text><text transform="translate(32.21904,159.25463) scale(1.97491,1.97491)" font-size="40" xml:space="preserve" fill="#ffffff" fill-rule="nonzero" stroke="#000000" stroke-width="2" stroke-linecap="butt" stroke-linejoin="miter" stroke-miterlimit="10" stroke-dasharray="" stroke-dashoffset="0" font-family="&quot;ヒラギノ角ゴ Pro W3&quot;, &quot;Hiragino Kaku Gothic Pro&quot;, Osaka, &quot;メイリオ&quot;, Meiryo, &quot;ＭＳ Ｐゴシック&quot;, &quot;MS PGothic&quot;" font-weight="normal" text-anchor="start" style="mix-blend-mode: normal"><tspan x="0" dy="0">StickQuest</tspan></text></g></g></svg>