<svg version="1.1" xmlns="http://www.w3.org/2000/svg" xmlns:xlink="http://www.w3.org/1999/xlink" width="585.56613" height="241.32275" viewBox="0,0,585.56613,241.32275"><defs><linearGradient x1="42.88699" y1="322.25144" x2="42.88699" y2="328.45343" gradientUnits="userSpaceOnUse" id="color-1"><stop offset="0" stop-color="#ffffff"/><stop offset="1" stop-color="#b4b4b4"/></linearGradient><linearGradient x1="41.87735" y1="308.98205" x2="41.87735" y2="315.18404" gradientUnits="userSpaceOnUse" id="color-2"><stop offset="0" stop-color="#ffffff"/><stop offset="1" stop-color="#b4b4b4"/></linearGradient><linearGradient x1="61.06028" y1="300.94108" x2="61.06028" y2="333.97032" gradientUnits="userSpaceOnUse" id="color-3"><stop offset="0" stop-color="#ffffff"/><stop offset="1" stop-color="#b4b4b4"/></linearGradient><linearGradient x1="7.67623" y1="322.08917" x2="7.67623" y2="328.29117" gradientUnits="userSpaceOnUse" id="color-4"><stop offset="0" stop-color="#ffffff"/><stop offset="1" stop-color="#b4b4b4"/></linearGradient><linearGradient x1="6.6666" y1="308.81978" x2="6.6666" y2="315.02178" gradientUnits="userSpaceOnUse" id="color-5"><stop offset="0" stop-color="#ffffff"/><stop offset="1" stop-color="#b4b4b4"/></linearGradient><linearGradient x1="-7.25183" y1="300.4543" x2="-7.25183" y2="333.48354" gradientUnits="userSpaceOnUse" id="color-6"><stop offset="0" stop-color="#ffffff"/><stop offset="1" stop-color="#b4b4b4"/></linearGradient><linearGradient x1="25.84952" y1="300.77882" x2="25.84952" y2="333.80806" gradientUnits="userSpaceOnUse" id="color-7"><stop offset="0" stop-color="#ffffff"/><stop offset="1" stop-color="#b4b4b4"/></linearGradient><linearGradient x1="81.0545" y1="251.875" x2="81.0545" y2="301.52703" gradientUnits="userSpaceOnUse" id="color-8"><stop offset="0" stop-color="#ffffff"/><stop offset="1" stop-color="#b4b4b4"/></linearGradient><linearGradient x1="80.32432" y1="302.98738" x2="80.32432" y2="317.77636" gradientUnits="userSpaceOnUse" id="color-9"><stop offset="0" stop-color="#c9c9c9"/><stop offset="1" stop-color="#c9c9c9" stop-opacity="0"/></linearGradient><linearGradient x1="211.06364" y1="93.64757" x2="211.06364" y2="124.24384" gradientUnits="userSpaceOnUse" id="color-10"><stop offset="0" stop-color="#8f8f8f"/><stop offset="1" stop-color="#8f8f8f" stop-opacity="0"/></linearGradient></defs><g transform="translate(81.7194,-93.64757)"><g data-paper-data="{&quot;isPaintingLayer&quot;:true}" fill-rule="nonzero" stroke-linecap="butt" stroke-linejoin="miter" stroke-miterlimit="10" stroke-dasharray="" stroke-dashoffset="0" style="mix-blend-mode: normal"><path d="M27.05747,328.45343v-6.20199h31.65903v6.20199z" fill="url(#color-1)" stroke="#000000" stroke-width="2"/><path d="M26.04784,315.18404v-6.20199h31.65903v6.20199z" fill="url(#color-2)" stroke="#000000" stroke-width="2"/><path d="M57.92322,333.97032v-29.83286c0,0 2.00285,-3.19638 3.03011,-3.19638c1.0629,0 3.244,3.19638 3.244,3.19638v29.83286z" fill="url(#color-3)" stroke="#000000" stroke-width="2"/><path d="M-8.15329,328.29117v-6.20199h31.65903v6.20199z" fill="url(#color-4)" stroke="#000000" stroke-width="2"/><path d="M-9.16291,315.02178v-6.20199h31.65903v6.20199z" fill="url(#color-5)" stroke="#000000" stroke-width="2"/><path d="M-10.38889,333.48354v-29.83286c0,0 2.00285,-3.19638 3.03011,-3.19638c1.0629,0 3.244,3.19638 3.244,3.19638v29.83286z" fill="url(#color-6)" stroke="#000000" stroke-width="2"/><path d="M22.71246,333.80806v-29.83286c0,0 2.00285,-3.19638 3.03011,-3.19638c1.0629,0 3.244,3.19638 3.244,3.19638v29.83286z" fill="url(#color-7)" stroke="#000000" stroke-width="2"/><path d="M76.75457,333.81708v-34.72397h7.13951v34.72397z" fill="#ffffff" stroke="#000000" stroke-width="2"/><path d="M65.234,296.65918c0,-10.60503 0,-35.28201 0,-40.72765c0,-2.08304 1.72154,-4.05654 3.40749,-4.05654c3.5823,0 17.25992,0 24.17697,0c2.45359,0 4.05654,2.24412 4.05654,4.54332c0,5.69204 0,30.28532 0,40.56538c0,2.80416 -2.10179,4.54332 -4.05654,4.54332c-3.79628,0 -17.23792,0 -23.85245,0c-2.26697,0 -3.73202,-1.8727 -3.73202,-4.86785z" fill="url(#color-8)" stroke="#000000" stroke-width="2"/><path d="M78.14538,317.77636v-14.78898h4.35788v14.78898z" fill="url(#color-9)" stroke="none" stroke-width="2"/><path d="M-81.7194,124.24384v-30.59627h585.56613v30.59627z" data-paper-data="{&quot;index&quot;:null}" fill="url(#color-10)" stroke="none" stroke-width="0"/></g></g></svg>