<svg version="1.1" xmlns="http://www.w3.org/2000/svg" xmlns:xlink="http://www.w3.org/1999/xlink" width="555.92655" height="162.84239" viewBox="0,0,555.92655,162.84239"><defs><linearGradient x1="241.09069" y1="97.97469" x2="241.09069" y2="128.57096" gradientUnits="userSpaceOnUse" id="color-1"><stop offset="0" stop-color="#8f8f8f"/><stop offset="1" stop-color="#8f8f8f" stop-opacity="0"/></linearGradient><linearGradient x1="222.0545" y1="177.875" x2="222.0545" y2="227.52703" gradientUnits="userSpaceOnUse" id="color-2"><stop offset="0" stop-color="#ffffff"/><stop offset="1" stop-color="#b4b4b4"/></linearGradient><linearGradient x1="221.32432" y1="228.98738" x2="221.32432" y2="243.77636" gradientUnits="userSpaceOnUse" id="color-3"><stop offset="0" stop-color="#c9c9c9"/><stop offset="1" stop-color="#c9c9c9" stop-opacity="0"/></linearGradient></defs><g transform="translate(36.87263,-97.97469)"><g data-paper-data="{&quot;isPaintingLayer&quot;:true}" fill-rule="nonzero" stroke-linecap="butt" stroke-linejoin="miter" stroke-miterlimit="10" stroke-dasharray="" stroke-dashoffset="0" style="mix-blend-mode: normal"><path d="M-36.87263,128.57096v-30.59627h555.92655v30.59627z" data-paper-data="{&quot;index&quot;:null}" fill="url(#color-1)" stroke="none" stroke-width="0"/><path d="M217.75457,259.81708v-34.72397h7.13951v34.72397z" fill="#ffffff" stroke="#000000" stroke-width="2"/><path d="M206.234,222.65918c0,-10.60503 0,-35.28201 0,-40.72765c0,-2.08304 1.72154,-4.05654 3.40749,-4.05654c3.5823,0 17.25992,0 24.17697,0c2.45359,0 4.05654,2.24412 4.05654,4.54332c0,5.69204 0,30.28532 0,40.56538c0,2.80416 -2.10179,4.54332 -4.05654,4.54332c-3.79628,0 -17.23792,0 -23.85245,0c-2.26697,0 -3.73202,-1.8727 -3.73202,-4.86785z" fill="url(#color-2)" stroke="#000000" stroke-width="2"/><path d="M219.14538,243.77636v-14.78898h4.35788v14.78898z" fill="url(#color-3)" stroke="none" stroke-width="2"/><path d="M202.5,251.5v-92h60v92z" fill="none" stroke="none" stroke-width="NaN"/></g></g></svg>