<svg version="1.1" xmlns="http://www.w3.org/2000/svg" xmlns:xlink="http://www.w3.org/1999/xlink" width="470.11274" height="311.31708" viewBox="0,0,470.11274,311.31708"><defs><linearGradient x1="248.88701" y1="161.75143" x2="248.88701" y2="167.95343" gradientUnits="userSpaceOnUse" id="color-1"><stop offset="0" stop-color="#ffffff"/><stop offset="1" stop-color="#b4b4b4"/></linearGradient><linearGradient x1="247.87737" y1="148.48205" x2="247.87737" y2="154.68403" gradientUnits="userSpaceOnUse" id="color-2"><stop offset="0" stop-color="#ffffff"/><stop offset="1" stop-color="#b4b4b4"/></linearGradient><linearGradient x1="265.5603" y1="140.44107" x2="265.5603" y2="173.47032" gradientUnits="userSpaceOnUse" id="color-3"><stop offset="0" stop-color="#ffffff"/><stop offset="1" stop-color="#b4b4b4"/></linearGradient><linearGradient x1="213.67625" y1="161.58916" x2="213.67625" y2="167.79116" gradientUnits="userSpaceOnUse" id="color-4"><stop offset="0" stop-color="#ffffff"/><stop offset="1" stop-color="#b4b4b4"/></linearGradient><linearGradient x1="212.66662" y1="148.31978" x2="212.66662" y2="154.52178" gradientUnits="userSpaceOnUse" id="color-5"><stop offset="0" stop-color="#ffffff"/><stop offset="1" stop-color="#b4b4b4"/></linearGradient><linearGradient x1="198.74819" y1="139.9543" x2="198.74819" y2="172.98354" gradientUnits="userSpaceOnUse" id="color-6"><stop offset="0" stop-color="#ffffff"/><stop offset="1" stop-color="#b4b4b4"/></linearGradient><linearGradient x1="231.84954" y1="140.27882" x2="231.84954" y2="173.30806" gradientUnits="userSpaceOnUse" id="color-7"><stop offset="0" stop-color="#ffffff"/><stop offset="1" stop-color="#b4b4b4"/></linearGradient><linearGradient x1="99.0545" y1="249.875" x2="99.0545" y2="299.52703" gradientUnits="userSpaceOnUse" id="color-8"><stop offset="0" stop-color="#ffffff"/><stop offset="1" stop-color="#b4b4b4"/></linearGradient><linearGradient x1="98.32432" y1="300.98738" x2="98.32432" y2="315.77636" gradientUnits="userSpaceOnUse" id="color-9"><stop offset="0" stop-color="#c9c9c9"/><stop offset="1" stop-color="#c9c9c9" stop-opacity="0"/></linearGradient><linearGradient x1="293.32432" y1="142.98738" x2="293.32432" y2="157.77636" gradientUnits="userSpaceOnUse" id="color-10"><stop offset="0" stop-color="#c9c9c9"/><stop offset="1" stop-color="#c9c9c9" stop-opacity="0"/></linearGradient><linearGradient x1="293.73095" y1="35.87501" x2="293.73095" y2="141.85004" gradientUnits="userSpaceOnUse" id="color-11"><stop offset="0" stop-color="#ffffff"/><stop offset="1" stop-color="#b4b4b4"/></linearGradient><linearGradient x1="458.56366" y1="63.64757" x2="458.56366" y2="94.24384" gradientUnits="userSpaceOnUse" id="color-12"><stop offset="0" stop-color="#8f8f8f"/><stop offset="1" stop-color="#8f8f8f" stop-opacity="0"/></linearGradient></defs><g transform="translate(-82.23399,-21.5)"><g data-paper-data="{&quot;isPaintingLayer&quot;:true}" fill-rule="nonzero" stroke-linecap="butt" stroke-linejoin="miter" stroke-miterlimit="10" stroke-dasharray="" stroke-dashoffset="0" style="mix-blend-mode: normal"><path d="M233.05749,167.95343v-6.20199h31.65903v6.20199z" fill="url(#color-1)" stroke="#000000" stroke-width="2"/><path d="M232.04786,154.68403v-6.20199h31.65903v6.20199z" fill="url(#color-2)" stroke="#000000" stroke-width="2"/><path d="M262.42323,173.47032v-29.83286c0,0 2.00285,-3.19638 3.03011,-3.19638c1.0629,0 3.244,3.19638 3.244,3.19638v29.83286z" fill="url(#color-3)" stroke="#000000" stroke-width="2"/><path d="M197.84673,167.79116v-6.20199h31.65903v6.20199z" fill="url(#color-4)" stroke="#000000" stroke-width="2"/><path d="M196.83711,154.52178v-6.20199h31.65903v6.20199z" fill="url(#color-5)" stroke="#000000" stroke-width="2"/><path d="M195.61113,172.98354v-29.83286c0,0 2.00285,-3.19638 3.03011,-3.19638c1.0629,0 3.244,3.19638 3.244,3.19638v29.83286z" fill="url(#color-6)" stroke="#000000" stroke-width="2"/><path d="M228.71247,173.30806v-29.83286c0,0 2.00285,-3.19638 3.03011,-3.19638c1.0629,0 3.244,3.19638 3.244,3.19638v29.83286z" fill="url(#color-7)" stroke="#000000" stroke-width="2"/><path d="M201.11113,182.5v-49.5h82.5v49.5z" fill="none" stroke="none" stroke-width="0"/><path d="M94.75457,331.81708v-34.72397h7.13951v34.72397z" fill="#ffffff" stroke="#000000" stroke-width="2"/><path d="M83.234,294.65918c0,-10.60503 0,-35.28201 0,-40.72765c0,-2.08304 1.72154,-4.05654 3.40749,-4.05654c3.5823,0 17.25992,0 24.17697,0c2.45359,0 4.05654,2.24412 4.05654,4.54332c0,5.69204 0,30.28532 0,40.56538c0,2.80416 -2.10179,4.54332 -4.05654,4.54332c-3.79628,0 -17.23792,0 -23.85245,0c-2.26697,0 -3.73202,-1.8727 -3.73202,-4.86785z" fill="url(#color-8)" stroke="#000000" stroke-width="2"/><path d="M96.14538,315.77636v-14.78898h4.35788v14.78898z" fill="url(#color-9)" stroke="none" stroke-width="2"/><path d="M289.75457,173.81708v-34.72397h7.13951v34.72397z" fill="#ffffff" stroke="#000000" stroke-width="2"/><path d="M291.14538,157.77636v-14.78898h4.35788v14.78898z" fill="url(#color-10)" stroke="none" stroke-width="2"/><path d="M272.234,131.46032c0,-22.63489 0,-75.30431 0,-86.92723c0,-4.44595 2.33923,-8.65809 4.63011,-8.65809c4.86764,0 23.45284,0 32.85175,0c3.33395,0 5.51204,4.78975 5.51204,9.69705c0,12.14883 0,64.6396 0,86.58089c0,5.98507 -2.85592,9.69705 -5.51204,9.69705c-5.1584,0 -23.42294,0 -32.41079,0c-3.08037,0 -5.07108,-3.99701 -5.07108,-10.38972z" fill="url(#color-11)" stroke="#000000" stroke-width="2"/><path d="M302.5,136.5v-115h20v115z" fill="none" stroke="none" stroke-width="0"/><path d="M364.7806,94.24384v-30.59627h187.56613v30.59627z" data-paper-data="{&quot;index&quot;:null}" fill="url(#color-12)" stroke="none" stroke-width="0"/></g></g></svg>