<svg version="1.1" xmlns="http://www.w3.org/2000/svg" xmlns:xlink="http://www.w3.org/1999/xlink" width="126.11113" height="105" viewBox="0,0,126.11113,105"><defs><linearGradient x1="112.88701" y1="320.75143" x2="112.88701" y2="326.95343" gradientUnits="userSpaceOnUse" id="color-1"><stop offset="0" stop-color="#ffffff"/><stop offset="1" stop-color="#b4b4b4"/></linearGradient><linearGradient x1="111.87737" y1="307.48205" x2="111.87737" y2="313.68403" gradientUnits="userSpaceOnUse" id="color-2"><stop offset="0" stop-color="#ffffff"/><stop offset="1" stop-color="#b4b4b4"/></linearGradient><linearGradient x1="129.5603" y1="299.44107" x2="129.5603" y2="332.47032" gradientUnits="userSpaceOnUse" id="color-3"><stop offset="0" stop-color="#ffffff"/><stop offset="1" stop-color="#b4b4b4"/></linearGradient><linearGradient x1="77.67625" y1="320.58916" x2="77.67625" y2="326.79116" gradientUnits="userSpaceOnUse" id="color-4"><stop offset="0" stop-color="#ffffff"/><stop offset="1" stop-color="#b4b4b4"/></linearGradient><linearGradient x1="76.66662" y1="307.31978" x2="76.66662" y2="313.52178" gradientUnits="userSpaceOnUse" id="color-5"><stop offset="0" stop-color="#ffffff"/><stop offset="1" stop-color="#b4b4b4"/></linearGradient><linearGradient x1="62.74819" y1="298.9543" x2="62.74819" y2="331.98354" gradientUnits="userSpaceOnUse" id="color-6"><stop offset="0" stop-color="#ffffff"/><stop offset="1" stop-color="#b4b4b4"/></linearGradient><linearGradient x1="95.84954" y1="299.27882" x2="95.84954" y2="332.30806" gradientUnits="userSpaceOnUse" id="color-7"><stop offset="0" stop-color="#ffffff"/><stop offset="1" stop-color="#b4b4b4"/></linearGradient><linearGradient x1="41.0545" y1="254.875" x2="41.0545" y2="304.52703" gradientUnits="userSpaceOnUse" id="color-8"><stop offset="0" stop-color="#ffffff"/><stop offset="1" stop-color="#b4b4b4"/></linearGradient><linearGradient x1="40.32432" y1="305.98738" x2="40.32432" y2="320.77636" gradientUnits="userSpaceOnUse" id="color-9"><stop offset="0" stop-color="#c9c9c9"/><stop offset="1" stop-color="#c9c9c9" stop-opacity="0"/></linearGradient></defs><g transform="translate(-21.5,-236.5)"><g data-paper-data="{&quot;isPaintingLayer&quot;:true}" fill-rule="nonzero" stroke-linecap="butt" stroke-linejoin="miter" stroke-miterlimit="10" stroke-dasharray="" stroke-dashoffset="0" style="mix-blend-mode: normal"><path d="M97.05749,326.95343v-6.20199h31.65903v6.20199z" fill="url(#color-1)" stroke="#000000" stroke-width="2"/><path d="M96.04786,313.68403v-6.20199h31.65903v6.20199z" fill="url(#color-2)" stroke="#000000" stroke-width="2"/><path d="M126.42323,332.47032v-29.83286c0,0 2.00285,-3.19638 3.03011,-3.19638c1.0629,0 3.244,3.19638 3.244,3.19638v29.83286z" fill="url(#color-3)" stroke="#000000" stroke-width="2"/><path d="M61.84673,326.79116v-6.20199h31.65903v6.20199z" fill="url(#color-4)" stroke="#000000" stroke-width="2"/><path d="M60.83711,313.52178v-6.20199h31.65903v6.20199z" fill="url(#color-5)" stroke="#000000" stroke-width="2"/><path d="M59.61113,331.98354v-29.83286c0,0 2.00285,-3.19638 3.03011,-3.19638c1.0629,0 3.244,3.19638 3.244,3.19638v29.83286z" fill="url(#color-6)" stroke="#000000" stroke-width="2"/><path d="M92.71247,332.30806v-29.83286c0,0 2.00285,-3.19638 3.03011,-3.19638c1.0629,0 3.244,3.19638 3.244,3.19638v29.83286z" fill="url(#color-7)" stroke="#000000" stroke-width="2"/><path d="M65.11113,341.5v-49.5h82.5v49.5z" fill="none" stroke="none" stroke-width="0"/><path d="M36.75457,336.81708v-34.72397h7.13951v34.72397z" fill="#ffffff" stroke="#000000" stroke-width="2"/><path d="M25.234,299.65918c0,-10.60503 0,-35.28201 0,-40.72765c0,-2.08304 1.72154,-4.05654 3.40749,-4.05654c3.5823,0 17.25992,0 24.17697,0c2.45359,0 4.05654,2.24412 4.05654,4.54332c0,5.69204 0,30.28532 0,40.56538c0,2.80416 -2.10179,4.54332 -4.05654,4.54332c-3.79628,0 -17.23792,0 -23.85245,0c-2.26697,0 -3.73202,-1.8727 -3.73202,-4.86785z" fill="url(#color-8)" stroke="#000000" stroke-width="2"/><path d="M38.14538,320.77636v-14.78898h4.35788v14.78898z" fill="url(#color-9)" stroke="none" stroke-width="2"/><path d="M21.5,328.5v-92h60v92z" fill="none" stroke="none" stroke-width="NaN"/></g></g></svg>