<svg version="1.1" xmlns="http://www.w3.org/2000/svg" xmlns:xlink="http://www.w3.org/1999/xlink" width="76.75422" height="76.80577" viewBox="0,0,76.75422,76.80577"><defs><radialGradient cx="240" cy="180" r="22.62033" gradientUnits="userSpaceOnUse" id="color-1"><stop offset="0" stop-color="#e2e2e2"/><stop offset="1" stop-color="#ffffff"/></radialGradient><linearGradient x1="239.74872" y1="144.16667" x2="239.74872" y2="157.33333" gradientUnits="userSpaceOnUse" id="color-2"><stop offset="0" stop-color="#dadada" stop-opacity="0"/><stop offset="1" stop-color="#dadada"/></linearGradient><linearGradient x1="240.91539" y1="216.16667" x2="240.91539" y2="203" gradientUnits="userSpaceOnUse" id="color-3"><stop offset="0" stop-color="#dadada" stop-opacity="0"/><stop offset="1" stop-color="#dadada"/></linearGradient><radialGradient cx="240.15655" cy="180" r="22.62033" gradientUnits="userSpaceOnUse" id="color-4"><stop offset="0" stop-color="#e2e2e2"/><stop offset="1" stop-color="#ffffff"/></radialGradient><linearGradient x1="275.973" y1="178.87196" x2="262.81027" y2="179.19415" gradientUnits="userSpaceOnUse" id="color-5"><stop offset="0" stop-color="#dadada" stop-opacity="0"/><stop offset="1" stop-color="#dadada"/></linearGradient><linearGradient x1="204.0231" y1="181.80011" x2="217.18583" y2="181.47793" gradientUnits="userSpaceOnUse" id="color-6"><stop offset="0" stop-color="#dadada" stop-opacity="0"/><stop offset="1" stop-color="#dadada"/></linearGradient><radialGradient cx="240.10446" cy="179.61486" r="22.62033" gradientUnits="userSpaceOnUse" id="color-7"><stop offset="0" stop-color="#e2e2e2"/><stop offset="1" stop-color="#ffffff"/></radialGradient><linearGradient x1="265.94595" y1="154.7893" x2="256.3872" y2="163.84423" gradientUnits="userSpaceOnUse" id="color-8"><stop offset="0" stop-color="#dadada" stop-opacity="0"/><stop offset="1" stop-color="#dadada"/></linearGradient><linearGradient x1="214.47769" y1="205.1518" x2="224.03644" y2="196.09688" gradientUnits="userSpaceOnUse" id="color-9"><stop offset="0" stop-color="#dadada" stop-opacity="0"/><stop offset="1" stop-color="#dadada"/></linearGradient><radialGradient cx="240.21212" cy="179.72852" r="22.62033" gradientUnits="userSpaceOnUse" id="color-10"><stop offset="0" stop-color="#ffffff"/><stop offset="1" stop-color="#e2e2e2"/></radialGradient><linearGradient x1="265.66258" y1="204.95479" x2="256.37647" y2="195.62048" gradientUnits="userSpaceOnUse" id="color-11"><stop offset="0" stop-color="#dadada" stop-opacity="0"/><stop offset="1" stop-color="#dadada"/></linearGradient><linearGradient x1="214.05574" y1="154.73432" x2="223.34186" y2="164.06862" gradientUnits="userSpaceOnUse" id="color-12"><stop offset="0" stop-color="#dadada" stop-opacity="0"/><stop offset="1" stop-color="#dadada"/></linearGradient></defs><g transform="translate(-201.62318,-141.76378)"><g data-paper-data="{&quot;isPaintingLayer&quot;:true}" fill-rule="nonzero" stroke-width="2" stroke-linejoin="miter" stroke-miterlimit="10" stroke-dasharray="" stroke-dashoffset="0" style="mix-blend-mode: normal"><path d="M217.37967,180c0,-12.49287 10.12747,-22.62033 22.62033,-22.62033c12.49287,0 22.62033,10.12747 22.62033,22.62033c0,12.49287 -10.12747,22.62033 -22.62033,22.62033c-12.49287,0 -22.62033,-10.12747 -22.62033,-22.62033z" fill="url(#color-1)" stroke="#000000" stroke-linecap="butt"/><g stroke-linecap="round"><path d="M233.72243,157.33333l6.10586,-13.16667l5.9467,13.16667z" fill="#ffffff" stroke="none"/><path d="M233.72243,157.33333l6.10586,-13.16667l5.9467,13.16667z" fill="url(#color-2)" stroke="none"/><path d="M233.72243,157.33333l6.10586,-13.16667l5.9467,13.16667z" fill="none" stroke="#000000"/></g><g data-paper-data="{&quot;index&quot;:null}" stroke-linecap="round"><path d="M246.94166,203l-5.9467,13.16667l-6.10586,-13.16667z" fill="#ffffff" stroke="none"/><path d="M246.94166,203l-5.9467,13.16667l-6.10586,-13.16667z" fill="url(#color-3)" stroke="none"/><path d="M246.94166,203l-5.9467,13.16667l-6.10586,-13.16667z" fill="none" stroke="#000000"/></g><path d="M239.60303,157.38644c12.48913,-0.3057 22.86138,9.57092 23.16708,22.06004c0.3057,12.48913 -9.57092,22.86138 -22.06004,23.16708c-12.48913,0.3057 -22.86138,-9.57092 -23.16708,-22.06004c-0.3057,-12.48913 9.57092,-22.86138 22.06004,-23.16708z" fill="url(#color-4)" stroke="#000000" stroke-linecap="butt"/><g stroke-linecap="round"><path d="M262.66281,173.16966l13.31214,5.78184l-13.01721,6.26711z" fill="#ffffff" stroke="none"/><path d="M262.66281,173.16966l13.31214,5.78184l-13.01721,6.26711z" fill="url(#color-5)" stroke="none"/><path d="M262.66281,173.16966l13.31214,5.78184l-13.01721,6.26711z" fill="none" stroke="#000000"/></g><g data-paper-data="{&quot;index&quot;:null}" stroke-linecap="round"><path d="M217.33329,187.5024l-13.30824,-5.62274l13.01332,-6.42622z" fill="#ffffff" stroke="none"/><path d="M217.33329,187.5024l-13.30824,-5.62274l13.01332,-6.42622z" fill="url(#color-6)" stroke="none"/><path d="M217.33329,187.50239l-13.30824,-5.62273l13.01332,-6.42622z" fill="none" stroke="#000000"/></g><path d="M224.54811,163.19295c9.06958,-8.59154 23.38673,-8.20401 31.97827,0.86556c8.59154,9.06958 8.20401,23.38673 -0.86556,31.97827c-9.06958,8.59154 -23.38673,8.20401 -31.97827,-0.86556c-8.59154,-9.06958 -8.20401,-23.38673 0.86556,-31.97827z" fill="url(#color-7)" stroke="#000000" stroke-linecap="butt"/><g stroke-linecap="round"><path d="M252.24283,159.46926l13.75784,-4.62219l-5.4691,13.37211z" fill="#ffffff" stroke="none"/><path d="M252.24283,159.46926l13.75784,-4.62219l-5.4691,13.37211z" fill="url(#color-8)" stroke="none"/><path d="M252.24283,159.46926l13.75784,-4.62219l-5.46911,13.37211z" fill="none" stroke="#000000"/></g><g data-paper-data="{&quot;index&quot;:null}" stroke-linecap="round"><path d="M228.1808,200.47183l-13.64838,4.73773l5.35965,-13.48766z" fill="#ffffff" stroke="none"/><path d="M228.1808,200.47183l-13.64838,4.73773l5.35965,-13.48766z" fill="url(#color-9)" stroke="none"/><path d="M228.1808,200.47183l-13.64838,4.73774l5.35965,-13.48766z" fill="none" stroke="#000000"/></g><path d="M256.24845,163.77498c8.8109,8.85663 8.77383,23.17897 -0.08279,31.98987c-8.85663,8.8109 -23.17897,8.77383 -31.98987,-0.08279c-8.8109,-8.85663 -8.77383,-23.17897 0.08279,-31.98987c8.85663,-8.8109 23.17897,-8.77383 31.98987,0.08279z" fill="url(#color-10)" stroke="#000000" stroke-linecap="butt"/><g stroke-linecap="round"><path d="M260.64872,191.37029l4.95746,13.64062l-13.50194,-5.14025z" fill="#ffffff" stroke="none"/><path d="M260.64872,191.37029l4.95746,13.64062l-13.50194,-5.14025z" fill="url(#color-11)" stroke="none"/><path d="M260.64872,191.37029l4.95746,13.64062l-13.50194,-5.14025z" fill="none" stroke="#000000"/></g><g data-paper-data="{&quot;index&quot;:null}" stroke-linecap="round"><path d="M219.06962,168.3188l-5.07029,-13.52837l13.61477,5.028z" fill="#ffffff" stroke="none"/><path d="M219.06962,168.3188l-5.07029,-13.52837l13.61477,5.028z" fill="url(#color-12)" stroke="none"/><path d="M219.06963,168.3188l-5.0703,-13.52836l13.61477,5.028z" fill="none" stroke="#000000"/></g></g></g></svg>