<svg version="1.1" xmlns="http://www.w3.org/2000/svg" xmlns:xlink="http://www.w3.org/1999/xlink" width="529.71936" height="252.72214" viewBox="0,0,529.71936,252.72214"><defs><linearGradient x1="299.31075" y1="303.22823" x2="299.31075" y2="309.43023" gradientUnits="userSpaceOnUse" id="color-1"><stop offset="0" stop-color="#ffffff"/><stop offset="1" stop-color="#b4b4b4"/></linearGradient><linearGradient x1="298.30111" y1="289.95885" x2="298.30111" y2="296.16083" gradientUnits="userSpaceOnUse" id="color-2"><stop offset="0" stop-color="#ffffff"/><stop offset="1" stop-color="#b4b4b4"/></linearGradient><linearGradient x1="315.98404" y1="281.91787" x2="315.98404" y2="314.94712" gradientUnits="userSpaceOnUse" id="color-3"><stop offset="0" stop-color="#ffffff"/><stop offset="1" stop-color="#b4b4b4"/></linearGradient><linearGradient x1="264.09999" y1="303.06596" x2="264.09999" y2="309.26796" gradientUnits="userSpaceOnUse" id="color-4"><stop offset="0" stop-color="#ffffff"/><stop offset="1" stop-color="#b4b4b4"/></linearGradient><linearGradient x1="263.09036" y1="289.79658" x2="263.09036" y2="295.99858" gradientUnits="userSpaceOnUse" id="color-5"><stop offset="0" stop-color="#ffffff"/><stop offset="1" stop-color="#b4b4b4"/></linearGradient><linearGradient x1="249.17193" y1="281.4311" x2="249.17193" y2="314.46034" gradientUnits="userSpaceOnUse" id="color-6"><stop offset="0" stop-color="#ffffff"/><stop offset="1" stop-color="#b4b4b4"/></linearGradient><linearGradient x1="282.27328" y1="281.75562" x2="282.27328" y2="314.78486" gradientUnits="userSpaceOnUse" id="color-7"><stop offset="0" stop-color="#ffffff"/><stop offset="1" stop-color="#b4b4b4"/></linearGradient><linearGradient x1="8.21344" y1="89.62966" x2="8.21344" y2="139.28169" gradientUnits="userSpaceOnUse" id="color-8"><stop offset="0" stop-color="#ffffff"/><stop offset="1" stop-color="#b4b4b4"/></linearGradient><linearGradient x1="7.48326" y1="140.74204" x2="7.48326" y2="155.53102" gradientUnits="userSpaceOnUse" id="color-9"><stop offset="0" stop-color="#c9c9c9"/><stop offset="1" stop-color="#c9c9c9" stop-opacity="0"/></linearGradient><linearGradient x1="-2.07602" y1="237.30802" x2="-2.07602" y2="267.90429" gradientUnits="userSpaceOnUse" id="color-10"><stop offset="0" stop-color="#8f8f8f"/><stop offset="1" stop-color="#8f8f8f" stop-opacity="0"/></linearGradient><linearGradient x1="127.59065" y1="236.97469" x2="127.59065" y2="267.57096" gradientUnits="userSpaceOnUse" id="color-11"><stop offset="0" stop-color="#8f8f8f"/><stop offset="1" stop-color="#8f8f8f" stop-opacity="0"/></linearGradient><linearGradient x1="264.83582" y1="237.64424" x2="264.83582" y2="268.24051" gradientUnits="userSpaceOnUse" id="color-12"><stop offset="0" stop-color="#8f8f8f"/><stop offset="1" stop-color="#8f8f8f" stop-opacity="0"/></linearGradient><linearGradient x1="428.06366" y1="237.64757" x2="428.06366" y2="268.24384" gradientUnits="userSpaceOnUse" id="color-13"><stop offset="0" stop-color="#8f8f8f"/><stop offset="1" stop-color="#8f8f8f" stop-opacity="0"/></linearGradient></defs><g transform="translate(49.87263,-71.25466)"><g data-paper-data="{&quot;isPaintingLayer&quot;:true}" fill-rule="nonzero" stroke-linecap="butt" stroke-linejoin="miter" stroke-miterlimit="10" stroke-dasharray="" stroke-dashoffset="0" style="mix-blend-mode: normal"><path d="M283.48123,309.43023v-6.20199h31.65903v6.20199z" fill="url(#color-1)" stroke="#000000" stroke-width="2"/><path d="M282.47159,296.16083v-6.20199h31.65903v6.20199z" fill="url(#color-2)" stroke="#000000" stroke-width="2"/><path d="M312.84697,314.94712v-29.83286c0,0 2.00285,-3.19638 3.03011,-3.19638c1.0629,0 3.244,3.19638 3.244,3.19638v29.83286z" fill="url(#color-3)" stroke="#000000" stroke-width="2"/><path d="M248.27047,309.26796v-6.20199h31.65903v6.20199z" fill="url(#color-4)" stroke="#000000" stroke-width="2"/><path d="M247.26085,295.99858v-6.20199h31.65903v6.20199z" fill="url(#color-5)" stroke="#000000" stroke-width="2"/><path d="M246.03487,314.46034v-29.83286c0,0 2.00285,-3.19638 3.03011,-3.19638c1.0629,0 3.244,3.19638 3.244,3.19638v29.83286z" fill="url(#color-6)" stroke="#000000" stroke-width="2"/><path d="M279.13621,314.78486v-29.83286c0,0 2.00285,-3.19638 3.03011,-3.19638c1.0629,0 3.244,3.19638 3.244,3.19638v29.83286z" fill="url(#color-7)" stroke="#000000" stroke-width="2"/><path d="M251.53487,323.9768v-49.5h82.5v49.5z" fill="none" stroke="none" stroke-width="0"/><path d="M3.91351,171.57174v-34.72397h7.13951v34.72397z" fill="#ffffff" stroke="#000000" stroke-width="2"/><path d="M-7.60706,134.41384c0,-10.60503 0,-35.28201 0,-40.72765c0,-2.08304 1.72154,-4.05654 3.40749,-4.05654c3.5823,0 17.25992,0 24.17697,0c2.45359,0 4.05654,2.24412 4.05654,4.54332c0,5.69204 0,30.28532 0,40.56538c0,2.80416 -2.10179,4.54332 -4.05654,4.54332c-3.79628,0 -17.23792,0 -23.85245,0c-2.26697,0 -3.73202,-1.8727 -3.73202,-4.86785z" fill="url(#color-8)" stroke="#000000" stroke-width="2"/><path d="M5.30432,155.53102v-14.78898h4.35788v14.78898z" fill="url(#color-9)" stroke="none" stroke-width="2"/><path d="M-11.34106,163.25466v-92h60v92z" fill="none" stroke="none" stroke-width="NaN"/><path d="M-49.87263,267.90429v-30.59627h95.59322v30.59627z" data-paper-data="{&quot;index&quot;:null}" fill="url(#color-10)" stroke="none" stroke-width="0"/><path d="M96.12737,267.57096v-30.59627h62.92655v30.59627z" data-paper-data="{&quot;index&quot;:null}" fill="url(#color-11)" stroke="none" stroke-width="0"/><path d="M233.37254,268.24051v-30.59627h62.92656v30.59627z" data-paper-data="{&quot;index&quot;:null}" fill="url(#color-12)" stroke="none" stroke-width="0"/><path d="M376.2806,268.24384v-30.59627h103.56613v30.59627z" data-paper-data="{&quot;index&quot;:null}" fill="url(#color-13)" stroke="none" stroke-width="0"/></g></g></svg>