<svg version="1.1" xmlns="http://www.w3.org/2000/svg" xmlns:xlink="http://www.w3.org/1999/xlink" width="20" height="36" viewBox="0,0,20,36"><g transform="translate(-230,-162)"><g data-paper-data="{&quot;isPaintingLayer&quot;:true}" fill-rule="nonzero" stroke-linejoin="miter" stroke-miterlimit="10" stroke-dasharray="" stroke-dashoffset="0" style="mix-blend-mode: normal"><path d="M245.1875,171c0,3.07208 -2.54638,5.5625 -5.6875,5.5625c-3.14112,0 -5.6875,-2.49042 -5.6875,-5.5625c0,-3.07208 2.54638,-5.5625 5.6875,-5.5625c3.14112,0 5.6875,2.49042 5.6875,5.5625z" fill="#ffffff" stroke="#000000" stroke-width="2" stroke-linecap="butt"/><path d="M239.26042,176.92709l-0.0625,9.4375" fill="none" stroke="#000000" stroke-width="2" stroke-linecap="round"/><path d="M239.19792,186.30209c0,0 2.22037,2.74849 2.70788,4.2221c0.41862,1.26537 -0.58288,3.6529 -0.58288,3.6529" fill="none" stroke="#000000" stroke-width="2" stroke-linecap="round"/><path d="M239.19792,186.36459l-3.125,8.25" fill="none" stroke="#000000" stroke-width="2" stroke-linecap="round"/><path d="M235.54367,185.6363l-0.31471,-3.54472l3.44603,-2.71711" fill="none" stroke="#000000" stroke-width="2" stroke-linecap="round"/><path d="M245.13815,183.25865l-3.55051,-0.24061l-2.14788,-3.82681" fill="none" stroke="#000000" stroke-width="2" stroke-linecap="round"/><path d="M230,198v-36h20v36z" fill="none" stroke="none" stroke-width="0" stroke-linecap="butt"/></g></g></svg>