<svg version="1.1" xmlns="http://www.w3.org/2000/svg" xmlns:xlink="http://www.w3.org/1999/xlink" width="29.34108" height="20.92832" viewBox="0,0,29.34108,20.92832"><g transform="translate(-236.94096,-181.1486)"><g data-paper-data="{&quot;isPaintingLayer&quot;:true}" fill-rule="nonzero" stroke-linecap="butt" stroke-linejoin="miter" stroke-miterlimit="10" stroke-dasharray="" stroke-dashoffset="0" style="mix-blend-mode: normal"><path d="M239.83053,199.84379c-0.52936,-0.46998 0.02161,-8.21631 4.60785,-12.53539c1.57467,-1.48294 4.18772,-2.57722 6.67806,-2.92081c0.92519,-0.12765 1.91037,-0.2817 2.74215,-0.32918c1.07007,-0.06108 1.93666,0.00382 2.62684,-0.0036c6.53733,-0.07027 9.32078,14.69577 8.71588,15.363c-2.15895,2.38144 -23.15337,2.39466 -25.37078,0.42597z" data-paper-data="{&quot;index&quot;:null}" fill="#ffffff" stroke="#000000" stroke-width="2"/><path d="M257.71019,192.96154c-1.38071,0 -2.5,-1.11929 -2.5,-2.5c0,-1.38071 1.11929,-2.5 2.5,-2.5c1.38071,0 2.5,1.11929 2.5,2.5c0,1.38071 -1.11929,2.5 -2.5,2.5z" data-paper-data="{&quot;index&quot;:null}" fill="#000000" stroke="none" stroke-width="0.5"/><path d="M251.94096,193.26923c-1.38071,0 -2.5,-1.11929 -2.5,-2.5c0,-1.38071 1.11929,-2.5 2.5,-2.5c1.38071,0 2.5,1.11929 2.5,2.5c0,1.38071 -1.11929,2.5 -2.5,2.5z" data-paper-data="{&quot;index&quot;:null}" fill="#000000" stroke="none" stroke-width="0.5"/><path d="M258.17173,191.40385c-0.69036,0 -1.25,-0.55964 -1.25,-1.25c0,-0.69036 0.55964,-1.25 1.25,-1.25c0.69036,0 1.25,0.55964 1.25,1.25c0,0.69036 -0.55964,1.25 -1.25,1.25z" data-paper-data="{&quot;index&quot;:null}" fill="#ffffff" stroke="none" stroke-width="0.5"/><path d="M252.4025,191.78846c-0.69036,0 -1.25,-0.55964 -1.25,-1.25c0,-0.69036 0.55964,-1.25 1.25,-1.25c0.69036,0 1.25,0.55964 1.25,1.25c0,0.69036 -0.55964,1.25 -1.25,1.25z" data-paper-data="{&quot;index&quot;:null}" fill="#ffffff" stroke="none" stroke-width="0.5"/><path d="M236.94096,202.07692v-18.53846h28.07692v18.53846z" data-paper-data="{&quot;index&quot;:null}" fill="none" stroke="none" stroke-width="NaN"/><path d="M241.97514,197.33042v-14.81818h19.27273v14.81818z" fill="none" stroke="none" stroke-width="0"/><path d="M253.33878,183.42133v-2.27273h1.09091v2.27273z" fill="none" stroke="none" stroke-width="0"/></g></g></svg>