<svg version="1.1" xmlns="http://www.w3.org/2000/svg" xmlns:xlink="http://www.w3.org/1999/xlink" width="35.75" height="131.36667" viewBox="0,0,35.75,131.36667"><g transform="translate(-227.7,-160.83333)"><g data-paper-data="{&quot;isPaintingLayer&quot;:true}" fill="none" fill-rule="nonzero" stroke-linejoin="miter" stroke-miterlimit="10" stroke-dasharray="" stroke-dashoffset="0" style="mix-blend-mode: normal"><path d="M234.83333,238.08333c0,-2.75912 0,-7.96471 0,-9.5c0,-0.83668 0.7851,-1.75 1.47917,-1.75c1.11192,0 4.52108,0 6.625,0c1.01711,0 1.72917,1.06525 1.72917,2c0,1.62535 0,6.88743 0,9.5c0,0.91112 -0.7851,1.5 -1.47917,1.5c-1.11192,0 -4.52108,0 -6.625,0c-1.01711,0 -1.72917,-0.69675 -1.72917,-1.75z" stroke="#000000" stroke-width="2" stroke-linecap="butt"/><path d="M239.875,237.5v11.33333" stroke="#000000" stroke-width="2" stroke-linecap="round"/><path d="M235.08334,257.58333c0,-2.75913 0,-7.96471 0,-9.5c0,-0.83668 0.7851,-1.75 1.47916,-1.75c1.11192,0 4.52108,0 6.625,0c1.0171,0 1.72916,1.06525 1.72916,2c0,1.62536 0,6.88744 0,9.5c0,0.91112 -0.7851,1.5 -1.47916,1.5c-1.11192,0 -4.52108,0 -6.625,0c-1.0171,0 -1.72916,-0.69675 -1.72916,-1.75z" stroke="#000000" stroke-width="2" stroke-linecap="butt"/><path d="M234.95834,218.95833c0,-2.75913 0,-7.96471 0,-9.5c0,-0.83668 0.7851,-1.75 1.47916,-1.75c1.11192,0 4.52108,0 6.625,0c1.0171,0 1.72916,1.06525 1.72916,2c0,1.62536 0,6.88744 0,9.5c0,0.91112 -0.7851,1.5 -1.47916,1.5c-1.11192,0 -4.52108,0 -6.625,0c-1.0171,0 -1.72916,-0.69675 -1.72916,-1.75z" stroke="#000000" stroke-width="2" stroke-linecap="butt"/><path d="M240,218.375v11.33334" stroke="#000000" stroke-width="2" stroke-linecap="round"/><path d="M234.83334,199.83333c0,-2.75913 0,-7.96471 0,-9.5c0,-0.83668 0.7851,-1.75 1.47916,-1.75c1.11192,0 4.52108,0 6.625,0c1.0171,0 1.72916,1.06525 1.72916,2c0,1.62536 0,6.88744 0,9.5c0,0.91112 -0.7851,1.5 -1.47916,1.5c-1.11192,0 -4.52108,0 -6.625,0c-1.0171,0 -1.72916,-0.69675 -1.72916,-1.75z" stroke="#000000" stroke-width="2" stroke-linecap="butt"/><path d="M239.875,199.25v11.33334" stroke="#000000" stroke-width="2" stroke-linecap="round"/><path d="M240,180.12499v11.33334" stroke="#000000" stroke-width="2" stroke-linecap="round"/><path d="M240.20833,255.66666v11.33334" stroke="#000000" stroke-width="2" stroke-linecap="round"/><path d="M230.25,270.83333v-110h20v110z" stroke="none" stroke-width="2" stroke-linecap="butt"/><path d="M248.1,276c0,4.41828 -3.58172,8 -8,8c-4.41828,0 -8,-3.58172 -8,-8c0,-4.41828 3.58172,-8 8,-8c4.41828,0 8,3.58172 8,8z" stroke="#000000" stroke-width="2" stroke-linecap="butt"/><path d="M227.7,292.2v-28.6h35.75v28.6z" stroke="none" stroke-width="0" stroke-linecap="butt"/></g></g></svg>