<svg version="1.1" xmlns="http://www.w3.org/2000/svg" xmlns:xlink="http://www.w3.org/1999/xlink" width="20.78629" height="36.43083" viewBox="0,0,20.78629,36.43083"><g transform="translate(-229.60686,-162.11795)"><g data-paper-data="{&quot;isPaintingLayer&quot;:true}" fill-rule="nonzero" stroke-linejoin="miter" stroke-miterlimit="10" stroke-dasharray="" stroke-dashoffset="0" style="mix-blend-mode: normal"><path d="M244.98847,171.22154c0.06751,3.07134 -2.42353,5.61711 -5.56389,5.68614c-3.14037,0.06902 -5.74086,-2.36483 -5.80837,-5.43617c-0.06751,-3.07134 2.42353,-5.61711 5.56389,-5.68614c3.14037,-0.06902 5.74086,2.36483 5.80837,5.43617z" data-paper-data="{&quot;index&quot;:null}" fill="#ffffff" stroke="#000000" stroke-width="2" stroke-linecap="butt"/><path d="M239.33798,186.71404l-0.14491,-9.43659" data-paper-data="{&quot;index&quot;:null}" fill="none" stroke="#000000" stroke-width="2" stroke-linecap="round"/><path d="M242.26861,194.90161l-2.93201,-8.25006" data-paper-data="{&quot;index&quot;:null}" fill="none" stroke="#000000" stroke-width="2" stroke-linecap="round"/><path d="M236.39504,195.03072l2.94295,-8.31668" data-paper-data="{&quot;index&quot;:null}" fill="none" stroke="#000000" stroke-width="2" stroke-linecap="round"/><path d="M235.6686,186.06623l-0.39253,-3.53695l3.38549,-2.79219" data-paper-data="{&quot;index&quot;:null}" fill="none" stroke="#000000" stroke-width="2" stroke-linecap="round"/><path d="M245.20851,183.47831l-3.55494,-0.16253l-2.23145,-3.77869" data-paper-data="{&quot;index&quot;:null}" fill="none" stroke="#000000" stroke-width="2" stroke-linecap="round"/><path d="M230.39798,198.54878l-0.79112,-35.99131l19.99517,-0.43952l0.79112,35.99131z" data-paper-data="{&quot;index&quot;:null}" fill="none" stroke="none" stroke-width="0" stroke-linecap="butt"/><path d="M234.65453,170.05861l-0.06292,-1.27442l1.87168,-2.414l2.91637,-0.29963l2.98529,0.70213l1.6869,1.8557l0.68514,1.92462l-1.27042,-0.11885l-9.27449,-0.022z" fill="#000000" stroke="#000000" stroke-width="1" stroke-linecap="round"/><path d="M234.58752,172.90212l9.63603,-0.12088l-0.42247,1.46419l-2.76755,2.33411l-3.91215,-0.09587l-2.40502,-1.85668z" data-paper-data="{&quot;index&quot;:null}" fill="#000000" stroke="#000000" stroke-width="1" stroke-linecap="round"/><path d="M232.3303,169.49634l1.02174,0.97779l-1.4502,0.21374" data-paper-data="{&quot;index&quot;:null}" fill="none" stroke="#000000" stroke-width="1" stroke-linecap="round"/></g></g></svg>