<svg version="1.1" xmlns="http://www.w3.org/2000/svg" xmlns:xlink="http://www.w3.org/1999/xlink" width="1060" height="707" viewBox="0,0,1060,707"><defs><linearGradient x1="441.625" y1="316.5834" x2="441.625" y2="344.5834" gradientUnits="userSpaceOnUse" id="color-1"><stop offset="0" stop-color="#a4a4a4"/><stop offset="1" stop-color="#a4a4a4" stop-opacity="0"/></linearGradient><linearGradient x1="-173.75" y1="321.33338" x2="-173.75" y2="343.33338" gradientUnits="userSpaceOnUse" id="color-2"><stop offset="0" stop-color="#999999"/><stop offset="1" stop-color="#999999" stop-opacity="0"/></linearGradient><linearGradient x1="249.625" y1="205.5834" x2="249.625" y2="233.5834" gradientUnits="userSpaceOnUse" id="color-3"><stop offset="0" stop-color="#a4a4a4"/><stop offset="1" stop-color="#a4a4a4" stop-opacity="0"/></linearGradient><linearGradient x1="489.125" y1="166.58338" x2="489.125" y2="138.58338" gradientUnits="userSpaceOnUse" id="color-4"><stop offset="0" stop-color="#a4a4a4"/><stop offset="1" stop-color="#a4a4a4" stop-opacity="0"/></linearGradient></defs><g transform="translate(478.25,112.41661)"><g data-paper-data="{&quot;isPaintingLayer&quot;:true}" fill-rule="nonzero" stroke-linejoin="miter" stroke-miterlimit="10" stroke-dasharray="" stroke-dashoffset="0" style="mix-blend-mode: normal"><path d="M316.5,592.33339v-294h263v294z" data-paper-data="{&quot;index&quot;:null}" fill="#ffffff" stroke="#000000" stroke-width="4.5" stroke-linecap="butt"/><path d="M330.5,561.33339v-247h223v247z" data-paper-data="{&quot;index&quot;:null}" fill="#cccccc" stroke="#000000" stroke-width="4.5" stroke-linecap="butt"/><path d="M333,344.5834v-28h217.25v28z" data-paper-data="{&quot;index&quot;:null}" fill="url(#color-1)" stroke="none" stroke-width="0" stroke-linecap="butt"/><path d="M-478.25,432.33338v-120h582v120z" data-paper-data="{&quot;index&quot;:null}" fill="#cccccc" stroke="none" stroke-width="0" stroke-linecap="butt"/><path d="M-451.16666,321.00005v-16h555v16z" data-paper-data="{&quot;index&quot;:null}" fill="#ffffff" stroke="none" stroke-width="0" stroke-linecap="butt"/><g data-paper-data="{&quot;index&quot;:null}" stroke-linecap="butt"><path d="M-1.5,370.49232l1.38008,-25.53149l28.29165,-11.73069l14.49084,27.60161c0,0 -10.61175,9.13032 -17.74618,12.91718c-1.3318,0.7069 -26.41638,-3.25662 -26.41638,-3.25662z" fill="#bbbbbb" stroke="none" stroke-width="0"/><path d="M-0.84085,361.57328l1.31828,-24.38829l27.02486,-11.20542l13.842,26.36572c0,0 -10.13661,8.72151 -16.95158,12.33881c-1.27217,0.67525 -25.23355,-3.11082 -25.23355,-3.11082z" fill="#ffffff" stroke="#000000" stroke-width="4.5"/></g><path d="M-451.25,343.33338v-22h555v22z" data-paper-data="{&quot;index&quot;:null}" fill="url(#color-2)" stroke="none" stroke-width="0" stroke-linecap="butt"/><path d="M121.5,305.7496v109.66667h-18v-109.66667z" data-paper-data="{&quot;index&quot;:null}" fill="#ffffff" stroke="none" stroke-width="0" stroke-linecap="butt"/><path d="M122.16667,305.41625v120.66667h-283.33333v-120.66666z" data-paper-data="{&quot;index&quot;:null}" fill="none" stroke="#000000" stroke-width="4.5" stroke-linecap="butt"/><path d="M-185.5,322.83338h289v110" data-paper-data="{&quot;index&quot;:null}" fill="none" stroke="#000000" stroke-width="4.5" stroke-linecap="round"/><g data-paper-data="{&quot;index&quot;:null}" stroke-linecap="butt"><path d="M55.5,377.17319l1.09883,-20.32836l22.52603,-9.34006l11.53771,21.97661c0,0 -8.44916,7.26963 -14.12964,10.28476c-1.06039,0.56284 -21.03293,-2.59295 -21.03293,-2.59295z" fill="#bbbbbb" stroke="none" stroke-width="0"/><path d="M56.02482,370.07179l1.04962,-19.41814l21.51739,-8.92184l11.0211,20.99258c0,0 -8.07084,6.94413 -13.49698,9.82426c-1.01291,0.53764 -20.09114,-2.47686 -20.09114,-2.47686z" fill="#ffffff" stroke="#000000" stroke-width="4.5"/></g><path d="M170.5,482.33339v-294h159v294z" data-paper-data="{&quot;index&quot;:null}" fill="#ffffff" stroke="#000000" stroke-width="4.5" stroke-linecap="butt"/><path d="M184.5,450.33339v-247h131v247z" data-paper-data="{&quot;index&quot;:null}" fill="#cccccc" stroke="#000000" stroke-width="4.5" stroke-linecap="butt"/><path d="M187,233.5834v-28h125.25v28z" data-paper-data="{&quot;index&quot;:null}" fill="url(#color-3)" stroke="none" stroke-width="0" stroke-linecap="butt"/><g data-paper-data="{&quot;index&quot;:null}" stroke-linecap="butt"><path d="M299.49999,265.49231c0,0 -25.08458,3.96352 -26.41638,3.25662c-7.13443,-3.78686 -17.74618,-12.91718 -17.74618,-12.91718l14.49084,-27.60161l28.29165,11.73069l1.38008,25.53149z" fill="#bbbbbb" stroke="none" stroke-width="0"/><path d="M298.84084,256.57329c0,0 -23.96138,3.78607 -25.23355,3.11082c-6.81497,-3.6173 -16.95158,-12.33881 -16.95158,-12.33881l13.842,-26.36572l27.02486,11.20542l1.31828,24.38829z" fill="#ffffff" stroke="#000000" stroke-width="4.5"/></g><g data-paper-data="{&quot;index&quot;:null}" stroke-linecap="butt"><path d="M248.49999,275.74904c0,0 -15.64912,2.47266 -16.47997,2.03166c-4.45084,-2.36245 -11.07103,-8.05844 -11.07103,-8.05844l9.04017,-17.21939l17.64987,7.31824l0.86097,15.92793z" fill="#bbbbbb" stroke="none" stroke-width="0"/><path d="M232.34673,272.12557c-4.25155,-2.25667 -10.57532,-7.69762 -10.57532,-7.69762l8.63539,-16.44837l16.85958,6.99055l0.82241,15.21474c0,0 -14.94841,2.36196 -15.74206,1.9407z" fill="#ffffff" stroke="#000000" stroke-width="4.5"/></g><path d="M567.5,-110.16661v294h-159v-294z" data-paper-data="{&quot;index&quot;:null}" fill="#ffffff" stroke="#000000" stroke-width="4.5" stroke-linecap="butt"/><path d="M553.5,-78.16661v247h-131v-247z" data-paper-data="{&quot;index&quot;:null}" fill="#cccccc" stroke="#000000" stroke-width="4.5" stroke-linecap="butt"/><path d="M553.25,138.58338v28h-128.25v-28z" data-paper-data="{&quot;index&quot;:null}" fill="url(#color-4)" stroke="none" stroke-width="0" stroke-linecap="butt"/><g data-paper-data="{&quot;index&quot;:null}" stroke-linecap="butt"><path d="M490.49999,130.49231c0,0 -25.08458,3.96352 -26.41638,3.25662c-7.13443,-3.78686 -17.74618,-12.91718 -17.74618,-12.91718l14.49084,-27.60161l28.29165,11.73069l1.38008,25.53149z" fill="#bbbbbb" stroke="none" stroke-width="0"/><path d="M489.84084,121.57329c0,0 -23.96138,3.78607 -25.23355,3.11082c-6.81497,-3.6173 -16.95158,-12.33881 -16.95158,-12.33881l13.842,-26.36572l27.02486,11.20542l1.31828,24.38829z" fill="#ffffff" stroke="#000000" stroke-width="4.5"/></g><g data-paper-data="{&quot;index&quot;:null}" stroke-linecap="butt"><path d="M486.49999,79.74904c0,0 -15.64912,2.47266 -16.47997,2.03166c-4.45084,-2.36245 -11.07103,-8.05844 -11.07103,-8.05844l9.04017,-17.21939l17.64987,7.31824l0.86097,15.92793z" fill="#bbbbbb" stroke="none" stroke-width="0"/><path d="M470.34673,76.12557c-4.25155,-2.25667 -10.57532,-7.69762 -10.57532,-7.69762l8.63539,-16.44837l16.85958,6.99055l0.82241,15.21474c0,0 -14.94841,2.36196 -15.74206,1.9407z" fill="#ffffff" stroke="#000000" stroke-width="4.5"/></g><g data-paper-data="{&quot;index&quot;:null}" stroke-linecap="butt"><path d="M452.96281,83.16795c0,0 -12.50397,1.97571 -13.16784,1.62334c-3.55631,-1.88765 -8.84598,-6.43886 -8.84598,-6.43886l7.22328,-13.75865l14.10261,5.84742l0.68793,12.72674z" fill="#bbbbbb" stroke="none" stroke-width="0"/><path d="M440.05602,80.27272c-3.39708,-1.80313 -8.4499,-6.15056 -8.4499,-6.15056l6.89985,-13.14259l13.47115,5.58559l0.65712,12.15689c0,0 -11.94409,1.88725 -12.57823,1.55066z" fill="#ffffff" stroke="#000000" stroke-width="4.5"/></g><g data-paper-data="{&quot;index&quot;:null}" stroke-linecap="butt"><path d="M382.49999,363.46059c0,0 -22.81256,3.60453 -24.02373,2.96165c-6.48823,-3.44387 -16.13883,-11.74721 -16.13883,-11.74721l13.17834,-25.10161l25.72915,10.66819l1.25508,23.21899z" fill="#bbbbbb" stroke="none" stroke-width="0"/><path d="M381.90054,355.34941c0,0 -21.79109,3.44315 -22.94804,2.82906c-6.19771,-3.28967 -15.4162,-11.22123 -15.4162,-11.22123l12.58827,-23.97766l24.5771,10.1905l1.19888,22.17933z" fill="#ffffff" stroke="#000000" stroke-width="4.5"/></g><g data-paper-data="{&quot;index&quot;:null}" stroke-linecap="butt"><path d="M421.49999,354.37338c0,0 -16.5645,2.6173 -17.44395,2.1505c-4.71119,-2.50064 -11.71862,-8.52981 -11.71862,-8.52981l9.56897,-18.22661l18.68227,7.74631l0.91133,16.85961z" fill="#bbbbbb" stroke="none" stroke-width="0"/><path d="M421.06473,348.48374c0,0 -15.8228,2.50012 -16.66287,2.05422c-4.50024,-2.38867 -11.19391,-8.14788 -11.19391,-8.14788l9.1405,-17.41049l17.84576,7.39945l0.87052,16.10471z" fill="#ffffff" stroke="#000000" stroke-width="4.5"/></g></g></g></svg>