<svg version="1.1" xmlns="http://www.w3.org/2000/svg" xmlns:xlink="http://www.w3.org/1999/xlink" width="689.33051" height="223.85243" viewBox="0,0,689.33051,223.85243"><defs><linearGradient x1="304.88699" y1="320.75144" x2="304.88699" y2="326.95343" gradientUnits="userSpaceOnUse" id="color-1"><stop offset="0" stop-color="#ffffff"/><stop offset="1" stop-color="#b4b4b4"/></linearGradient><linearGradient x1="303.87735" y1="307.48205" x2="303.87735" y2="313.68404" gradientUnits="userSpaceOnUse" id="color-2"><stop offset="0" stop-color="#ffffff"/><stop offset="1" stop-color="#b4b4b4"/></linearGradient><linearGradient x1="321.56028" y1="299.44108" x2="321.56028" y2="332.47032" gradientUnits="userSpaceOnUse" id="color-3"><stop offset="0" stop-color="#ffffff"/><stop offset="1" stop-color="#b4b4b4"/></linearGradient><linearGradient x1="269.67623" y1="320.58917" x2="269.67623" y2="326.79117" gradientUnits="userSpaceOnUse" id="color-4"><stop offset="0" stop-color="#ffffff"/><stop offset="1" stop-color="#b4b4b4"/></linearGradient><linearGradient x1="268.6666" y1="307.31978" x2="268.6666" y2="313.52178" gradientUnits="userSpaceOnUse" id="color-5"><stop offset="0" stop-color="#ffffff"/><stop offset="1" stop-color="#b4b4b4"/></linearGradient><linearGradient x1="254.74817" y1="298.9543" x2="254.74817" y2="331.98354" gradientUnits="userSpaceOnUse" id="color-6"><stop offset="0" stop-color="#ffffff"/><stop offset="1" stop-color="#b4b4b4"/></linearGradient><linearGradient x1="287.84952" y1="299.27882" x2="287.84952" y2="332.30806" gradientUnits="userSpaceOnUse" id="color-7"><stop offset="0" stop-color="#ffffff"/><stop offset="1" stop-color="#b4b4b4"/></linearGradient><linearGradient x1="-56.93636" y1="117.64757" x2="-56.93636" y2="148.24384" gradientUnits="userSpaceOnUse" id="color-8"><stop offset="0" stop-color="#8f8f8f"/><stop offset="1" stop-color="#8f8f8f" stop-opacity="0"/></linearGradient></defs><g transform="translate(349.7194,-117.64757)"><g data-paper-data="{&quot;isPaintingLayer&quot;:true}" fill-rule="nonzero" stroke-linecap="butt" stroke-linejoin="miter" stroke-miterlimit="10" stroke-dasharray="" stroke-dashoffset="0" style="mix-blend-mode: normal"><path d="M289.05747,326.95343v-6.20199h31.65903v6.20199z" fill="url(#color-1)" stroke="#000000" stroke-width="2"/><path d="M288.04784,313.68404v-6.20199h31.65903v6.20199z" fill="url(#color-2)" stroke="#000000" stroke-width="2"/><path d="M318.42322,332.47032v-29.83286c0,0 2.00285,-3.19638 3.03011,-3.19638c1.0629,0 3.244,3.19638 3.244,3.19638v29.83286z" fill="url(#color-3)" stroke="#000000" stroke-width="2"/><path d="M253.84671,326.79117v-6.20199h31.65903v6.20199z" fill="url(#color-4)" stroke="#000000" stroke-width="2"/><path d="M252.83709,313.52178v-6.20199h31.65903v6.20199z" fill="url(#color-5)" stroke="#000000" stroke-width="2"/><path d="M251.61111,331.98354v-29.83286c0,0 2.00285,-3.19638 3.03011,-3.19638c1.0629,0 3.244,3.19638 3.244,3.19638v29.83286z" fill="url(#color-6)" stroke="#000000" stroke-width="2"/><path d="M284.71246,332.30806v-29.83286c0,0 2.00285,-3.19638 3.03011,-3.19638c1.0629,0 3.244,3.19638 3.244,3.19638v29.83286z" fill="url(#color-7)" stroke="#000000" stroke-width="2"/><path d="M257.11111,341.5v-49.5h82.5v49.5z" fill="none" stroke="none" stroke-width="0"/><path d="M-349.7194,148.24384v-30.59627h585.56613v30.59627z" data-paper-data="{&quot;index&quot;:null}" fill="url(#color-8)" stroke="none" stroke-width="0"/></g></g></svg>