<svg version="1.1" xmlns="http://www.w3.org/2000/svg" xmlns:xlink="http://www.w3.org/1999/xlink" width="843.75" height="476.75" viewBox="0,0,843.75,476.75"><defs><linearGradient x1="-26.75" y1="71.50001" x2="-26.75" y2="49.50001" gradientUnits="userSpaceOnUse" id="color-1"><stop offset="0" stop-color="#999999"/><stop offset="1" stop-color="#999999" stop-opacity="0"/></linearGradient><linearGradient x1="225" y1="323.50001" x2="225" y2="345.50001" gradientUnits="userSpaceOnUse" id="color-2"><stop offset="0" stop-color="#999999"/><stop offset="1" stop-color="#999999" stop-opacity="0"/></linearGradient></defs><g transform="translate(331.25,42.24999)"><g data-paper-data="{&quot;isPaintingLayer&quot;:true}" fill-rule="nonzero" stroke-linejoin="miter" stroke-miterlimit="10" stroke-dasharray="" stroke-dashoffset="0" style="mix-blend-mode: normal"><path d="M-69.5,434.50001v-120h582v120z" fill="#cccccc" stroke="none" stroke-width="0" stroke-linecap="butt"/><path d="M-53.5,321.50001v-16h555v16z" fill="#ffffff" stroke="#000000" stroke-width="4.5" stroke-linecap="butt"/><path d="M202.66667,304.83334l10.66667,-28.66667h56l10.66667,28.66667z" fill="#ffffff" stroke="#000000" stroke-width="4.5" stroke-linecap="butt"/><path d="M250.75,-39.49999v120h-582v-120z" data-paper-data="{&quot;index&quot;:null}" fill="#cccccc" stroke="none" stroke-width="0" stroke-linecap="butt"/><path d="M250.83334,71.83334v16h-555v-16z" data-paper-data="{&quot;index&quot;:null}" fill="#ffffff" stroke="none" stroke-width="0" stroke-linecap="butt"/><g stroke-linecap="butt"><path d="M145.5,63.51275l1.38008,-25.53149l28.29165,-11.73069l14.49084,27.60161c0,0 -10.61175,9.13032 -17.74618,12.91718c-1.3318,0.7069 -26.41638,-3.25662 -26.41638,-3.25662z" fill="#bbbbbb" stroke="none" stroke-width="0"/><path d="M146.15915,54.59372l1.31828,-24.38829l27.02486,-11.20542l13.842,26.36572c0,0 -10.13661,8.72151 -16.95158,12.33881c-1.27217,0.67525 -25.23355,-3.11082 -25.23355,-3.11082z" fill="#ffffff" stroke="#000000" stroke-width="4.5"/></g><path d="M250.75,49.50001v22h-555v-22z" data-paper-data="{&quot;index&quot;:null}" fill="url(#color-1)" stroke="none" stroke-width="0" stroke-linecap="butt"/><g stroke-linecap="butt"><path d="M202.5,48.44139l1.09883,-20.32836l22.52603,-9.34006l11.53771,21.97661c0,0 -8.44916,7.26963 -14.12964,10.28476c-1.06039,0.56284 -21.03293,-2.59295 -21.03293,-2.59295z" fill="#bbbbbb" stroke="none" stroke-width="0"/><path d="M203.02482,41.33999l1.04962,-19.41814l21.51739,-8.92184l11.0211,20.99258c0,0 -8.07084,6.94413 -13.49698,9.82426c-1.01291,0.53764 -20.09114,-2.47686 -20.09114,-2.47686z" fill="#ffffff" stroke="#000000" stroke-width="4.5"/></g><g stroke-linecap="butt"><path d="M52.5,39.90911l0.80329,-14.86087l16.46745,-6.82797l8.43455,16.06581c0,0 -6.17669,5.3144 -10.32936,7.51859c-0.77519,0.41146 -15.37593,-1.89556 -15.37593,-1.89556z" fill="#bbbbbb" stroke="none" stroke-width="0"/><path d="M52.88367,34.7177l0.76732,-14.19546l15.7301,-6.52223l8.05688,15.34644c0,0 -5.90012,5.07644 -9.86685,7.18194c-0.74048,0.39303 -14.68745,-1.81068 -14.68745,-1.81068z" fill="#ffffff" stroke="#000000" stroke-width="4.5"/></g><g stroke-linecap="butt"><path d="M44.5,369.94876l0.95954,-17.7515l19.67058,-8.15609l10.07518,19.19081c0,0 -7.37813,6.34812 -12.33855,8.98104c-0.92598,0.49149 -18.36675,-2.26426 -18.36675,-2.26426z" fill="#bbbbbb" stroke="none" stroke-width="0"/><path d="M44.9583,363.74755l0.91657,-16.95666l18.7898,-7.79089l9.62404,18.33151c0,0 -7.04776,6.06387 -11.78607,8.57891c-0.88452,0.46949 -17.54434,-2.16288 -17.54434,-2.16288z" fill="#ffffff" stroke="#000000" stroke-width="4.5"/></g><g stroke-linecap="butt"><path d="M85.5,362.94876l0.95954,-17.7515l19.67058,-8.15609l10.07518,19.19081c0,0 -7.37813,6.34812 -12.33855,8.98104c-0.92597,0.49149 -18.36674,-2.26426 -18.36674,-2.26426z" fill="#bbbbbb" stroke="none" stroke-width="0"/><path d="M85.9583,356.74755l0.91657,-16.95666l18.7898,-7.79089l9.62404,18.33151c0,0 -7.04776,6.06387 -11.78607,8.57891c-0.88451,0.46949 -17.54434,-2.16288 -17.54434,-2.16288z" fill="#ffffff" stroke="#000000" stroke-width="4.5"/></g><g stroke-linecap="butt"><path d="M134.5,371.04391l1.33454,-24.689l27.35807,-11.34359l14.01268,26.69081c0,0 -10.26159,8.82904 -17.1606,12.49095c-1.28786,0.68358 -25.54469,-3.14916 -25.54469,-3.14916z" fill="#bbbbbb" stroke="none" stroke-width="0"/><path d="M135.1374,362.41919l1.27478,-23.58353l26.13308,-10.83565l13.38524,25.4957c0,0 -9.80211,8.43371 -16.39221,11.93165c-1.2302,0.65296 -24.40089,-3.00816 -24.40089,-3.00816z" fill="#ffffff" stroke="#000000" stroke-width="4.5"/></g><g stroke-linecap="butt"><path d="M342.5,362.67228l1.07499,-19.88721l22.03718,-9.13738l11.28735,21.4997c0,0 -8.26581,7.11187 -13.82303,10.06157c-1.03738,0.55063 -20.57649,-2.53668 -20.57649,-2.53668z" fill="#bbbbbb" stroke="none" stroke-width="0"/><path d="M343.01343,355.72498l1.02685,-18.99676l21.05044,-8.72822l10.78194,20.53702c0,0 -7.89569,6.79343 -13.20407,9.61106c-0.99093,0.52597 -19.65515,-2.42311 -19.65515,-2.42311z" fill="#ffffff" stroke="#000000" stroke-width="4.5"/></g><path d="M-52.5,345.50001v-22h555v22z" fill="url(#color-2)" stroke="none" stroke-width="0" stroke-linecap="butt"/><path d="M250.5,87.08378v-109.66667h18v109.66667z" fill="#ffffff" stroke="none" stroke-width="0" stroke-linecap="butt"/><path d="M-14.16666,87.41711v-120.66666h283.33333v120.66667z" fill="none" stroke="#000000" stroke-width="4.5" stroke-linecap="butt"/><path d="M250.5,-39.99999v110h-289" fill="none" stroke="#000000" stroke-width="4.5" stroke-linecap="round"/></g></g></svg>