<svg version="1.1" xmlns="http://www.w3.org/2000/svg" xmlns:xlink="http://www.w3.org/1999/xlink" width="585.56613" height="254.85243" viewBox="0,0,585.56613,254.85243"><defs><linearGradient x1="154.56364" y1="86.64757" x2="154.56364" y2="117.24384" gradientUnits="userSpaceOnUse" id="color-1"><stop offset="0" stop-color="#8f8f8f"/><stop offset="1" stop-color="#8f8f8f" stop-opacity="0"/></linearGradient><linearGradient x1="206.88699" y1="320.75144" x2="206.88699" y2="326.95343" gradientUnits="userSpaceOnUse" id="color-2"><stop offset="0" stop-color="#ffffff"/><stop offset="1" stop-color="#b4b4b4"/></linearGradient><linearGradient x1="205.87735" y1="307.48205" x2="205.87735" y2="313.68404" gradientUnits="userSpaceOnUse" id="color-3"><stop offset="0" stop-color="#ffffff"/><stop offset="1" stop-color="#b4b4b4"/></linearGradient><linearGradient x1="223.56028" y1="299.44108" x2="223.56028" y2="332.47032" gradientUnits="userSpaceOnUse" id="color-4"><stop offset="0" stop-color="#ffffff"/><stop offset="1" stop-color="#b4b4b4"/></linearGradient><linearGradient x1="171.67623" y1="320.58917" x2="171.67623" y2="326.79117" gradientUnits="userSpaceOnUse" id="color-5"><stop offset="0" stop-color="#ffffff"/><stop offset="1" stop-color="#b4b4b4"/></linearGradient><linearGradient x1="170.6666" y1="307.31978" x2="170.6666" y2="313.52178" gradientUnits="userSpaceOnUse" id="color-6"><stop offset="0" stop-color="#ffffff"/><stop offset="1" stop-color="#b4b4b4"/></linearGradient><linearGradient x1="156.74817" y1="298.9543" x2="156.74817" y2="331.98354" gradientUnits="userSpaceOnUse" id="color-7"><stop offset="0" stop-color="#ffffff"/><stop offset="1" stop-color="#b4b4b4"/></linearGradient><linearGradient x1="189.84952" y1="299.27882" x2="189.84952" y2="332.30806" gradientUnits="userSpaceOnUse" id="color-8"><stop offset="0" stop-color="#ffffff"/><stop offset="1" stop-color="#b4b4b4"/></linearGradient><linearGradient x1="259.0545" y1="251.875" x2="259.0545" y2="301.52703" gradientUnits="userSpaceOnUse" id="color-9"><stop offset="0" stop-color="#ffffff"/><stop offset="1" stop-color="#b4b4b4"/></linearGradient><linearGradient x1="258.32432" y1="301.98738" x2="258.32432" y2="316.77636" gradientUnits="userSpaceOnUse" id="color-10"><stop offset="0" stop-color="#c9c9c9"/><stop offset="1" stop-color="#c9c9c9" stop-opacity="0"/></linearGradient></defs><g transform="translate(138.2194,-86.64757)"><g data-paper-data="{&quot;isPaintingLayer&quot;:true}" fill-rule="nonzero" stroke-linecap="butt" stroke-linejoin="miter" stroke-miterlimit="10" stroke-dasharray="" stroke-dashoffset="0" style="mix-blend-mode: normal"><path d="M-138.2194,117.24384v-30.59627h585.56613v30.59627z" data-paper-data="{&quot;index&quot;:null}" fill="url(#color-1)" stroke="none" stroke-width="0"/><path d="M191.05747,326.95343v-6.20199h31.65903v6.20199z" fill="url(#color-2)" stroke="#000000" stroke-width="2"/><path d="M190.04784,313.68404v-6.20199h31.65903v6.20199z" fill="url(#color-3)" stroke="#000000" stroke-width="2"/><path d="M220.42322,332.47032v-29.83286c0,0 2.00285,-3.19638 3.03011,-3.19638c1.0629,0 3.244,3.19638 3.244,3.19638v29.83286z" fill="url(#color-4)" stroke="#000000" stroke-width="2"/><path d="M155.84671,326.79117v-6.20199h31.65903v6.20199z" fill="url(#color-5)" stroke="#000000" stroke-width="2"/><path d="M154.83709,313.52178v-6.20199h31.65903v6.20199z" fill="url(#color-6)" stroke="#000000" stroke-width="2"/><path d="M153.61111,331.98354v-29.83286c0,0 2.00285,-3.19638 3.03011,-3.19638c1.0629,0 3.244,3.19638 3.244,3.19638v29.83286z" fill="url(#color-7)" stroke="#000000" stroke-width="2"/><path d="M186.71246,332.30806v-29.83286c0,0 2.00285,-3.19638 3.03011,-3.19638c1.0629,0 3.244,3.19638 3.244,3.19638v29.83286z" fill="url(#color-8)" stroke="#000000" stroke-width="2"/><path d="M159.11111,341.5v-49.5h82.5v49.5z" fill="none" stroke="none" stroke-width="0"/><path d="M254.75457,332.81708v-34.72397h7.13951v34.72397z" fill="#ffffff" stroke="#000000" stroke-width="2"/><path d="M243.234,296.65918c0,-10.60503 0,-35.28201 0,-40.72765c0,-2.08304 1.72154,-4.05654 3.40749,-4.05654c3.5823,0 17.25992,0 24.17697,0c2.45359,0 4.05654,2.24412 4.05654,4.54332c0,5.69204 0,30.28532 0,40.56538c0,2.80416 -2.10179,4.54332 -4.05654,4.54332c-3.79628,0 -17.23792,0 -23.85245,0c-2.26697,0 -3.73202,-1.8727 -3.73202,-4.86785z" fill="url(#color-9)" stroke="#000000" stroke-width="2"/><path d="M256.14538,316.77636v-14.78898h4.35788v14.78898z" fill="url(#color-10)" stroke="none" stroke-width="2"/></g></g></svg>