<svg version="1.1" xmlns="http://www.w3.org/2000/svg" xmlns:xlink="http://www.w3.org/1999/xlink" width="858.93334" height="482.99999" viewBox="0,0,858.93334,482.99999"><defs><linearGradient x1="8.20324" y1="297.16668" x2="8.20324" y2="319.16668" gradientUnits="userSpaceOnUse" id="color-1"><stop offset="0" stop-color="#999999"/><stop offset="1" stop-color="#999999" stop-opacity="0"/></linearGradient><linearGradient x1="124.20324" y1="256.16668" x2="124.20324" y2="278.16668" gradientUnits="userSpaceOnUse" id="color-2"><stop offset="0" stop-color="#999999"/><stop offset="1" stop-color="#999999" stop-opacity="0"/></linearGradient><linearGradient x1="237.20324" y1="223.16668" x2="237.20324" y2="245.16668" gradientUnits="userSpaceOnUse" id="color-3"><stop offset="0" stop-color="#999999"/><stop offset="1" stop-color="#999999" stop-opacity="0"/></linearGradient><linearGradient x1="-26.75" y1="71.50001" x2="-26.75" y2="49.50001" gradientUnits="userSpaceOnUse" id="color-4"><stop offset="0" stop-color="#999999"/><stop offset="1" stop-color="#999999" stop-opacity="0"/></linearGradient><linearGradient x1="459.86287" y1="104.16667" x2="459.86287" y2="126.16667" gradientUnits="userSpaceOnUse" id="color-5"><stop offset="0" stop-color="#999999"/><stop offset="1" stop-color="#999999" stop-opacity="0"/></linearGradient><linearGradient x1="432.86287" y1="233.16667" x2="432.86287" y2="255.16667" gradientUnits="userSpaceOnUse" id="color-6"><stop offset="0" stop-color="#999999"/><stop offset="1" stop-color="#999999" stop-opacity="0"/></linearGradient></defs><g transform="translate(331.25,42.24999)"><g data-paper-data="{&quot;isPaintingLayer&quot;:true}" fill-rule="nonzero" stroke-linejoin="miter" stroke-miterlimit="10" stroke-dasharray="" stroke-dashoffset="0" style="mix-blend-mode: normal"><path d="M-13.15988,438.50001v-156h42.59322v156z" fill="#ffffff" stroke="#000000" stroke-width="4.5" stroke-linecap="butt"/><path d="M-1.04133,434.16668v-139h18.563v139z" fill="#cccccc" stroke="#000000" stroke-width="4.5" stroke-linecap="butt"/><path d="M0.25213,319.16668v-22h15.90223v22z" fill="url(#color-1)" stroke="none" stroke-width="0" stroke-linecap="butt"/><path d="M102.84012,397.50001v-156h42.59322v156z" fill="#ffffff" stroke="#000000" stroke-width="4.5" stroke-linecap="butt"/><path d="M114.95867,393.16668v-139h18.563v139z" fill="#cccccc" stroke="#000000" stroke-width="4.5" stroke-linecap="butt"/><path d="M116.25213,278.16668v-22h15.90223v22z" fill="url(#color-2)" stroke="none" stroke-width="0" stroke-linecap="butt"/><path d="M215.84012,364.50001v-156h42.59322v156z" fill="#ffffff" stroke="#000000" stroke-width="4.5" stroke-linecap="butt"/><path d="M227.95867,360.16668v-139h18.563v139z" fill="#cccccc" stroke="#000000" stroke-width="4.5" stroke-linecap="butt"/><path d="M229.25213,245.16668v-22h15.90223v22z" fill="url(#color-3)" stroke="none" stroke-width="0" stroke-linecap="butt"/><path d="M250.75,-39.49999v120h-582v-120z" data-paper-data="{&quot;index&quot;:null}" fill="#cccccc" stroke="none" stroke-width="0" stroke-linecap="butt"/><path d="M250.83334,71.83334v16h-555v-16z" data-paper-data="{&quot;index&quot;:null}" fill="#ffffff" stroke="none" stroke-width="0" stroke-linecap="butt"/><g stroke-linecap="butt"><path d="M145.5,63.51275l1.38008,-25.53149l28.29165,-11.73069l14.49084,27.60161c0,0 -10.61175,9.13032 -17.74618,12.91718c-1.3318,0.7069 -26.41638,-3.25662 -26.41638,-3.25662z" fill="#bbbbbb" stroke="none" stroke-width="0"/><path d="M146.15915,54.59372l1.31828,-24.38829l27.02486,-11.20542l13.842,26.36572c0,0 -10.13661,8.72151 -16.95158,12.33881c-1.27217,0.67525 -25.23355,-3.11082 -25.23355,-3.11082z" fill="#ffffff" stroke="#000000" stroke-width="4.5"/></g><path d="M250.75,49.50001v22h-555v-22z" data-paper-data="{&quot;index&quot;:null}" fill="url(#color-4)" stroke="none" stroke-width="0" stroke-linecap="butt"/><g stroke-linecap="butt"><path d="M202.5,48.44139l1.09883,-20.32836l22.52603,-9.34006l11.53771,21.97661c0,0 -8.44916,7.26963 -14.12964,10.28476c-1.06039,0.56284 -21.03293,-2.59295 -21.03293,-2.59295z" fill="#bbbbbb" stroke="none" stroke-width="0"/><path d="M203.02482,41.33999l1.04962,-19.41814l21.51739,-8.92184l11.0211,20.99258c0,0 -8.07084,6.94413 -13.49698,9.82426c-1.01291,0.53764 -20.09114,-2.47686 -20.09114,-2.47686z" fill="#ffffff" stroke="#000000" stroke-width="4.5"/></g><g stroke-linecap="butt"><path d="M52.5,39.9091l0.80329,-14.86087l16.46745,-6.82797l8.43455,16.06581c0,0 -6.17669,5.3144 -10.32936,7.51859c-0.77519,0.41146 -15.37593,-1.89556 -15.37593,-1.89556z" fill="#bbbbbb" stroke="none" stroke-width="0"/><path d="M52.88367,34.7177l0.76732,-14.19546l15.7301,-6.52223l8.05688,15.34644c0,0 -5.90012,5.07644 -9.86685,7.18194c-0.74048,0.39303 -14.68745,-1.81068 -14.68745,-1.81068z" fill="#ffffff" stroke="#000000" stroke-width="4.5"/></g><path d="M250.5,87.08378v-109.66667h18v109.66667z" fill="#ffffff" stroke="none" stroke-width="0" stroke-linecap="butt"/><path d="M-14.16666,87.41711v-120.66666h283.33333v120.66667z" fill="none" stroke="#000000" stroke-width="4.5" stroke-linecap="butt"/><path d="M250.5,-39.99999v110h-289" fill="none" stroke="#000000" stroke-width="4.5" stroke-linecap="round"/><path d="M395.84012,150.5v-63h129.59322v63z" fill="#ffffff" stroke="#000000" stroke-width="4.5" stroke-linecap="butt"/><path d="M410.33333,136.16667v-34h99.19092v34z" fill="#cccccc" stroke="#000000" stroke-width="4.5" stroke-linecap="butt"/><path d="M412.64241,126.16667v-22h94.44092v22z" fill="url(#color-5)" stroke="none" stroke-width="0" stroke-linecap="butt"/><g data-paper-data="{&quot;index&quot;:null}" stroke-linecap="butt"><path d="M419.5,130.00174l0.65177,-12.05784l13.36139,-5.54008l6.84363,13.03549c0,0 -5.01164,4.312 -8.38104,6.10044c-0.62897,0.33385 -12.47575,-1.53801 -12.47575,-1.53801z" fill="#bbbbbb" stroke="none" stroke-width="0"/><path d="M419.8113,125.78952l0.62259,-11.51793l12.76311,-5.29202l6.5372,12.45182c0,0 -4.78725,4.11893 -8.00577,5.82729c-0.60081,0.3189 -11.91712,-1.46916 -11.91712,-1.46916z" fill="#ffffff" stroke="#000000" stroke-width="4.5"/></g><g data-paper-data="{&quot;index&quot;:null}" stroke-linecap="butt"><path d="M451.5,127.96209l0.49552,-9.16721l10.15826,-4.21196l5.20301,9.91049c0,0 -3.8102,3.27829 -6.37185,4.63798c-0.47819,0.25382 -9.48493,-1.1693 -9.48493,-1.1693z" fill="#bbbbbb" stroke="none" stroke-width="0"/><path d="M451.73667,124.75966l0.47334,-8.75674l9.70341,-4.02336l4.97004,9.46674c0,0 -3.6396,3.1315 -6.08655,4.43031c-0.45678,0.24245 -9.06023,-1.11695 -9.06023,-1.11695z" fill="#ffffff" stroke="#000000" stroke-width="4.5"/></g><path d="M368.84012,405.5v-189h129.59322v189z" fill="#ffffff" stroke="#000000" stroke-width="4.5" stroke-linecap="butt"/><path d="M383.33333,415.16667v-184h99.19092v184z" fill="#cccccc" stroke="#000000" stroke-width="4.5" stroke-linecap="butt"/><path d="M385.64241,255.16667v-22h94.44092v22z" fill="url(#color-6)" stroke="none" stroke-width="0" stroke-linecap="butt"/><g data-paper-data="{&quot;index&quot;:null}" stroke-linecap="butt"><path d="M398.5,304.12068l1.12052,-20.72972l22.97077,-9.52445l11.7655,22.41049c0,0 -8.61596,7.41315 -14.4086,10.48782c-1.08132,0.57395 -21.44819,-2.64413 -21.44819,-2.64413z" fill="#bbbbbb" stroke="none" stroke-width="0"/><path d="M399.03518,296.87907l1.07035,-19.80151l21.94221,-9.09799l11.23869,21.40705c0,0 -8.23019,7.08122 -13.76344,10.01822c-1.03291,0.54825 -20.4878,-2.52577 -20.4878,-2.52577z" fill="#ffffff" stroke="#000000" stroke-width="4.5"/></g><g data-paper-data="{&quot;index&quot;:null}" stroke-linecap="butt"><path d="M436.5,277.96209l0.49552,-9.16721l10.15826,-4.21196l5.20301,9.91049c0,0 -3.8102,3.27829 -6.37185,4.63798c-0.47819,0.25382 -9.48493,-1.1693 -9.48493,-1.1693z" fill="#bbbbbb" stroke="none" stroke-width="0"/><path d="M436.73667,274.75966l0.47334,-8.75674l9.70341,-4.02336l4.97004,9.46674c0,0 -3.6396,3.1315 -6.08655,4.43031c-0.45678,0.24245 -9.06023,-1.11695 -9.06023,-1.11695z" fill="#ffffff" stroke="#000000" stroke-width="4.5"/></g><g data-paper-data="{&quot;index&quot;:null}" stroke-linecap="butt"><path d="M428.5,343.16826l1.30801,-24.19847l26.81452,-11.11821l13.73426,26.16048c0,0 -10.05769,8.65362 -16.81962,12.24277c-1.26227,0.67 -25.03714,-3.08657 -25.03714,-3.08657z" fill="#bbbbbb" stroke="none" stroke-width="0"/><path d="M429.12473,334.71488l1.24946,-23.11496l25.61386,-10.62037l13.1193,24.98913c0,0 -9.60737,8.26615 -16.06652,11.69458c-1.20575,0.63999 -23.91607,-2.94839 -23.91607,-2.94839z" fill="#ffffff" stroke="#000000" stroke-width="4.5"/></g></g></g></svg>