<svg version="1.1" xmlns="http://www.w3.org/2000/svg" xmlns:xlink="http://www.w3.org/1999/xlink" width="664.43334" height="499.33339" viewBox="0,0,664.43334,499.33339"><defs><linearGradient x1="128.375" y1="138.5834" x2="128.375" y2="166.5834" gradientUnits="userSpaceOnUse" id="color-1"><stop offset="0" stop-color="#a4a4a4"/><stop offset="1" stop-color="#a4a4a4" stop-opacity="0"/></linearGradient><linearGradient x1="61.125" y1="296.5834" x2="61.125" y2="324.5834" gradientUnits="userSpaceOnUse" id="color-2"><stop offset="0" stop-color="#a4a4a4"/><stop offset="1" stop-color="#a4a4a4" stop-opacity="0"/></linearGradient><linearGradient x1="334.86287" y1="0.16668" x2="334.86287" y2="22.16668" gradientUnits="userSpaceOnUse" id="color-3"><stop offset="0" stop-color="#999999"/><stop offset="1" stop-color="#999999" stop-opacity="0"/></linearGradient><linearGradient x1="357.625" y1="232.5834" x2="357.625" y2="260.5834" gradientUnits="userSpaceOnUse" id="color-4"><stop offset="0" stop-color="#a4a4a4"/><stop offset="1" stop-color="#a4a4a4" stop-opacity="0"/></linearGradient><linearGradient x1="425.20833" y1="332.5834" x2="425.20833" y2="360.5834" gradientUnits="userSpaceOnUse" id="color-5"><stop offset="0" stop-color="#a4a4a4"/><stop offset="1" stop-color="#a4a4a4" stop-opacity="0"/></linearGradient><linearGradient x1="529.86287" y1="112.16668" x2="529.86287" y2="134.16668" gradientUnits="userSpaceOnUse" id="color-6"><stop offset="0" stop-color="#999999"/><stop offset="1" stop-color="#999999" stop-opacity="0"/></linearGradient></defs><g transform="translate(59.75,18.74999)"><g data-paper-data="{&quot;isPaintingLayer&quot;:true}" fill-rule="nonzero" stroke-linecap="butt" stroke-linejoin="miter" stroke-miterlimit="10" stroke-dasharray="" stroke-dashoffset="0" style="mix-blend-mode: normal"><path d="M58.5,348.33338v-230h140v230z" fill="#ffffff" stroke="#000000" stroke-width="4.5"/><path d="M75.5,334.33338v-198h105v198z" fill="#cccccc" stroke="#000000" stroke-width="4.5"/><path d="M77.75,166.5834v-28h101.25v28z" fill="url(#color-1)" stroke="none" stroke-width="0"/><g data-paper-data="{&quot;index&quot;:null}"><path d="M93.5,201.49233l1.38008,-25.53149l28.29165,-11.73069l14.49084,27.60161c0,0 -10.61175,9.13032 -17.74618,12.91718c-1.3318,0.7069 -26.41638,-3.25662 -26.41638,-3.25662z" fill="#bbbbbb" stroke="none" stroke-width="0"/><path d="M94.15915,192.57329l1.31828,-24.38829l27.02486,-11.20542l13.842,26.36572c0,0 -10.13661,8.72151 -16.95158,12.33881c-1.27217,0.67525 -25.23355,-3.11082 -25.23355,-3.11082z" fill="#ffffff" stroke="#000000" stroke-width="4.5"/></g><g data-paper-data="{&quot;index&quot;:null}"><path d="M144.5,211.74904l0.86097,-15.92793l17.64987,-7.31824l9.04017,17.21939c0,0 -6.62019,5.69599 -11.07103,8.05844c-0.83085,0.441 -16.47997,-2.03166 -16.47997,-2.03166z" fill="#bbbbbb" stroke="none" stroke-width="0"/><path d="M144.91121,206.18486l0.82241,-15.21474l16.85958,-6.99055l8.63539,16.44837c0,0 -6.32377,5.44095 -10.57532,7.69762c-0.79365,0.42126 -15.74206,-1.9407 -15.74206,-1.9407z" fill="#ffffff" stroke="#000000" stroke-width="4.5"/></g><g data-paper-data="{&quot;index&quot;:null}"><path d="M96.5,254.86798l1.32972,-24.59981l27.25925,-11.30262l13.96204,26.59439c0,0 -10.22451,8.79714 -17.09859,12.44581c-1.2832,0.68111 -25.45241,-3.13779 -25.45241,-3.13779z" fill="#bbbbbb" stroke="none" stroke-width="0"/><path d="M97.1351,246.27441l1.27017,-23.49832l26.03868,-10.79652l13.33689,25.4036c0,0 -9.76671,8.40325 -16.333,11.88855c-1.22575,0.65061 -24.31274,-2.9973 -24.31274,-2.9973z" fill="#ffffff" stroke="#000000" stroke-width="4.5"/></g><path d="M-55.5,442.3334v-166h254v166z" data-paper-data="{&quot;index&quot;:null}" fill="#ffffff" stroke="#000000" stroke-width="4.5"/><path d="M-57.5,436.3334v-142h239v142z" data-paper-data="{&quot;index&quot;:null}" fill="#cccccc" stroke="#000000" stroke-width="4.5"/><path d="M-57,324.5834v-28h236.25v28z" data-paper-data="{&quot;index&quot;:null}" fill="url(#color-2)" stroke="none" stroke-width="0"/><g data-paper-data="{&quot;index&quot;:null}"><path d="M163.49999,359.49231c0,0 -25.08458,3.96352 -26.41638,3.25662c-7.13443,-3.78686 -17.74618,-12.91718 -17.74618,-12.91718l14.49084,-27.60161l28.29165,11.73069l1.38008,25.53149z" fill="#bbbbbb" stroke="none" stroke-width="0"/><path d="M162.84084,350.5733c0,0 -23.96138,3.78607 -25.23355,3.11082c-6.81497,-3.6173 -16.95158,-12.33881 -16.95158,-12.33881l13.842,-26.36572l27.02486,11.20542l1.31828,24.38829z" fill="#ffffff" stroke="#000000" stroke-width="4.5"/></g><g data-paper-data="{&quot;index&quot;:null}"><path d="M112.49999,369.74905c0,0 -15.64912,2.47266 -16.47997,2.03166c-4.45084,-2.36245 -11.07103,-8.05844 -11.07103,-8.05844l9.04017,-17.21939l17.64987,7.31824l0.86097,15.92793z" fill="#bbbbbb" stroke="none" stroke-width="0"/><path d="M96.34673,366.12558c-4.25155,-2.25667 -10.57532,-7.69762 -10.57532,-7.69762l8.63539,-16.44837l16.85958,6.99055l0.82241,15.21474c0,0 -14.94841,2.36196 -15.74206,1.9407z" fill="#ffffff" stroke="#000000" stroke-width="4.5"/></g><path d="M247.84012,35.50001v-52h176.59322v52z" fill="#ffffff" stroke="#000000" stroke-width="4.5"/><path d="M262.33333,21.16668v-23h145.19092v23z" fill="#cccccc" stroke="#000000" stroke-width="4.5"/><path d="M264.64241,22.16668v-22h140.44092v22z" fill="url(#color-3)" stroke="none" stroke-width="0"/><path d="M287.5,442.33338v-230h140v230z" data-paper-data="{&quot;index&quot;:null}" fill="#ffffff" stroke="#000000" stroke-width="4.5"/><path d="M305.5,428.33338v-198h105v198z" data-paper-data="{&quot;index&quot;:null}" fill="#cccccc" stroke="#000000" stroke-width="4.5"/><path d="M307,260.5834v-28h101.25v28z" data-paper-data="{&quot;index&quot;:null}" fill="url(#color-4)" stroke="none" stroke-width="0"/><g data-paper-data="{&quot;index&quot;:null}"><path d="M348.33743,295.49233l1.38008,-25.53149l28.29165,-11.73069l14.49084,27.60161c0,0 -10.61175,9.13032 -17.74618,12.91718c-1.3318,0.7069 -26.41638,-3.25662 -26.41638,-3.25662z" fill="#bbbbbb" stroke="none" stroke-width="0"/><path d="M348.99658,286.57329l1.31828,-24.38829l27.02486,-11.20542l13.842,26.36572c0,0 -10.13661,8.72151 -16.95158,12.33881c-1.27217,0.67525 -25.23355,-3.11082 -25.23355,-3.11082z" fill="#ffffff" stroke="#000000" stroke-width="4.5"/></g><g data-paper-data="{&quot;index&quot;:null}"><path d="M313.94899,305.74904l0.86097,-15.92793l17.64987,-7.31824l9.04017,17.21939c0,0 -6.62019,5.69599 -11.07103,8.05844c-0.83085,0.441 -16.47997,-2.03166 -16.47997,-2.03166z" fill="#bbbbbb" stroke="none" stroke-width="0"/><path d="M314.3602,300.18486l0.82241,-15.21474l16.85958,-6.99055l8.63539,16.44837c0,0 -6.32377,5.44095 -10.57532,7.69762c-0.79365,0.42126 -15.74206,-1.9407 -15.74206,-1.9407z" fill="#ffffff" stroke="#000000" stroke-width="4.5"/></g><g><path d="M287.83333,478.3334v-166h254v166z" data-paper-data="{&quot;index&quot;:null}" fill="#ffffff" stroke="#000000" stroke-width="4.5"/><path d="M304.83333,472.3334v-142h239v142z" data-paper-data="{&quot;index&quot;:null}" fill="#cccccc" stroke="#000000" stroke-width="4.5"/><path d="M307.08333,360.5834v-28h236.25v28z" data-paper-data="{&quot;index&quot;:null}" fill="url(#color-5)" stroke="none" stroke-width="0"/><g data-paper-data="{&quot;index&quot;:null}"><path d="M322.83333,395.49232l1.38008,-25.53149l28.29165,-11.73069l14.49084,27.60161c0,0 -10.61175,9.13032 -17.74618,12.91718c-1.3318,0.7069 -26.41638,-3.25662 -26.41638,-3.25662z" fill="#bbbbbb" stroke="none" stroke-width="0"/><path d="M323.49248,386.5733l1.31828,-24.38829l27.02486,-11.20542l13.842,26.36572c0,0 -10.13661,8.72151 -16.95158,12.33881c-1.27217,0.67525 -25.23355,-3.11082 -25.23355,-3.11082z" fill="#ffffff" stroke="#000000" stroke-width="4.5"/></g><g data-paper-data="{&quot;index&quot;:null}"><path d="M373.83333,405.74905l0.86097,-15.92793l17.64987,-7.31824l9.04017,17.21939c0,0 -6.62019,5.69599 -11.07103,8.05844c-0.83085,0.441 -16.47997,-2.03166 -16.47997,-2.03166z" fill="#bbbbbb" stroke="none" stroke-width="0"/><path d="M374.24454,400.18488l0.82241,-15.21474l16.85958,-6.99055l8.63539,16.44837c0,0 -6.32377,5.44095 -10.57532,7.69762c-0.79365,0.42126 -15.74206,-1.9407 -15.74206,-1.9407z" fill="#ffffff" stroke="#000000" stroke-width="4.5"/></g></g><path d="M439.84012,147.50001v-52h162.59322v52z" fill="#ffffff" stroke="#000000" stroke-width="4.5"/><path d="M454.33333,133.16668v-23h145.19092v23z" fill="#cccccc" stroke="#000000" stroke-width="4.5"/><path d="M456.64241,134.16668v-22h146.44092v22z" fill="url(#color-6)" stroke="none" stroke-width="0"/></g></g></svg>