<svg version="1.1" xmlns="http://www.w3.org/2000/svg" xmlns:xlink="http://www.w3.org/1999/xlink" width="1072.66667" height="530.75" viewBox="0,0,1072.66667,530.75"><defs><linearGradient x1="225" y1="323.5" x2="225" y2="345.5" gradientUnits="userSpaceOnUse" id="color-1"><stop offset="0" stop-color="#999999"/><stop offset="1" stop-color="#999999" stop-opacity="0"/></linearGradient><linearGradient x1="376.73787" y1="164.41667" x2="376.73787" y2="186.41667" gradientUnits="userSpaceOnUse" id="color-2"><stop offset="0" stop-color="#999999"/><stop offset="1" stop-color="#999999" stop-opacity="0"/></linearGradient><linearGradient x1="698.66667" y1="17.50001" x2="698.66667" y2="-4.49999" gradientUnits="userSpaceOnUse" id="color-3"><stop offset="0" stop-color="#999999"/><stop offset="1" stop-color="#999999" stop-opacity="0"/></linearGradient></defs><g transform="translate(69.5,96.25)"><g data-paper-data="{&quot;isPaintingLayer&quot;:true}" fill-rule="nonzero" stroke-linejoin="miter" stroke-miterlimit="10" stroke-dasharray="" stroke-dashoffset="0" style="mix-blend-mode: normal"><path d="M-69.5,434.5v-120h582v120z" fill="#cccccc" stroke="none" stroke-width="0" stroke-linecap="butt"/><path d="M-52.5,345.5v-22h555v22z" fill="url(#color-1)" stroke="none" stroke-width="0" stroke-linecap="butt"/><g data-paper-data="{&quot;index&quot;:null}" stroke-linecap="butt"><path d="M37.5,372.49232l1.38008,-25.53149l28.29165,-11.73069l14.49084,27.60161c0,0 -10.61175,9.13032 -17.74618,12.91718c-1.3318,0.7069 -26.41638,-3.25662 -26.41638,-3.25662z" fill="#bbbbbb" stroke="none" stroke-width="0"/><path d="M38.15915,363.57328l1.31828,-24.38829l27.02486,-11.20542l13.842,26.36572c0,0 -10.13661,8.72151 -16.95158,12.33881c-1.27217,0.67525 -25.23355,-3.11082 -25.23355,-3.11082z" fill="#ffffff" stroke="#000000" stroke-width="4.5"/></g><g data-paper-data="{&quot;index&quot;:null}" stroke-linecap="butt"><path d="M98.5,356.37338l0.91133,-16.85962l18.68227,-7.74631l9.56897,18.22661c0,0 -7.00742,6.02917 -11.71861,8.52981c-0.87945,0.4668 -17.44395,-2.15049 -17.44395,-2.15049z" fill="#bbbbbb" stroke="none" stroke-width="0"/><path d="M98.93527,350.48373l0.87053,-16.1047l17.84575,-7.39946l9.14051,17.4105c0,0 -6.69367,5.75921 -11.1939,8.14788c-0.84007,0.4459 -16.66287,-2.05421 -16.66287,-2.05421z" fill="#ffffff" stroke="#000000" stroke-width="4.5"/></g><g data-paper-data="{&quot;index&quot;:null}" stroke-linecap="butt"><path d="M365.5,359.39202l0.97391,-18.01747l19.9653,-8.27829l10.22613,19.47833c0,0 -7.48867,6.44323 -12.5234,9.1156c-0.93984,0.49886 -18.64193,-2.29818 -18.64193,-2.29818z" fill="#bbbbbb" stroke="none" stroke-width="0"/><path d="M365.96516,353.09789l0.93031,-17.21071l19.07133,-7.90762l9.76824,18.60618c0,0 -7.15337,6.15473 -11.96265,8.70745c-0.89776,0.47652 -17.80721,-2.19529 -17.80721,-2.19529z" fill="#ffffff" stroke="#000000" stroke-width="4.5"/></g><g data-paper-data="{&quot;index&quot;:null}" stroke-linecap="butt"><path d="M307.5,386.55061l1.59891,-29.57997l32.7778,-13.59079l16.78862,31.97834c0,0 -12.29443,10.57809 -20.56015,14.96542c-1.54298,0.819 -30.60518,-3.77301 -30.60518,-3.77301z" fill="#bbbbbb" stroke="none" stroke-width="0"/><path d="M308.26366,376.21729l1.52733,-28.25549l31.31013,-12.98224l16.0369,30.54648c0,0 -11.74396,10.10446 -19.63955,14.29535c-1.47389,0.78232 -29.23478,-3.6041 -29.23478,-3.6041z" fill="#ffffff" stroke="#000000" stroke-width="4.5"/></g><g data-paper-data="{&quot;index&quot;:null}" stroke-linecap="butt"><path d="M265.5,356.88075l0.77204,-14.28275l15.82682,-6.56234l8.10642,15.4408c0,0 -5.93639,5.10765 -9.92751,7.22609c-0.74503,0.39545 -14.77777,-1.82181 -14.77777,-1.82181z" fill="#bbbbbb" stroke="none" stroke-width="0"/><path d="M265.86874,351.89128l0.73747,-13.64322l15.11816,-6.2685l7.74345,14.74943c0,0 -5.67059,4.87896 -9.483,6.90254c-0.71167,0.37775 -14.11607,-1.74025 -14.11607,-1.74025z" fill="#ffffff" stroke="#000000" stroke-width="4.5"/></g><path d="M188.29048,305.5v-159h359.14286v159z" fill="#ffffff" stroke="#000000" stroke-width="4.5" stroke-linecap="butt"/><path d="M204.33333,318.16667v-156h341.19092v156z" fill="#cccccc" stroke="#000000" stroke-width="4.5" stroke-linecap="butt"/><path d="M206.64241,186.41667v-22h340.19092v22z" fill="url(#color-2)" stroke="none" stroke-width="0" stroke-linecap="butt"/><g data-paper-data="{&quot;index&quot;:null}" stroke-linecap="butt"><path d="M218.5,231.48439l1.34883,-24.95337l27.65103,-11.46506l14.16271,26.97661c0,0 -10.37146,8.92358 -17.34434,12.62469c-1.30165,0.6909 -25.81822,-3.18288 -25.81822,-3.18288z" fill="#bbbbbb" stroke="none" stroke-width="0"/><path d="M219.14422,222.76731l1.28844,-23.83605l26.41291,-10.95169l13.52857,25.76871c0,0 -9.90708,8.52402 -16.56773,12.05941c-1.24336,0.65996 -24.66217,-3.04038 -24.66217,-3.04038z" fill="#ffffff" stroke="#000000" stroke-width="4.5"/></g><g data-paper-data="{&quot;index&quot;:null}" stroke-linecap="butt"><path d="M230.5,270.39202l0.97392,-18.01746l19.96529,-8.27829l10.22612,19.47834c0,0 -7.48866,6.44323 -12.5234,9.1156c-0.93985,0.49886 -18.64193,-2.29818 -18.64193,-2.29818z" fill="#bbbbbb" stroke="none" stroke-width="0"/><path d="M230.96516,264.09789l0.93031,-17.21071l19.07132,-7.90762l9.76824,18.60617c0,0 -7.15336,6.15473 -11.96265,8.70744c-0.89776,0.47652 -17.80721,-2.19529 -17.80721,-2.19529z" fill="#ffffff" stroke="#000000" stroke-width="4.5"/></g><path d="M-53.5,321.5v-16h555v16z" fill="#ffffff" stroke="#000000" stroke-width="4.5" stroke-linecap="butt"/><g data-paper-data="{&quot;index&quot;:null}" stroke-linecap="butt"><path d="M377.5,248.41303l1.06758,-19.75024l21.8854,-9.07443l11.20959,21.35161c0,0 -8.20887,7.06289 -13.7278,9.99227c-1.03024,0.54684 -20.43476,-2.5192 -20.43476,-2.5192z" fill="#bbbbbb" stroke="none" stroke-width="0"/><path d="M378.00989,241.51358l1.01978,-18.8659l20.90545,-8.66811l10.70767,20.39557c0,0 -7.84132,6.74664 -13.11313,9.54485c-0.9841,0.52235 -19.51976,-2.40642 -19.51976,-2.40642z" fill="#ffffff" stroke="#000000" stroke-width="4.5"/></g><g data-paper-data="{&quot;index&quot;:null}" stroke-linecap="butt"><path d="M407.5,279.76212l0.92338,-17.08259l18.92935,-7.84876l9.69551,18.46766c0,0 -7.1001,6.10891 -11.87359,8.64261c-0.89109,0.47298 -17.67465,-2.17894 -17.67465,-2.17894z" fill="#bbbbbb" stroke="none" stroke-width="0"/><path d="M407.94102,273.79458l0.88204,-16.31769l18.08176,-7.49731l9.26139,17.64076c0,0 -6.78219,5.83537 -11.34194,8.25563c-0.85118,0.4518 -16.88324,-2.08138 -16.88324,-2.08138z" fill="#ffffff" stroke="#000000" stroke-width="4.5"/></g><g data-paper-data="{&quot;index&quot;:null}" stroke-linecap="butt"><path d="M425.5,235.76212l0.92338,-17.08258l18.92935,-7.84875l9.69552,18.46766c0,0 -7.1001,6.10891 -11.8736,8.64262c-0.89108,0.47298 -17.67464,-2.17894 -17.67464,-2.17894z" fill="#bbbbbb" stroke="none" stroke-width="0"/><path d="M425.94102,229.79458l0.88205,-16.31769l18.08175,-7.49731l9.2614,17.64075c0,0 -6.78219,5.83537 -11.34194,8.25563c-0.85118,0.4518 -16.88324,-2.08138 -16.88324,-2.08138z" fill="#ffffff" stroke="#000000" stroke-width="4.5"/></g><path d="M1003.16667,-93.49999v120h-582v-120z" data-paper-data="{&quot;index&quot;:null}" fill="#cccccc" stroke="none" stroke-width="0" stroke-linecap="butt"/><path d="M976.08333,17.83334v16h-555v-16z" data-paper-data="{&quot;index&quot;:null}" fill="#ffffff" stroke="none" stroke-width="0" stroke-linecap="butt"/><g data-paper-data="{&quot;index&quot;:null}" stroke-linecap="butt"><path d="M526.41666,9.51273c0,0 -25.08458,3.96352 -26.41638,3.25662c-7.13443,-3.78686 -17.74618,-12.91718 -17.74618,-12.91718l14.49084,-27.60161l28.29165,11.73069l1.38008,25.53149z" fill="#bbbbbb" stroke="none" stroke-width="0"/><path d="M525.75751,0.59372c0,0 -23.96138,3.78607 -25.23355,3.11082c-6.81497,-3.6173 -16.95158,-12.33881 -16.95158,-12.33881l13.842,-26.36572l27.02486,11.20542l1.31828,24.38829z" fill="#ffffff" stroke="#000000" stroke-width="4.5"/></g><path d="M976.16667,-4.49999v22h-555v-22z" data-paper-data="{&quot;index&quot;:null}" fill="url(#color-3)" stroke="none" stroke-width="0" stroke-linecap="butt"/><g data-paper-data="{&quot;index&quot;:null}" stroke-linecap="butt"><path d="M448.38374,-2.96566c-5.68048,-3.01513 -14.12964,-10.28476 -14.12964,-10.28476l11.53771,-21.97661l22.52603,9.34006l1.09883,20.32836c0,0 -19.97254,3.15579 -21.03293,2.59295z" fill="#bbbbbb" stroke="none" stroke-width="0"/><path d="M468.89186,-12.66001c0,0 -19.07823,3.0145 -20.09114,2.47686c-5.42614,-2.88013 -13.49698,-9.82426 -13.49698,-9.82426l11.0211,-20.99258l21.51739,8.92184l1.04962,19.41814z" fill="#ffffff" stroke="#000000" stroke-width="4.5"/></g><g data-paper-data="{&quot;index&quot;:null}" stroke-linecap="butt"><path d="M604.04074,-12.19533c-4.15267,-2.20419 -10.32936,-7.51859 -10.32936,-7.51859l8.43455,-16.06581l16.46745,6.82797l0.80329,14.86087c0,0 -14.60074,2.30702 -15.37593,1.89556z" fill="#bbbbbb" stroke="none" stroke-width="0"/><path d="M619.033,-19.28229c0,0 -13.94697,2.20371 -14.68745,1.81068c-3.96673,-2.1055 -9.86685,-7.18194 -9.86685,-7.18194l8.05688,-15.34644l15.7301,6.52223l0.76732,14.19546z" fill="#ffffff" stroke="#000000" stroke-width="4.5"/></g><path d="M403.41667,33.08378v-109.66667h18v109.66667z" data-paper-data="{&quot;index&quot;:null}" fill="#ffffff" stroke="none" stroke-width="0" stroke-linecap="butt"/><path d="M402.75,33.41711v-120.66667h283.33333v120.66666z" data-paper-data="{&quot;index&quot;:null}" fill="none" stroke="#000000" stroke-width="4.5" stroke-linecap="butt"/><path d="M710.41667,16.00001h-289v-110" data-paper-data="{&quot;index&quot;:null}" fill="none" stroke="#000000" stroke-width="4.5" stroke-linecap="round"/></g></g></svg>