<svg version="1.1" xmlns="http://www.w3.org/2000/svg" xmlns:xlink="http://www.w3.org/1999/xlink" width="618.18334" height="687.5" viewBox="0,0,618.18334,687.5"><defs><linearGradient x1="502.86287" y1="188.16667" x2="502.86287" y2="210.16667" gradientUnits="userSpaceOnUse" id="color-1"><stop offset="0" stop-color="#999999"/><stop offset="1" stop-color="#999999" stop-opacity="0"/></linearGradient><linearGradient x1="417.86287" y1="336.16667" x2="417.86287" y2="358.16667" gradientUnits="userSpaceOnUse" id="color-2"><stop offset="0" stop-color="#999999"/><stop offset="1" stop-color="#999999" stop-opacity="0"/></linearGradient><linearGradient x1="257.86287" y1="123.83333" x2="257.86287" y2="101.83333" gradientUnits="userSpaceOnUse" id="color-3"><stop offset="0" stop-color="#999999"/><stop offset="1" stop-color="#999999" stop-opacity="0"/></linearGradient><linearGradient x1="44.86287" y1="159.16667" x2="44.86287" y2="181.16667" gradientUnits="userSpaceOnUse" id="color-4"><stop offset="0" stop-color="#999999"/><stop offset="1" stop-color="#999999" stop-opacity="0"/></linearGradient><linearGradient x1="247" y1="45.5" x2="247" y2="23.5" gradientUnits="userSpaceOnUse" id="color-5"><stop offset="0" stop-color="#999999"/><stop offset="1" stop-color="#999999" stop-opacity="0"/></linearGradient><linearGradient x1="256.86287" y1="247.16667" x2="256.86287" y2="269.16667" gradientUnits="userSpaceOnUse" id="color-6"><stop offset="0" stop-color="#999999"/><stop offset="1" stop-color="#999999" stop-opacity="0"/></linearGradient></defs><g transform="translate(47.5,113.75)"><g data-paper-data="{&quot;isPaintingLayer&quot;:true}" fill-rule="nonzero" stroke-linecap="butt" stroke-linejoin="miter" stroke-miterlimit="10" stroke-dasharray="" stroke-dashoffset="0" style="mix-blend-mode: normal"><path d="M438.84012,423.5v-252h129.59322v252z" fill="#ffffff" stroke="#000000" stroke-width="4.5"/><path d="M453.33333,392.16667v-206h99.19092v206z" fill="#cccccc" stroke="#000000" stroke-width="4.5"/><path d="M455.64241,210.16667v-22h94.44092v22z" fill="url(#color-1)" stroke="none" stroke-width="0"/><g data-paper-data="{&quot;index&quot;:null}"><path d="M468.5,222.37338l0.91133,-16.85962l18.68228,-7.74631l9.56896,18.22661c0,0 -7.00743,6.02917 -11.71861,8.52981c-0.87945,0.4668 -17.44395,-2.15049 -17.44395,-2.15049z" fill="#bbbbbb" stroke="none" stroke-width="0"/><path d="M468.93527,216.48373l0.87053,-16.1047l17.84575,-7.39946l9.14051,17.4105c0,0 -6.69367,5.75921 -11.1939,8.14788c-0.84007,0.4459 -16.66287,-2.05421 -16.66287,-2.05421z" fill="#ffffff" stroke="#000000" stroke-width="4.5"/></g><g data-paper-data="{&quot;index&quot;:null}"><path d="M500.5,229.00174l0.65177,-12.05784l13.36139,-5.54008l6.84363,13.03549c0,0 -5.01164,4.312 -8.38104,6.10044c-0.62897,0.33385 -12.47575,-1.53801 -12.47575,-1.53801z" fill="#bbbbbb" stroke="none" stroke-width="0"/><path d="M500.8113,224.78952l0.62259,-11.51793l12.76311,-5.29202l6.5372,12.45182c0,0 -4.78725,4.11893 -8.00577,5.82729c-0.60081,0.3189 -11.91712,-1.46916 -11.91712,-1.46916z" fill="#ffffff" stroke="#000000" stroke-width="4.5"/></g><g data-paper-data="{&quot;index&quot;:null}"><path d="M525.5,209.96209l0.49552,-9.16721l10.15826,-4.21196l5.20301,9.91049c0,0 -3.8102,3.27829 -6.37185,4.63798c-0.47819,0.25382 -9.48493,-1.1693 -9.48493,-1.1693z" fill="#bbbbbb" stroke="none" stroke-width="0"/><path d="M525.73667,206.75966l0.47334,-8.75674l9.70341,-4.02336l4.97004,9.46674c0,0 -3.6396,3.1315 -6.08655,4.43031c-0.45678,0.24245 -9.06023,-1.11695 -9.06023,-1.11695z" fill="#ffffff" stroke="#000000" stroke-width="4.5"/></g><path d="M308.84012,571.5v-252h203.59322v252z" fill="#ffffff" stroke="#000000" stroke-width="4.5"/><path d="M323.33333,540.16667v-206h186.19092v206z" fill="#cccccc" stroke="#000000" stroke-width="4.5"/><path d="M325.64241,358.16667v-22h184.44092v22z" fill="url(#color-2)" stroke="none" stroke-width="0"/><g data-paper-data="{&quot;index&quot;:null}"><path d="M338.5,370.37338l0.91133,-16.85962l18.68228,-7.74631l9.56896,18.22661c0,0 -7.00743,6.02917 -11.71861,8.52981c-0.87945,0.4668 -17.44395,-2.15049 -17.44395,-2.15049z" fill="#bbbbbb" stroke="none" stroke-width="0"/><path d="M338.93527,364.48373l0.87053,-16.1047l17.84575,-7.39946l9.14051,17.4105c0,0 -6.69367,5.75921 -11.1939,8.14788c-0.84007,0.4459 -16.66287,-2.05421 -16.66287,-2.05421z" fill="#ffffff" stroke="#000000" stroke-width="4.5"/></g><g data-paper-data="{&quot;index&quot;:null}"><path d="M370.5,377.00174l0.65177,-12.05784l13.36139,-5.54008l6.84363,13.03549c0,0 -5.01164,4.312 -8.38104,6.10044c-0.62897,0.33385 -12.47575,-1.53801 -12.47575,-1.53801z" fill="#bbbbbb" stroke="none" stroke-width="0"/><path d="M370.8113,372.78952l0.62259,-11.51793l12.76311,-5.29202l6.5372,12.45182c0,0 -4.78725,4.11893 -8.00577,5.82729c-0.60081,0.3189 -11.91712,-1.46916 -11.91712,-1.46916z" fill="#ffffff" stroke="#000000" stroke-width="4.5"/></g><g data-paper-data="{&quot;index&quot;:null}"><path d="M395.5,357.96209l0.49552,-9.16721l10.15826,-4.21196l5.20301,9.91049c0,0 -3.8102,3.27829 -6.37185,4.63798c-0.47819,0.25382 -9.48493,-1.1693 -9.48493,-1.1693z" fill="#bbbbbb" stroke="none" stroke-width="0"/><path d="M395.73667,354.75966l0.47334,-8.75674l9.70341,-4.02336l4.97004,9.46674c0,0 -3.6396,3.1315 -6.08655,4.43031c-0.45678,0.24245 -9.06023,-1.11695 -9.06023,-1.11695z" fill="#ffffff" stroke="#000000" stroke-width="4.5"/></g><path d="M323.43334,-111.5v252h-129.59322v-252z" data-paper-data="{&quot;index&quot;:null}" fill="#ffffff" stroke="#000000" stroke-width="4.5"/><path d="M307.52425,-80.16667v206h-99.19092v-206z" data-paper-data="{&quot;index&quot;:null}" fill="#cccccc" stroke="#000000" stroke-width="4.5"/><path d="M305.08333,101.83333v22h-94.44092v-22z" data-paper-data="{&quot;index&quot;:null}" fill="url(#color-3)" stroke="none" stroke-width="0"/><g data-paper-data="{&quot;index&quot;:null}"><path d="M223.50001,89.62662c0,0 16.5645,-2.61729 17.44395,-2.15049c4.71118,2.50064 11.71861,8.52981 11.71861,8.52981l-9.56896,18.22661l-18.68228,-7.74631l-0.91133,-16.85962z" fill="#bbbbbb" stroke="none" stroke-width="0"/><path d="M223.93529,95.51626c0,0 15.8228,-2.50011 16.66287,-2.05421c4.50023,2.38867 11.1939,8.14788 11.1939,8.14788l-9.14051,17.4105l-17.84575,-7.39946l-0.87053,-16.1047z" fill="#ffffff" stroke="#000000" stroke-width="4.5"/></g><g data-paper-data="{&quot;index&quot;:null}"><path d="M267.97575,81.46025c3.3694,1.78844 8.38104,6.10044 8.38104,6.10044l-6.84363,13.03549l-13.36139,-5.54008l-0.65177,-12.05784c0,0 11.84678,-1.87186 12.47575,-1.53801z" fill="#bbbbbb" stroke="none" stroke-width="0"/><path d="M255.81131,87.21048c0,0 11.31631,-1.78806 11.91712,-1.46916c3.21852,1.70836 8.00577,5.82729 8.00577,5.82729l-6.5372,12.45182l-12.76311,-5.29202l-0.62259,-11.51793z" fill="#ffffff" stroke="#000000" stroke-width="4.5"/></g><g data-paper-data="{&quot;index&quot;:null}"><path d="M280.50001,102.03791c0,0 9.00674,-1.42312 9.48493,-1.1693c2.56165,1.35969 6.37185,4.63798 6.37185,4.63798l-5.20301,9.91049l-10.15826,-4.21196l-0.49552,-9.16721z" fill="#bbbbbb" stroke="none" stroke-width="0"/><path d="M280.73668,105.24034c0,0 8.60345,-1.3594 9.06023,-1.11695c2.44695,1.29881 6.08655,4.43031 6.08655,4.43031l-4.97004,9.46674l-9.70341,-4.02336l-0.47334,-8.75674z" fill="#ffffff" stroke="#000000" stroke-width="4.5"/></g><path d="M-19.15988,394.5v-252h129.59322v252z" fill="#ffffff" stroke="#000000" stroke-width="4.5"/><path d="M-4.66667,363.16667v-206h99.19092v206z" fill="#cccccc" stroke="#000000" stroke-width="4.5"/><path d="M-2.35759,181.16667v-22h94.44092v22z" fill="url(#color-4)" stroke="none" stroke-width="0"/><g data-paper-data="{&quot;index&quot;:null}"><path d="M10.5,193.37338l0.91133,-16.85962l18.68228,-7.74631l9.56896,18.22661c0,0 -7.00743,6.02917 -11.71861,8.52981c-0.87945,0.4668 -17.44395,-2.15049 -17.44395,-2.15049z" fill="#bbbbbb" stroke="none" stroke-width="0"/><path d="M10.93527,187.48373l0.87053,-16.1047l17.84575,-7.39946l9.14051,17.4105c0,0 -6.69367,5.75921 -11.1939,8.14788c-0.84007,0.4459 -16.66287,-2.05421 -16.66287,-2.05421z" fill="#ffffff" stroke="#000000" stroke-width="4.5"/></g><g data-paper-data="{&quot;index&quot;:null}"><path d="M42.5,200.00174l0.65177,-12.05784l13.36139,-5.54008l6.84363,13.03549c0,0 -5.01164,4.312 -8.38104,6.10044c-0.62897,0.33385 -12.47575,-1.53801 -12.47575,-1.53801z" fill="#bbbbbb" stroke="none" stroke-width="0"/><path d="M42.8113,195.78952l0.62259,-11.51793l12.76311,-5.29202l6.5372,12.45182c0,0 -4.78725,4.11893 -8.00577,5.82729c-0.60081,0.3189 -11.91712,-1.46916 -11.91712,-1.46916z" fill="#ffffff" stroke="#000000" stroke-width="4.5"/></g><g data-paper-data="{&quot;index&quot;:null}"><path d="M67.5,180.96209l0.49552,-9.16721l10.15826,-4.21196l5.20301,9.91049c0,0 -3.8102,3.27829 -6.37185,4.63798c-0.47819,0.25382 -9.48493,-1.1693 -9.48493,-1.1693z" fill="#bbbbbb" stroke="none" stroke-width="0"/><path d="M67.73667,177.75966l0.47334,-8.75674l9.70341,-4.02336l4.97004,9.46674c0,0 -3.6396,3.1315 -6.08655,4.43031c-0.45678,0.24245 -9.06023,-1.11695 -9.06023,-1.11695z" fill="#ffffff" stroke="#000000" stroke-width="4.5"/></g><path d="M534.5,-64.5v120h-582v-120z" data-paper-data="{&quot;index&quot;:null}" fill="#cccccc" stroke="none" stroke-width="0"/><path d="M523.5,47.5v16h-555v-16z" data-paper-data="{&quot;index&quot;:null}" fill="#ffffff" stroke="#000000" stroke-width="4.5"/><path d="M524.5,23.5v22h-555v-22z" data-paper-data="{&quot;index&quot;:null}" fill="url(#color-5)" stroke="none" stroke-width="0"/><path d="M192.84012,482.5v-252h129.59322v252z" fill="#ffffff" stroke="#000000" stroke-width="4.5"/><path d="M207.33333,451.16667v-206h99.19092v206z" fill="#cccccc" stroke="#000000" stroke-width="4.5"/><path d="M209.64241,269.16667v-22h94.44092v22z" fill="url(#color-6)" stroke="none" stroke-width="0"/><g data-paper-data="{&quot;index&quot;:null}"><path d="M222.5,281.37338l0.91133,-16.85962l18.68228,-7.74631l9.56896,18.22661c0,0 -7.00743,6.02917 -11.71861,8.52981c-0.87945,0.4668 -17.44395,-2.15049 -17.44395,-2.15049z" fill="#bbbbbb" stroke="none" stroke-width="0"/><path d="M222.93527,275.48373l0.87053,-16.1047l17.84575,-7.39946l9.14051,17.4105c0,0 -6.69367,5.75921 -11.1939,8.14788c-0.84007,0.4459 -16.66287,-2.05421 -16.66287,-2.05421z" fill="#ffffff" stroke="#000000" stroke-width="4.5"/></g><g data-paper-data="{&quot;index&quot;:null}"><path d="M254.5,288.00174l0.65177,-12.05784l13.36139,-5.54008l6.84363,13.03549c0,0 -5.01164,4.312 -8.38104,6.10044c-0.62897,0.33385 -12.47575,-1.53801 -12.47575,-1.53801z" fill="#bbbbbb" stroke="none" stroke-width="0"/><path d="M254.8113,283.78952l0.62259,-11.51793l12.76311,-5.29202l6.5372,12.45182c0,0 -4.78725,4.11893 -8.00577,5.82729c-0.60081,0.3189 -11.91712,-1.46916 -11.91712,-1.46916z" fill="#ffffff" stroke="#000000" stroke-width="4.5"/></g><g data-paper-data="{&quot;index&quot;:null}"><path d="M279.5,268.96209l0.49552,-9.16721l10.15826,-4.21196l5.20301,9.91049c0,0 -3.8102,3.27829 -6.37185,4.63798c-0.47819,0.25382 -9.48493,-1.1693 -9.48493,-1.1693z" fill="#bbbbbb" stroke="none" stroke-width="0"/><path d="M279.73667,265.75966l0.47334,-8.75674l9.70341,-4.02336l4.97004,9.46674c0,0 -3.6396,3.1315 -6.08655,4.43031c-0.45678,0.24245 -9.06023,-1.11695 -9.06023,-1.11695z" fill="#ffffff" stroke="#000000" stroke-width="4.5"/></g></g></g></svg>