<svg version="1.1" xmlns="http://www.w3.org/2000/svg" xmlns:xlink="http://www.w3.org/1999/xlink" width="20" height="36" viewBox="0,0,20,36"><g transform="translate(-230,-162.33336)"><g data-paper-data="{&quot;isPaintingLayer&quot;:true}" fill-rule="nonzero" stroke-linejoin="miter" stroke-miterlimit="10" stroke-dasharray="" stroke-dashoffset="0" style="mix-blend-mode: normal"><path d="M245.1875,171.33336c0,3.07208 -2.54638,5.5625 -5.6875,5.5625c-3.14112,0 -5.6875,-2.49042 -5.6875,-5.5625c0,-3.07208 2.54638,-5.5625 5.6875,-5.5625c3.14112,0 5.6875,2.49042 5.6875,5.5625z" data-paper-data="{&quot;index&quot;:null}" fill="#ffffff" stroke="#000000" stroke-width="2" stroke-linecap="butt"/><path d="M239.26042,177.26045l-0.0625,9.4375" data-paper-data="{&quot;index&quot;:null}" fill="none" stroke="#000000" stroke-width="2" stroke-linecap="round"/><path d="M239.19792,186.63545c0,0 1.99434,2.9168 2.48055,4.38647c0.42106,1.27273 0.26945,3.92603 0.26945,3.92603" data-paper-data="{&quot;index&quot;:null}" fill="none" stroke="#000000" stroke-width="2" stroke-linecap="round"/><path d="M239.19792,186.69794c0,0 -1.39828,3.41174 -2.39537,4.71366c-0.91657,1.1968 -3.36599,2.80907 -3.36599,2.80907" data-paper-data="{&quot;index&quot;:null}" fill="none" stroke="#000000" stroke-width="2" stroke-linecap="round"/><path d="M233.36185,182.4242l-0.31471,-2.45381l5.62785,-0.26256" data-paper-data="{&quot;index&quot;:null}" fill="none" stroke="#000000" stroke-width="2" stroke-linecap="round"/><path d="M239.43976,179.52459l8.60748,1.34015" data-paper-data="{&quot;index&quot;:null}" fill="none" stroke="#000000" stroke-width="2" stroke-linecap="round"/><path d="M230,198.33336v-36h20v36z" data-paper-data="{&quot;index&quot;:null}" fill="none" stroke="none" stroke-width="0" stroke-linecap="butt"/><path d="M244.66122,170.51223l-9.27272,-0.18182l-1.27273,0.09091l0.72727,-1.90909l1.72727,-1.81818l3,-0.63636l2.90909,0.36364l1.81818,2.45454l-0.09091,1.27272z" data-paper-data="{&quot;index&quot;:null}" fill="#000000" stroke="#000000" stroke-width="1" stroke-linecap="round"/><path d="M234.75213,172.78497l9.63637,0.09091l-0.45454,1.45454l-2.81819,2.27273l-3.90909,-0.18182l-2.36363,-1.90909z" data-paper-data="{&quot;index&quot;:null}" fill="#000000" stroke="#000000" stroke-width="1" stroke-linecap="round"/><path d="M232.57031,169.33042l1,1l-1.45455,0.18182" data-paper-data="{&quot;index&quot;:null}" fill="none" stroke="#000000" stroke-width="1" stroke-linecap="round"/></g></g></svg>