<svg version="1.1" xmlns="http://www.w3.org/2000/svg" xmlns:xlink="http://www.w3.org/1999/xlink" width="591.75" height="545.25003" viewBox="0,0,591.75,545.25003"><defs><linearGradient x1="409.91667" y1="186.50003" x2="409.91667" y2="208.50003" gradientUnits="userSpaceOnUse" id="color-1"><stop offset="0" stop-color="#999999"/><stop offset="1" stop-color="#999999" stop-opacity="0"/></linearGradient><linearGradient x1="230.91667" y1="246.50003" x2="230.91667" y2="268.50003" gradientUnits="userSpaceOnUse" id="color-2"><stop offset="0" stop-color="#999999"/><stop offset="1" stop-color="#999999" stop-opacity="0"/></linearGradient><linearGradient x1="51.91667" y1="314.50001" x2="51.91667" y2="336.50003" gradientUnits="userSpaceOnUse" id="color-3"><stop offset="0" stop-color="#999999"/><stop offset="1" stop-color="#999999" stop-opacity="0"/></linearGradient><linearGradient x1="205" y1="49.5" x2="205" y2="27.5" gradientUnits="userSpaceOnUse" id="color-4"><stop offset="0" stop-color="#999999"/><stop offset="1" stop-color="#999999" stop-opacity="0"/></linearGradient></defs><g transform="translate(82.5,61.5)"><g data-paper-data="{&quot;isPaintingLayer&quot;:true}" fill-rule="nonzero" stroke-linecap="butt" stroke-linejoin="miter" stroke-miterlimit="10" stroke-dasharray="" stroke-dashoffset="0" style="mix-blend-mode: normal"><path d="M315,353.50003v-187.2h192v187.2z" fill="#ffffff" stroke="#000000" stroke-width="4.5"/><path d="M328,394.50003v-210h164v210z" fill="#cccccc" stroke="#000000" stroke-width="4.5"/><path d="M330.33334,208.50003v-22h159.16666v22z" fill="url(#color-1)" stroke="none" stroke-width="0"/><path d="M136,413.50001v-187.2h192v187.2z" fill="#ffffff" stroke="#000000" stroke-width="4.5"/><path d="M149,364.50003v-120h164v120z" fill="#cccccc" stroke="#000000" stroke-width="4.5"/><path d="M151.33333,268.50003v-22h159.16667v22z" fill="url(#color-2)" stroke="none" stroke-width="0"/><path d="M-43,481.50003v-187.2h192v187.2z" fill="#ffffff" stroke="#000000" stroke-width="4.5"/><path d="M-30,432.50003v-120h164v120z" fill="#cccccc" stroke="#000000" stroke-width="4.5"/><path d="M-27.66666,336.50003v-22h159.16666v22z" fill="url(#color-3)" stroke="none" stroke-width="0"/><path d="M499.5,-61.5v120h-582v-120z" data-paper-data="{&quot;index&quot;:null}" fill="#cccccc" stroke="none" stroke-width="0"/><path d="M483.5,51.5v16h-555v-16z" data-paper-data="{&quot;index&quot;:null}" fill="#ffffff" stroke="#000000" stroke-width="4.5"/><g data-paper-data="{&quot;index&quot;:null}"><path d="M387.5,-18.41634l-1.31508,24.32904l-26.95921,11.17821l-13.80838,-26.30167c0,0 10.11198,-8.70032 16.91041,-12.30884c1.26908,-0.67361 25.17226,3.10325 25.17226,3.10325z" fill="#bbbbbb" stroke="none" stroke-width="0"/><path d="M386.8719,-9.91737l-1.2562,23.23968l-25.75208,10.67769l-13.19009,-25.12398c0,0 9.65921,-8.31076 16.15322,-11.7577c1.21225,-0.64345 24.04515,2.9643 24.04515,2.9643z" fill="#ffffff" stroke="#000000" stroke-width="4.5"/></g><g data-paper-data="{&quot;index&quot;:null}"><path d="M144.5,13.6062l-0.91133,16.85961l-18.68228,7.74631l-9.56896,-18.22661c0,0 7.00743,-6.02917 11.71862,-8.52981c0.87945,-0.4668 17.44395,2.1505 17.44395,2.1505z" fill="#bbbbbb" stroke="none" stroke-width="0"/><path d="M144.06474,19.49584l-0.87053,16.1047l-17.84575,7.39945l-9.14051,-17.41049c0,0 6.69367,-5.75922 11.19391,-8.14788c0.84007,-0.4459 16.66287,2.05421 16.66287,2.05421z" fill="#ffffff" stroke="#000000" stroke-width="4.5"/></g><g data-paper-data="{&quot;index&quot;:null}"><path d="M341.5,5.6062l-0.91133,16.85961l-18.68227,7.74631l-9.56897,-18.22661c0,0 7.00743,-6.02917 11.71862,-8.52981c0.87945,-0.4668 17.44395,2.1505 17.44395,2.1505z" fill="#bbbbbb" stroke="none" stroke-width="0"/><path d="M341.06474,11.49584l-0.87053,16.1047l-17.84575,7.39946l-9.14051,-17.41049c0,0 6.69366,-5.75921 11.19391,-8.14789c0.84007,-0.4459 16.66288,2.05421 16.66288,2.05421z" fill="#ffffff" stroke="#000000" stroke-width="4.5"/></g><g data-paper-data="{&quot;index&quot;:null}"><path d="M105.5,5.55862l-1.09883,20.32836l-22.52603,9.34006l-11.53771,-21.97661c0,0 8.44916,-7.26963 14.12965,-10.28476c1.06039,-0.56284 21.03292,2.59295 21.03292,2.59295z" fill="#bbbbbb" stroke="none" stroke-width="0"/><path d="M104.97518,12.66002l-1.04963,19.41814l-21.51739,8.92184l-11.0211,-20.99258c0,0 8.07084,-6.94413 13.49697,-9.82426c1.01291,-0.53764 20.09115,2.47686 20.09115,2.47686z" fill="#ffffff" stroke="#000000" stroke-width="4.5"/></g><g data-paper-data="{&quot;index&quot;:null}"><path d="M66.5,18.58117l-0.69508,12.85893l-14.24909,5.90816l-7.29831,-13.90155c0,0 5.34461,-4.59848 8.93786,-6.50574c0.67076,-0.35603 13.30461,1.6402 13.30461,1.6402z" fill="#bbbbbb" stroke="none" stroke-width="0"/><path d="M66.16802,23.07324l-0.66395,12.28316l-13.61107,5.64361l-6.97152,-13.27909c0,0 5.1053,-4.39259 8.53766,-6.21444c0.64073,-0.34009 12.70888,1.56676 12.70888,1.56676z" fill="#ffffff" stroke="#000000" stroke-width="4.5"/></g><path d="M482.5,27.5v22h-555v-22z" data-paper-data="{&quot;index&quot;:null}" fill="url(#color-4)" stroke="none" stroke-width="0"/><g data-paper-data="{&quot;index&quot;:null}"><path d="M-8.5,364.49232l1.38008,-25.53149l28.29165,-11.73069l14.49084,27.60161c0,0 -10.61175,9.13032 -17.74618,12.91718c-1.3318,0.7069 -26.41638,-3.25662 -26.41638,-3.25662z" fill="#bbbbbb" stroke="none" stroke-width="0"/><path d="M-7.84085,355.57328l1.31828,-24.38829l27.02486,-11.20542l13.842,26.36572c0,0 -10.13661,8.72151 -16.95158,12.33881c-1.27217,0.67525 -25.23355,-3.11082 -25.23355,-3.11082z" fill="#ffffff" stroke="#000000" stroke-width="4.5"/></g><g data-paper-data="{&quot;index&quot;:null}"><path d="M43.5,367.33014l1.03401,-19.12912l21.19713,-8.78906l10.85706,20.68013c0,0 -7.95071,6.84077 -13.29608,9.67802c-0.99783,0.52964 -19.79211,-2.43998 -19.79211,-2.43998z" fill="#bbbbbb" stroke="none" stroke-width="0"/><path d="M43.99386,360.64767l0.9877,-18.27259l20.248,-8.39551l10.37093,19.75415c0,0 -7.59472,6.53447 -12.70074,9.24468c-0.95316,0.50592 -18.90589,-2.33074 -18.90589,-2.33074z" fill="#ffffff" stroke="#000000" stroke-width="4.5"/></g><g data-paper-data="{&quot;index&quot;:null}"><path d="M255.5,287.33014l1.03401,-19.12911l21.19713,-8.78906l10.85707,20.68012c0,0 -7.95071,6.84076 -13.29609,9.67802c-0.99784,0.52963 -19.79211,-2.43998 -19.79211,-2.43998z" fill="#bbbbbb" stroke="none" stroke-width="0"/><path d="M255.99386,280.64767l0.9877,-18.2726l20.248,-8.3955l10.37093,19.75415c0,0 -7.59472,6.53447 -12.70074,9.24468c-0.95316,0.50592 -18.90589,-2.33074 -18.90589,-2.33074z" fill="#ffffff" stroke="#000000" stroke-width="4.5"/></g><g data-paper-data="{&quot;index&quot;:null}"><path d="M188.5,319.47286l1.5965,-29.53536l32.72838,-13.57031l16.76331,31.93012c0,0 -12.2759,10.56215 -20.52916,14.94287c-1.54066,0.81776 -30.55903,-3.76732 -30.55903,-3.76732z" fill="#bbbbbb" stroke="none" stroke-width="0"/><path d="M189.26252,309.15513l1.52501,-28.2129l31.26293,-12.96266l16.01272,30.50043c0,0 -11.72624,10.08923 -19.60995,14.27379c-1.47167,0.78114 -29.19071,-3.59866 -29.19071,-3.59866z" fill="#ffffff" stroke="#000000" stroke-width="4.5"/></g><g data-paper-data="{&quot;index&quot;:null}"><path d="M238.5,340.17104l1.30811,-24.20006l26.81628,-11.11895l13.73517,26.16222c0,0 -10.05837,8.65418 -16.82075,12.24356c-1.26235,0.67003 -25.0388,-3.08679 -25.0388,-3.08679z" fill="#bbbbbb" stroke="none" stroke-width="0"/><path d="M239.12478,331.71712l1.24953,-23.11648l25.61555,-10.62107l13.12016,24.99079c0,0 -9.608,8.2667 -16.06758,11.69536c-1.20583,0.64003 -23.91766,-2.94859 -23.91766,-2.94859z" fill="#ffffff" stroke="#000000" stroke-width="4.5"/></g><g data-paper-data="{&quot;index&quot;:null}"><path d="M346.5,254.17104l1.30811,-24.20006l26.81628,-11.11895l13.73516,26.16222c0,0 -10.05836,8.65418 -16.82074,12.24356c-1.26236,0.67003 -25.0388,-3.08678 -25.0388,-3.08678z" fill="#bbbbbb" stroke="none" stroke-width="0"/><path d="M347.12478,245.71712l1.24953,-23.11648l25.61556,-10.62107l13.12016,24.99078c0,0 -9.608,8.2667 -16.06758,11.69535c-1.20583,0.64004 -23.91766,-2.94859 -23.91766,-2.94859z" fill="#ffffff" stroke="#000000" stroke-width="4.5"/></g><g data-paper-data="{&quot;index&quot;:null}"><path d="M366.5,295.09175l0.99561,-18.41881l20.41003,-8.4627l10.45392,19.91222c0,0 -7.65548,6.58675 -12.80237,9.31865c-0.96079,0.50997 -19.05718,-2.34937 -19.05718,-2.34937z" fill="#bbbbbb" stroke="none" stroke-width="0"/><path d="M366.97552,288.65742l0.95102,-17.59409l19.49615,-8.08376l9.98583,19.02063c0,0 -7.31271,6.29183 -12.22913,8.9014c-0.91776,0.48713 -18.20387,-2.24419 -18.20387,-2.24419z" fill="#ffffff" stroke="#000000" stroke-width="4.5"/></g><g data-paper-data="{&quot;index&quot;:null}"><path d="M403.5,265.28997l1.77686,-32.87193l36.42566,-15.10332l18.65704,35.53722c0,0 -13.6627,11.75533 -22.84831,16.63094c-1.71471,0.91014 -34.01122,-4.19291 -34.01122,-4.19291z" fill="#bbbbbb" stroke="none" stroke-width="0"/><path d="M404.34866,253.80667l1.69729,-31.40007l34.79466,-14.42704l17.82165,33.94601c0,0 -13.05094,11.22899 -21.82525,15.88628c-1.63792,0.86939 -32.48833,-4.00519 -32.48833,-4.00519z" fill="#ffffff" stroke="#000000" stroke-width="4.5"/></g></g></g></svg>