<svg version="1.1" xmlns="http://www.w3.org/2000/svg" xmlns:xlink="http://www.w3.org/1999/xlink" width="20" height="36" viewBox="0,0,20,36"><g transform="translate(-230,-162)"><g data-paper-data="{&quot;isPaintingLayer&quot;:true}" fill-rule="nonzero" stroke-linejoin="miter" stroke-miterlimit="10" stroke-dasharray="" stroke-dashoffset="0" style="mix-blend-mode: normal"><path d="M245.1875,171c0,3.07208 -2.54638,5.5625 -5.6875,5.5625c-3.14112,0 -5.6875,-2.49042 -5.6875,-5.5625c0,-3.07208 2.54638,-5.5625 5.6875,-5.5625c3.14112,0 5.6875,2.49042 5.6875,5.5625z" fill="#ffffff" stroke="#000000" stroke-width="2" stroke-linecap="butt"/><path d="M239.26042,176.92709l-0.0625,9.4375" fill="none" stroke="#000000" stroke-width="2" stroke-linecap="round"/><path d="M239.19792,186.30209l0.1875,8.3125" fill="none" stroke="#000000" stroke-width="2" stroke-linecap="round"/><path d="M239.19792,186.36459c0,0 3.14525,2.54154 2.61253,3.94792c-0.50774,1.34045 -2.11253,3.05208 -2.11253,3.05208" fill="none" stroke="#000000" stroke-width="2" stroke-linecap="round"/><path d="M238.35006,186.42647l-1.55049,-3.20312l2.25948,-3.762" fill="none" stroke="#000000" stroke-width="2" stroke-linecap="round"/><path d="M242.51351,185.85335l-3.08763,-1.76936l-0.25771,-4.3808" fill="none" stroke="#000000" stroke-width="2" stroke-linecap="round"/><path d="M230,198v-36h20v36z" fill="none" stroke="none" stroke-width="0" stroke-linecap="butt"/></g></g></svg>