<svg version="1.1" xmlns="http://www.w3.org/2000/svg" xmlns:xlink="http://www.w3.org/1999/xlink" width="225.27936" height="114" viewBox="0,0,225.27936,114"><g transform="translate(-115.5,-122.5)"><g data-paper-data="{&quot;isPaintingLayer&quot;:true}" fill-rule="nonzero" stroke-linecap="butt" stroke-miterlimit="10" stroke-dasharray="" stroke-dashoffset="0" style="mix-blend-mode: normal"><path d="M175.84025,157.75578c2.53115,-5.7555 7.99396,-9.75578 14.34101,-9.75578c8.75023,0 15.85184,7.58039 15.85184,16.92051c0,18.39469 -18.62432,24.09859 -30.19285,42.768c-12.2362,-18.78501 -30.19275,-23.76686 -30.19275,-42.768c0,-9.34012 7.10162,-16.92051 15.85184,-16.92051c6.3471,0 11.80991,4.00028 14.34091,9.75578z" fill="#ff4343" stroke="#000000" stroke-width="4.5" stroke-linejoin="round"/><path d="M322.1519,205.14084c-5.09416,3.0765 -20.06111,-12.82552 -20.06111,-12.82552c0,0 -17.44019,13.15716 -21.94319,9.26147c-4.50687,-3.89554 5.99727,-23.04981 5.99727,-23.04981c0,0 -17.89966,-12.52179 -15.58635,-18.00747c2.31331,-5.48987 23.77299,-1.41842 23.77299,-1.41842c0,0 6.37281,-20.89224 12.30602,-20.39276c5.94127,0.50337 8.7021,22.17478 8.7021,22.17478c0,0 21.83925,-0.39556 23.18973,5.40579c1.36242,5.79747 -18.39512,15.12285 -18.39512,15.12285c0,0 7.12391,20.65258 2.01765,23.72909z" fill="#ffff00" stroke="#000000" stroke-width="4.5" stroke-linejoin="miter"/><text transform="translate(220.13,195.55293) scale(1.34803,1.34803)" font-size="40" xml:space="preserve" fill="#000000" fill-rule="nonzero" stroke="none" stroke-width="1" stroke-linecap="butt" stroke-linejoin="miter" stroke-miterlimit="10" stroke-dasharray="" stroke-dashoffset="0" font-family="Sans Serif" font-weight="normal" text-anchor="start" style="mix-blend-mode: normal"><tspan x="0" dy="0">&amp;</tspan></text><path d="M115.5,236.5v-114h217v114z" fill="none" stroke="none" stroke-width="0" stroke-linejoin="miter"/></g></g></svg>