<svg version="1.1" xmlns="http://www.w3.org/2000/svg" xmlns:xlink="http://www.w3.org/1999/xlink" width="942" height="472.33333" viewBox="0,0,942,472.33333"><defs><linearGradient x1="-148.75" y1="285.33337" x2="-148.75" y2="307.33337" gradientUnits="userSpaceOnUse" id="color-1"><stop offset="0" stop-color="#999999"/><stop offset="1" stop-color="#999999" stop-opacity="0"/></linearGradient><linearGradient x1="367.875" y1="242.58338" x2="367.875" y2="270.58338" gradientUnits="userSpaceOnUse" id="color-2"><stop offset="0" stop-color="#a4a4a4"/><stop offset="1" stop-color="#a4a4a4" stop-opacity="0"/></linearGradient><linearGradient x1="-111.75" y1="40.50003" x2="-111.75" y2="18.50003" gradientUnits="userSpaceOnUse" id="color-3"><stop offset="0" stop-color="#999999"/><stop offset="1" stop-color="#999999" stop-opacity="0"/></linearGradient></defs><g transform="translate(453.25,73.24997)"><g data-paper-data="{&quot;isPaintingLayer&quot;:true}" fill-rule="nonzero" stroke-linejoin="miter" stroke-miterlimit="10" stroke-dasharray="" stroke-dashoffset="0" style="mix-blend-mode: normal"><path d="M-453.25,396.33337v-120h582v120z" data-paper-data="{&quot;index&quot;:null}" fill="#cccccc" stroke="none" stroke-width="0" stroke-linecap="butt"/><path d="M-426.16666,285.00004v-16h555v16z" data-paper-data="{&quot;index&quot;:null}" fill="#ffffff" stroke="none" stroke-width="0" stroke-linecap="butt"/><g data-paper-data="{&quot;index&quot;:null}" stroke-linecap="butt"><path d="M23.5,334.49231l1.38008,-25.53149l28.29165,-11.73069l14.49084,27.60161c0,0 -10.61175,9.13032 -17.74618,12.91718c-1.3318,0.7069 -26.41638,-3.25662 -26.41638,-3.25662z" fill="#bbbbbb" stroke="none" stroke-width="0"/><path d="M24.15915,325.57327l1.31828,-24.38829l27.02486,-11.20542l13.842,26.36572c0,0 -10.13661,8.72151 -16.95158,12.33881c-1.27217,0.67525 -25.23355,-3.11082 -25.23355,-3.11082z" fill="#ffffff" stroke="#000000" stroke-width="4.5"/></g><path d="M-426.25,307.33337v-22h555v22z" data-paper-data="{&quot;index&quot;:null}" fill="url(#color-1)" stroke="none" stroke-width="0" stroke-linecap="butt"/><g data-paper-data="{&quot;index&quot;:null}" stroke-linecap="butt"><path d="M-69.5,340.88864l0.80329,-14.86087l16.46745,-6.82797l8.43455,16.06581c0,0 -6.17669,5.3144 -10.32936,7.51859c-0.77519,0.41146 -15.37593,-1.89556 -15.37593,-1.89556z" fill="#bbbbbb" stroke="none" stroke-width="0"/><path d="M-69.11633,335.69724l0.76732,-14.19546l15.7301,-6.52223l8.05688,15.34644c0,0 -5.90012,5.07644 -9.86685,7.18194c-0.74048,0.39303 -14.68745,-1.81068 -14.68745,-1.81068z" fill="#ffffff" stroke="#000000" stroke-width="4.5"/></g><path d="M146.5,269.74959v109.66667h-18v-109.66667z" data-paper-data="{&quot;index&quot;:null}" fill="#ffffff" stroke="none" stroke-width="0" stroke-linecap="butt"/><path d="M147.16667,269.41625v120.66667h-283.33333v-120.66666z" data-paper-data="{&quot;index&quot;:null}" fill="none" stroke="#000000" stroke-width="4.5" stroke-linecap="butt"/><path d="M-160.5,286.83337h289v110" data-paper-data="{&quot;index&quot;:null}" fill="none" stroke="#000000" stroke-width="4.5" stroke-linecap="round"/><path d="M230.5,388.33337v-166h254v166z" fill="#ffffff" stroke="#000000" stroke-width="4.5" stroke-linecap="butt"/><path d="M247.5,382.33337v-142h239v142z" fill="#cccccc" stroke="#000000" stroke-width="4.5" stroke-linecap="butt"/><path d="M249.75,270.58338v-28h236.25v28z" fill="url(#color-2)" stroke="none" stroke-width="0" stroke-linecap="butt"/><g data-paper-data="{&quot;index&quot;:null}" stroke-linecap="butt"><path d="M80.5,341.17318l1.09883,-20.32836l22.52603,-9.34006l11.53771,21.97661c0,0 -8.44916,7.26963 -14.12964,10.28476c-1.06039,0.56284 -21.03293,-2.59295 -21.03293,-2.59295z" fill="#bbbbbb" stroke="none" stroke-width="0"/><path d="M81.02482,334.07178l1.04962,-19.41814l21.51739,-8.92184l11.0211,20.99258c0,0 -8.07084,6.94413 -13.49698,9.82426c-1.01291,0.53764 -20.09114,-2.47686 -20.09114,-2.47686z" fill="#ffffff" stroke="#000000" stroke-width="4.5"/></g><g data-paper-data="{&quot;index&quot;:null}" stroke-linecap="butt"><path d="M265.5,305.49231l1.38008,-25.53149l28.29165,-11.73069l14.49084,27.60161c0,0 -10.61175,9.13032 -17.74618,12.91718c-1.3318,0.7069 -26.41638,-3.25662 -26.41638,-3.25662z" fill="#bbbbbb" stroke="none" stroke-width="0"/><path d="M266.15915,296.57327l1.31828,-24.38829l27.02486,-11.20542l13.842,26.36572c0,0 -10.13661,8.72151 -16.95158,12.33881c-1.27217,0.67525 -25.23355,-3.11082 -25.23355,-3.11082z" fill="#ffffff" stroke="#000000" stroke-width="4.5"/></g><g data-paper-data="{&quot;index&quot;:null}" stroke-linecap="butt"><path d="M316.5,315.74902l0.86097,-15.92793l17.64987,-7.31824l9.04017,17.21939c0,0 -6.62019,5.69599 -11.07103,8.05844c-0.83085,0.441 -16.47997,-2.03166 -16.47997,-2.03166z" fill="#bbbbbb" stroke="none" stroke-width="0"/><path d="M316.91121,310.18485l0.82241,-15.21474l16.85958,-6.99055l8.63539,16.44837c0,0 -6.32377,5.44095 -10.57532,7.69762c-0.79365,0.42126 -15.74206,-1.9407 -15.74206,-1.9407z" fill="#ffffff" stroke="#000000" stroke-width="4.5"/></g><g data-paper-data="{&quot;index&quot;:null}" stroke-linecap="butt"><path d="M268.5,358.86798l1.32972,-24.59981l27.25925,-11.30262l13.96204,26.59439c0,0 -10.22451,8.79714 -17.09859,12.44581c-1.2832,0.68111 -25.45241,-3.13779 -25.45241,-3.13779z" fill="#bbbbbb" stroke="none" stroke-width="0"/><path d="M269.1351,350.2744l1.27017,-23.49832l26.03868,-10.79652l13.33689,25.4036c0,0 -9.76671,8.40325 -16.333,11.88855c-1.22575,0.65061 -24.31274,-2.9973 -24.31274,-2.9973z" fill="#ffffff" stroke="#000000" stroke-width="4.5"/></g><path d="M165.75,-70.49997v120h-582v-120z" data-paper-data="{&quot;index&quot;:null}" fill="#cccccc" stroke="none" stroke-width="0" stroke-linecap="butt"/><path d="M165.83334,40.83336v16h-555v-16z" data-paper-data="{&quot;index&quot;:null}" fill="#ffffff" stroke="none" stroke-width="0" stroke-linecap="butt"/><path d="M165.75,18.50003v22h-555v-22z" data-paper-data="{&quot;index&quot;:null}" fill="url(#color-3)" stroke="none" stroke-width="0" stroke-linecap="butt"/><path d="M165.5,56.08381v-109.66667h18v109.66667z" data-paper-data="{&quot;index&quot;:null}" fill="#ffffff" stroke="none" stroke-width="0" stroke-linecap="butt"/><path d="M-99.16666,56.41715v-120.66666h283.33333v120.66667z" data-paper-data="{&quot;index&quot;:null}" fill="none" stroke="#000000" stroke-width="4.5" stroke-linecap="butt"/><path d="M165.5,-70.99997v110h-289" data-paper-data="{&quot;index&quot;:null}" fill="none" stroke="#000000" stroke-width="4.5" stroke-linecap="round"/></g></g></svg>