<svg version="1.1" xmlns="http://www.w3.org/2000/svg" xmlns:xlink="http://www.w3.org/1999/xlink" width="80.75" height="80.75" viewBox="0,0,80.75,80.75"><defs><radialGradient cx="240" cy="180" r="27" gradientUnits="userSpaceOnUse" id="color-1"><stop offset="0" stop-color="#000000" stop-opacity="0"/><stop offset="1" stop-color="#000000" stop-opacity="0"/></radialGradient><radialGradient cx="240" cy="180" r="35.625" gradientUnits="userSpaceOnUse" id="color-2"><stop offset="0" stop-color="#000000" stop-opacity="0"/><stop offset="1" stop-color="#000000" stop-opacity="0"/></radialGradient><radialGradient cx="240" cy="180" r="29.875" gradientUnits="userSpaceOnUse" id="color-3"><stop offset="0" stop-color="#000000" stop-opacity="0"/><stop offset="1" stop-color="#000000" stop-opacity="0"/></radialGradient></defs><g transform="translate(-199.625,-139.625)"><g data-paper-data="{&quot;isPaintingLayer&quot;:true}" fill-rule="nonzero" stroke-linecap="butt" stroke-linejoin="miter" stroke-miterlimit="10" stroke-dasharray="" stroke-dashoffset="0" style="mix-blend-mode: normal"><path d="M216.25,181.25v-2.5h47.5v2.5z" fill="none" stroke="#000000" stroke-width="18"/><path d="M213,180c0,-14.9117 12.0883,-27 27,-27c14.9117,0 27,12.0883 27,27c0,14.9117 -12.0883,27 -27,27c-14.9117,0 -27,-12.0883 -27,-27z" fill="url(#color-1)" stroke="#000000" stroke-width="12"/><path d="M204.375,180c0,-19.67515 15.94985,-35.625 35.625,-35.625c19.67515,0 35.625,15.94985 35.625,35.625c0,19.67515 -15.94985,35.625 -35.625,35.625c-19.67515,0 -35.625,-15.94985 -35.625,-35.625z" fill="url(#color-2)" stroke="#000000" stroke-width="9.5"/><path d="M210.125,180c0,-16.49951 13.37549,-29.875 29.875,-29.875c16.49951,0 29.875,13.37549 29.875,29.875c0,16.49951 -13.37549,29.875 -29.875,29.875c-16.49951,0 -29.875,-13.37549 -29.875,-29.875z" fill="url(#color-3)" stroke="#ffffff" stroke-width="9.5"/><path d="M216.25,181.25v-2.5h47.5v2.5z" fill="none" stroke="#ffffff" stroke-width="9.5"/></g></g></svg>