<svg version="1.1" xmlns="http://www.w3.org/2000/svg" xmlns:xlink="http://www.w3.org/1999/xlink" width="562.18334" height="299.25" viewBox="0,0,562.18334,299.25"><defs><linearGradient x1="24.86287" y1="287.16668" x2="24.86287" y2="309.16668" gradientUnits="userSpaceOnUse" id="color-1"><stop offset="0" stop-color="#999999"/><stop offset="1" stop-color="#999999" stop-opacity="0"/></linearGradient><linearGradient x1="104.56873" y1="323.5" x2="104.56873" y2="345.5" gradientUnits="userSpaceOnUse" id="color-2"><stop offset="0" stop-color="#999999"/><stop offset="1" stop-color="#999999" stop-opacity="0"/></linearGradient><linearGradient x1="106.86287" y1="154.16668" x2="106.86287" y2="176.16668" gradientUnits="userSpaceOnUse" id="color-3"><stop offset="0" stop-color="#999999"/><stop offset="1" stop-color="#999999" stop-opacity="0"/></linearGradient><linearGradient x1="417.86287" y1="154.16668" x2="417.86287" y2="176.16668" gradientUnits="userSpaceOnUse" id="color-4"><stop offset="0" stop-color="#999999"/><stop offset="1" stop-color="#999999" stop-opacity="0"/></linearGradient><linearGradient x1="232.36287" y1="154.16667" x2="232.36287" y2="176.16667" gradientUnits="userSpaceOnUse" id="color-5"><stop offset="0" stop-color="#999999"/><stop offset="1" stop-color="#999999" stop-opacity="0"/></linearGradient></defs><g transform="translate(69.5,-135.25)"><g data-paper-data="{&quot;isPaintingLayer&quot;:true}" fill-rule="nonzero" stroke-linecap="butt" stroke-linejoin="miter" stroke-miterlimit="10" stroke-dasharray="" stroke-dashoffset="0" style="mix-blend-mode: normal"><path d="M-2.15988,322.50001v-52h55.59322v52z" fill="#ffffff" stroke="#000000" stroke-width="4.5"/><path d="M12.33333,308.16668v-23h25.19092v23z" fill="#cccccc" stroke="#000000" stroke-width="4.5"/><path d="M14.64241,309.16668v-22h20.44092v22z" fill="url(#color-1)" stroke="none" stroke-width="0"/><g><path d="M42.5,391.41634l1.31508,-24.32904l26.95921,-11.17821l13.80838,26.30167c0,0 -10.11198,8.70032 -16.91041,12.30884c-1.26908,0.67361 -25.17226,-3.10325 -25.17226,-3.10325z" fill="#bbbbbb" stroke="none" stroke-width="0"/><path d="M43.1281,382.91737l1.2562,-23.23968l25.75208,-10.67769l13.19009,25.12398c0,0 -9.65921,8.31076 -16.15322,11.7577c-1.21225,0.64345 -24.04515,-2.9643 -24.04515,-2.9643z" fill="#ffffff" stroke="#000000" stroke-width="4.5"/></g><g><path d="M88.5,367.3938l0.91133,-16.85961l18.68227,-7.74631l9.56897,18.22661c0,0 -7.00743,6.02917 -11.71862,8.52981c-0.87945,0.4668 -17.44395,-2.1505 -17.44395,-2.1505z" fill="#bbbbbb" stroke="none" stroke-width="0"/><path d="M88.93526,361.50416l0.87053,-16.1047l17.84575,-7.39946l9.14051,17.41049c0,0 -6.69366,5.75921 -11.19391,8.14789c-0.84007,0.4459 -16.66288,-2.05421 -16.66288,-2.05421z" fill="#ffffff" stroke="#000000" stroke-width="4.5"/></g><path d="M-69.5,434.5v-120h344v120z" fill="#cccccc" stroke="none" stroke-width="0"/><path d="M-60.04295,321.5v-16h328.04124v16z" fill="#ffffff" stroke="#000000" stroke-width="4.5"/><path d="M-59.45189,345.5v-22h328.04123v22z" fill="url(#color-2)" stroke="none" stroke-width="0"/><path d="M79.84012,189.50001v-52h55.59322v52z" fill="#ffffff" stroke="#000000" stroke-width="4.5"/><path d="M94.33333,175.16668v-23h25.19092v23z" fill="#cccccc" stroke="#000000" stroke-width="4.5"/><path d="M96.64241,176.16668v-22h20.44092v22z" fill="url(#color-3)" stroke="none" stroke-width="0"/><path d="M327.84012,189.50001v-52h162.59322v52z" fill="#ffffff" stroke="#000000" stroke-width="4.5"/><path d="M342.33333,175.16668v-23h145.19092v23z" fill="#cccccc" stroke="#000000" stroke-width="4.5"/><path d="M344.64241,176.16668v-22h146.44092v22z" fill="url(#color-4)" stroke="none" stroke-width="0"/><path d="M186.84012,392.5v-255h92.59322v255z" fill="#ffffff" stroke="#000000" stroke-width="4.5"/><path d="M201.33333,372.16667v-220h62.19092v220z" fill="#cccccc" stroke="#000000" stroke-width="4.5"/><path d="M203.64241,176.16667v-22h57.44092v22z" fill="url(#color-5)" stroke="none" stroke-width="0"/><g data-paper-data="{&quot;index&quot;:null}"><path d="M209.5,189.37338l0.91133,-16.85962l18.68228,-7.74631l9.56896,18.22661c0,0 -7.00743,6.02917 -11.71861,8.52981c-0.87945,0.4668 -17.44395,-2.15049 -17.44395,-2.15049z" fill="#bbbbbb" stroke="none" stroke-width="0"/><path d="M209.93527,183.48373l0.87053,-16.1047l17.84575,-7.39946l9.14051,17.4105c0,0 -6.69367,5.75921 -11.1939,8.14788c-0.84007,0.4459 -16.66287,-2.05421 -16.66287,-2.05421z" fill="#ffffff" stroke="#000000" stroke-width="4.5"/></g><g data-paper-data="{&quot;index&quot;:null}"><path d="M232.5,210.00174l0.65177,-12.05784l13.36139,-5.54008l6.84363,13.03549c0,0 -5.01164,4.312 -8.38104,6.10044c-0.62897,0.33385 -12.47575,-1.53801 -12.47575,-1.53801z" fill="#bbbbbb" stroke="none" stroke-width="0"/><path d="M232.8113,205.78952l0.62259,-11.51793l12.76311,-5.29202l6.5372,12.45182c0,0 -4.78725,4.11893 -8.00577,5.82729c-0.60081,0.3189 -11.91712,-1.46916 -11.91712,-1.46916z" fill="#ffffff" stroke="#000000" stroke-width="4.5"/></g></g></g></svg>