<svg version="1.1" xmlns="http://www.w3.org/2000/svg" xmlns:xlink="http://www.w3.org/1999/xlink" width="503.51339" height="251.94208" viewBox="0,0,503.51339,251.94208"><defs><linearGradient x1="12.0545" y1="252.875" x2="12.0545" y2="302.52703" gradientUnits="userSpaceOnUse" id="color-1"><stop offset="0" stop-color="#ffffff"/><stop offset="1" stop-color="#b4b4b4"/></linearGradient><linearGradient x1="11.32432" y1="303.98738" x2="11.32432" y2="318.77636" gradientUnits="userSpaceOnUse" id="color-2"><stop offset="0" stop-color="#c9c9c9"/><stop offset="1" stop-color="#c9c9c9" stop-opacity="0"/></linearGradient><linearGradient x1="371.33074" y1="314.75143" x2="371.33074" y2="320.95343" gradientUnits="userSpaceOnUse" id="color-3"><stop offset="0" stop-color="#ffffff"/><stop offset="1" stop-color="#b4b4b4"/></linearGradient><linearGradient x1="370.3211" y1="301.48205" x2="370.3211" y2="307.68403" gradientUnits="userSpaceOnUse" id="color-4"><stop offset="0" stop-color="#ffffff"/><stop offset="1" stop-color="#b4b4b4"/></linearGradient><linearGradient x1="388.00403" y1="293.44107" x2="388.00403" y2="326.47032" gradientUnits="userSpaceOnUse" id="color-5"><stop offset="0" stop-color="#ffffff"/><stop offset="1" stop-color="#b4b4b4"/></linearGradient><linearGradient x1="336.11998" y1="314.58916" x2="336.11998" y2="320.79116" gradientUnits="userSpaceOnUse" id="color-6"><stop offset="0" stop-color="#ffffff"/><stop offset="1" stop-color="#b4b4b4"/></linearGradient><linearGradient x1="335.11035" y1="301.31978" x2="335.11035" y2="307.52178" gradientUnits="userSpaceOnUse" id="color-7"><stop offset="0" stop-color="#ffffff"/><stop offset="1" stop-color="#b4b4b4"/></linearGradient><linearGradient x1="321.19192" y1="292.9543" x2="321.19192" y2="325.98354" gradientUnits="userSpaceOnUse" id="color-8"><stop offset="0" stop-color="#ffffff"/><stop offset="1" stop-color="#b4b4b4"/></linearGradient><linearGradient x1="354.29327" y1="293.27882" x2="354.29327" y2="326.30806" gradientUnits="userSpaceOnUse" id="color-9"><stop offset="0" stop-color="#ffffff"/><stop offset="1" stop-color="#b4b4b4"/></linearGradient><linearGradient x1="262.32432" y1="191.98738" x2="262.32432" y2="206.77636" gradientUnits="userSpaceOnUse" id="color-10"><stop offset="0" stop-color="#c9c9c9"/><stop offset="1" stop-color="#c9c9c9" stop-opacity="0"/></linearGradient><linearGradient x1="262.73095" y1="84.87501" x2="262.73095" y2="190.85004" gradientUnits="userSpaceOnUse" id="color-11"><stop offset="0" stop-color="#ffffff"/><stop offset="1" stop-color="#b4b4b4"/></linearGradient><linearGradient x1="432.73033" y1="213.64757" x2="432.73033" y2="244.24384" gradientUnits="userSpaceOnUse" id="color-12"><stop offset="0" stop-color="#8f8f8f"/><stop offset="1" stop-color="#8f8f8f" stop-opacity="0"/></linearGradient></defs><g transform="translate(7.5,-83.875)"><g data-paper-data="{&quot;isPaintingLayer&quot;:true}" fill-rule="nonzero" stroke-linecap="butt" stroke-linejoin="miter" stroke-miterlimit="10" stroke-dasharray="" stroke-dashoffset="0" style="mix-blend-mode: normal"><path d="M7.75457,334.81708v-34.72397h7.13951v34.72397z" fill="#ffffff" stroke="#000000" stroke-width="2"/><path d="M-3.766,297.65918c0,-10.60503 0,-35.28201 0,-40.72765c0,-2.08304 1.72154,-4.05654 3.40749,-4.05654c3.5823,0 17.25992,0 24.17697,0c2.45359,0 4.05654,2.24412 4.05654,4.54332c0,5.69204 0,30.28532 0,40.56538c0,2.80416 -2.10179,4.54332 -4.05654,4.54332c-3.79628,0 -17.23792,0 -23.85245,0c-2.26697,0 -3.73202,-1.8727 -3.73202,-4.86785z" fill="url(#color-1)" stroke="#000000" stroke-width="2"/><path d="M9.14538,318.77636v-14.78898h4.35788v14.78898z" fill="url(#color-2)" stroke="none" stroke-width="2"/><path d="M-7.5,326.5v-92h60v92z" fill="none" stroke="none" stroke-width="NaN"/><path d="M355.50122,320.95343v-6.20199h31.65903v6.20199z" fill="url(#color-3)" stroke="#000000" stroke-width="2"/><path d="M354.49159,307.68403v-6.20199h31.65903v6.20199z" fill="url(#color-4)" stroke="#000000" stroke-width="2"/><path d="M384.86696,326.47032v-29.83286c0,0 2.00285,-3.19638 3.03011,-3.19638c1.0629,0 3.244,3.19638 3.244,3.19638v29.83286z" fill="url(#color-5)" stroke="#000000" stroke-width="2"/><path d="M320.29046,320.79116v-6.20199h31.65903v6.20199z" fill="url(#color-6)" stroke="#000000" stroke-width="2"/><path d="M319.28084,307.52178v-6.20199h31.65903v6.20199z" fill="url(#color-7)" stroke="#000000" stroke-width="2"/><path d="M318.05486,325.98354v-29.83286c0,0 2.00285,-3.19638 3.03011,-3.19638c1.0629,0 3.244,3.19638 3.244,3.19638v29.83286z" fill="url(#color-8)" stroke="#000000" stroke-width="2"/><path d="M351.1562,326.30806v-29.83286c0,0 2.00285,-3.19638 3.03011,-3.19638c1.0629,0 3.244,3.19638 3.244,3.19638v29.83286z" fill="url(#color-9)" stroke="#000000" stroke-width="2"/><path d="M323.55486,335.5v-49.5h82.5v49.5z" fill="none" stroke="none" stroke-width="0"/><path d="M258.75457,222.81708v-34.72397h7.13951v34.72397z" fill="#ffffff" stroke="#000000" stroke-width="2"/><path d="M260.14538,206.77636v-14.78898h4.35788v14.78898z" fill="url(#color-10)" stroke="none" stroke-width="2"/><path d="M241.234,180.46032c0,-22.63489 0,-75.30431 0,-86.92723c0,-4.44595 2.33923,-8.65809 4.63011,-8.65809c4.86764,0 23.45284,0 32.85175,0c3.33395,0 5.51204,4.78975 5.51204,9.69705c0,12.14883 0,64.6396 0,86.58089c0,5.98507 -2.85592,9.69705 -5.51204,9.69705c-5.1584,0 -23.42294,0 -32.41079,0c-3.08037,0 -5.07108,-3.99701 -5.07108,-10.38972z" fill="url(#color-11)" stroke="#000000" stroke-width="2"/><path d="M369.44727,244.24384v-30.59627h126.56613v30.59627z" data-paper-data="{&quot;index&quot;:null}" fill="url(#color-12)" stroke="none" stroke-width="0"/></g></g></svg>