<svg version="1.1" xmlns="http://www.w3.org/2000/svg" xmlns:xlink="http://www.w3.org/1999/xlink" width="25.48728" height="38.7297" viewBox="0,0,25.48728,38.7297"><g transform="translate(-227.25636,-160.9685)"><g data-paper-data="{&quot;isPaintingLayer&quot;:true}" fill-rule="nonzero" stroke-linejoin="miter" stroke-miterlimit="10" stroke-dasharray="" stroke-dashoffset="0" style="mix-blend-mode: normal"><path d="M246.55692,172.27625c-0.49012,3.03273 -3.4012,5.085 -6.50209,4.58387c-3.10089,-0.50114 -5.21733,-3.36591 -4.72721,-6.39864c0.49012,-3.03273 3.4012,-5.085 6.50209,-4.58387c3.10089,0.50114 5.21733,3.36591 4.72721,6.39864z" data-paper-data="{&quot;index&quot;:null}" fill="#ffffff" stroke="#000000" stroke-width="2" stroke-linecap="butt"/><path d="M239.76014,177.18181l-1.56736,9.30665" data-paper-data="{&quot;index&quot;:null}" fill="none" stroke="#000000" stroke-width="2" stroke-linecap="round"/><path d="M238.20275,186.42676l1.3886,8.64476" data-paper-data="{&quot;index&quot;:null}" fill="none" stroke="#000000" stroke-width="2" stroke-linecap="round"/><path d="M233.7916,194.13423l4.40118,-7.64577" data-paper-data="{&quot;index&quot;:null}" fill="none" stroke="#000000" stroke-width="2" stroke-linecap="round"/><path d="M234.70152,185.18651l0.25485,-3.54953l3.83538,-2.13253" data-paper-data="{&quot;index&quot;:null}" fill="none" stroke="#000000" stroke-width="2" stroke-linecap="round"/><path d="M244.55244,184.37l-3.46664,-0.80397l-1.50984,-4.12047" data-paper-data="{&quot;index&quot;:null}" fill="none" stroke="#000000" stroke-width="2" stroke-linecap="round"/><path d="M227.25636,196.50739l5.74345,-35.53889l19.74383,3.19081l-5.74345,35.53889z" data-paper-data="{&quot;index&quot;:null}" fill="none" stroke="none" stroke-width="0" stroke-linecap="butt"/><path d="M245.12941,185.38795l0.50012,-3.09459l3.09459,0.50012l-0.50012,3.09459z" data-paper-data="{&quot;index&quot;:null}" fill="none" stroke="#000000" stroke-width="1" stroke-linecap="butt"/><path d="M246.57314,186.27892l-1.83456,-2.54183l2.54183,-1.83457l1.83456,2.54184z" data-paper-data="{&quot;index&quot;:null}" fill="none" stroke="#000000" stroke-width="1" stroke-linecap="butt"/><path d="M246.16841,171.38166l-9.12496,-1.65886l-1.27093,-0.11331l1.02253,-1.76861l1.99522,-1.51932l3.0631,-0.14959l2.81381,0.8231l1.40329,2.71319l-0.2928,1.24192z" data-paper-data="{&quot;index&quot;:null}" fill="#000000" stroke="#000000" stroke-width="1" stroke-linecap="round"/><path d="M236.02362,172.0444l9.49843,1.62713l-0.68079,1.3634l-3.14467,1.79401l-3.83002,-0.80315l-2.02879,-2.26173z" data-paper-data="{&quot;index&quot;:null}" fill="#000000" stroke="#000000" stroke-width="1" stroke-linecap="round"/><path d="M234.42088,168.28601l0.82765,1.14673l-1.46492,-0.05256" data-paper-data="{&quot;index&quot;:null}" fill="none" stroke="#000000" stroke-width="1" stroke-linecap="round"/></g></g></svg>