<svg version="1.1" xmlns="http://www.w3.org/2000/svg" xmlns:xlink="http://www.w3.org/1999/xlink" width="596" height="497" viewBox="0,0,596,497"><defs><linearGradient x1="233" y1="321.5" x2="233" y2="343.5" gradientUnits="userSpaceOnUse" id="color-1"><stop offset="0" stop-color="#999999"/><stop offset="1" stop-color="#999999" stop-opacity="0"/></linearGradient><linearGradient x1="247" y1="45.5" x2="247" y2="23.5" gradientUnits="userSpaceOnUse" id="color-2"><stop offset="0" stop-color="#999999"/><stop offset="1" stop-color="#999999" stop-opacity="0"/></linearGradient></defs><g transform="translate(61.5,64.5)"><g data-paper-data="{&quot;isPaintingLayer&quot;:true}" fill-rule="nonzero" stroke-linecap="butt" stroke-linejoin="miter" stroke-miterlimit="10" stroke-dasharray="" stroke-dashoffset="0" style="mix-blend-mode: normal"><path d="M-61.5,432.5v-120h582v120z" fill="#cccccc" stroke="none" stroke-width="0"/><path d="M-45.5,319.5v-16h555v16z" fill="#ffffff" stroke="#000000" stroke-width="4.5"/><g><path d="M50.5,389.41634l1.31508,-24.32904l26.95921,-11.17821l13.80838,26.30167c0,0 -10.11198,8.70032 -16.91041,12.30884c-1.26908,0.67361 -25.17226,-3.10325 -25.17226,-3.10325z" fill="#bbbbbb" stroke="none" stroke-width="0"/><path d="M51.1281,380.91737l1.2562,-23.23968l25.75208,-10.67769l13.19009,25.12398c0,0 -9.65921,8.31076 -16.15322,11.7577c-1.21225,0.64345 -24.04515,-2.9643 -24.04515,-2.9643z" fill="#ffffff" stroke="#000000" stroke-width="4.5"/></g><g><path d="M293.5,357.3938l0.91133,-16.85961l18.68228,-7.74631l9.56896,18.22661c0,0 -7.00743,6.02917 -11.71862,8.52981c-0.87945,0.4668 -17.44395,-2.1505 -17.44395,-2.1505z" fill="#bbbbbb" stroke="none" stroke-width="0"/><path d="M293.93526,351.50416l0.87053,-16.1047l17.84575,-7.39945l9.14051,17.41049c0,0 -6.69367,5.75922 -11.19391,8.14788c-0.84007,0.4459 -16.66287,-2.05421 -16.66287,-2.05421z" fill="#ffffff" stroke="#000000" stroke-width="4.5"/></g><g><path d="M96.5,365.3938l0.91133,-16.85961l18.68227,-7.74631l9.56897,18.22661c0,0 -7.00743,6.02917 -11.71862,8.52981c-0.87945,0.4668 -17.44395,-2.1505 -17.44395,-2.1505z" fill="#bbbbbb" stroke="none" stroke-width="0"/><path d="M96.93526,359.50416l0.87053,-16.1047l17.84575,-7.39946l9.14051,17.41049c0,0 -6.69366,5.75921 -11.19391,8.14789c-0.84007,0.4459 -16.66288,-2.05421 -16.66288,-2.05421z" fill="#ffffff" stroke="#000000" stroke-width="4.5"/></g><g><path d="M332.5,365.44138l1.09883,-20.32836l22.52603,-9.34006l11.53771,21.97661c0,0 -8.44916,7.26963 -14.12965,10.28476c-1.06039,0.56284 -21.03292,-2.59295 -21.03292,-2.59295z" fill="#bbbbbb" stroke="none" stroke-width="0"/><path d="M333.02482,358.33998l1.04963,-19.41814l21.51739,-8.92184l11.0211,20.99258c0,0 -8.07084,6.94413 -13.49697,9.82426c-1.01291,0.53764 -20.09115,-2.47686 -20.09115,-2.47686z" fill="#ffffff" stroke="#000000" stroke-width="4.5"/></g><g><path d="M371.5,352.41883l0.69508,-12.85893l14.24909,-5.90816l7.29831,13.90155c0,0 -5.34461,4.59848 -8.93786,6.50574c-0.67076,0.35603 -13.30461,-1.6402 -13.30461,-1.6402z" fill="#bbbbbb" stroke="none" stroke-width="0"/><path d="M371.83198,347.92676l0.66395,-12.28316l13.61107,-5.64361l6.97152,13.27909c0,0 -5.1053,4.39259 -8.53766,6.21444c-0.64073,0.34009 -12.70888,-1.56676 -12.70888,-1.56676z" fill="#ffffff" stroke="#000000" stroke-width="4.5"/></g><path d="M-44.5,343.5v-22h555v22z" fill="url(#color-1)" stroke="none" stroke-width="0"/><path d="M534.5,-64.5v120h-582v-120z" data-paper-data="{&quot;index&quot;:null}" fill="#cccccc" stroke="none" stroke-width="0"/><path d="M523.5,47.5v16h-555v-16z" data-paper-data="{&quot;index&quot;:null}" fill="#ffffff" stroke="#000000" stroke-width="4.5"/><path d="M524.5,23.5v22h-555v-22z" data-paper-data="{&quot;index&quot;:null}" fill="url(#color-2)" stroke="none" stroke-width="0"/></g></g></svg>