<svg version="1.1" xmlns="http://www.w3.org/2000/svg" xmlns:xlink="http://www.w3.org/1999/xlink" width="970.33333" height="390.33339" viewBox="0,0,970.33333,390.33339"><defs><linearGradient x1="653.54695" y1="152.41667" x2="653.54695" y2="174.41667" gradientUnits="userSpaceOnUse" id="color-1"><stop offset="0" stop-color="#999999"/><stop offset="1" stop-color="#999999" stop-opacity="0"/></linearGradient><linearGradient x1="21.625" y1="329.5834" x2="21.625" y2="357.5834" gradientUnits="userSpaceOnUse" id="color-2"><stop offset="0" stop-color="#a4a4a4"/><stop offset="1" stop-color="#a4a4a4" stop-opacity="0"/></linearGradient><linearGradient x1="218.20324" y1="293.16667" x2="218.20324" y2="315.16667" gradientUnits="userSpaceOnUse" id="color-3"><stop offset="0" stop-color="#999999"/><stop offset="1" stop-color="#999999" stop-opacity="0"/></linearGradient><linearGradient x1="457.875" y1="313.5834" x2="457.875" y2="341.5834" gradientUnits="userSpaceOnUse" id="color-4"><stop offset="0" stop-color="#a4a4a4"/><stop offset="1" stop-color="#a4a4a4" stop-opacity="0"/></linearGradient><linearGradient x1="163.04549" y1="108.41667" x2="163.04549" y2="130.41667" gradientUnits="userSpaceOnUse" id="color-5"><stop offset="0" stop-color="#999999"/><stop offset="1" stop-color="#999999" stop-opacity="0"/></linearGradient></defs><g transform="translate(82.75,-88.25)"><g data-paper-data="{&quot;isPaintingLayer&quot;:true}" fill-rule="nonzero" stroke-linecap="butt" stroke-linejoin="miter" stroke-miterlimit="10" stroke-dasharray="" stroke-dashoffset="0" style="mix-blend-mode: normal"><path d="M452.59956,414.5v-280h384.14286v280z" data-paper-data="{&quot;index&quot;:null}" fill="#ffffff" stroke="#000000" stroke-width="4.5"/><path d="M466.14241,352.16667v-202h419.19092v202z" data-paper-data="{&quot;index&quot;:null}" fill="#cccccc" stroke="#000000" stroke-width="4.5"/><path d="M467.95149,174.41667v-22h371.19092v22z" data-paper-data="{&quot;index&quot;:null}" fill="url(#color-1)" stroke="none" stroke-width="0"/><path d="M-80.5,476.33339v-166h187v166z" data-paper-data="{&quot;index&quot;:null}" fill="#ffffff" stroke="#000000" stroke-width="4.5"/><path d="M-38.5,469.33339v-142h131v142z" data-paper-data="{&quot;index&quot;:null}" fill="#cccccc" stroke="#000000" stroke-width="4.5"/><path d="M-49,357.5834v-28h141.25v28z" data-paper-data="{&quot;index&quot;:null}" fill="url(#color-2)" stroke="none" stroke-width="0"/><g data-paper-data="{&quot;index&quot;:null}"><path d="M76.49999,389.49231c0,0 -25.08458,3.96352 -26.41638,3.25662c-7.13443,-3.78686 -17.74618,-12.91718 -17.74618,-12.91718l14.49084,-27.60161l28.29165,11.73069l1.38008,25.53149z" fill="#bbbbbb" stroke="none" stroke-width="0"/><path d="M75.84084,380.57329c0,0 -23.96138,3.78607 -25.23355,3.11082c-6.81497,-3.6173 -16.95158,-12.33881 -16.95158,-12.33881l13.842,-26.36572l27.02486,11.20542l1.31828,24.38829z" fill="#ffffff" stroke="#000000" stroke-width="4.5"/></g><g data-paper-data="{&quot;index&quot;:null}"><path d="M25.49999,399.74904c0,0 -15.64912,2.47266 -16.47997,2.03166c-4.45084,-2.36245 -11.07103,-8.05844 -11.07103,-8.05844l9.04017,-17.21939l17.64987,7.31824l0.86097,15.92793z" fill="#bbbbbb" stroke="none" stroke-width="0"/><path d="M9.34673,396.12557c-4.25155,-2.25667 -10.57532,-7.69762 -10.57532,-7.69762l8.63539,-16.44837l16.85958,6.99055l0.82241,15.21474c0,0 -14.94841,2.36196 -15.74206,1.9407z" fill="#ffffff" stroke="#000000" stroke-width="4.5"/></g><path d="M196.84012,434.5v-156h42.59322v156z" fill="#ffffff" stroke="#000000" stroke-width="4.5"/><path d="M208.95867,430.16667v-139h18.563v139z" fill="#cccccc" stroke="#000000" stroke-width="4.5"/><path d="M210.25213,315.16667v-22h15.90223v22z" fill="url(#color-3)" stroke="none" stroke-width="0"/><path d="M320.5,459.33339v-166h254v166z" data-paper-data="{&quot;index&quot;:null}" fill="#ffffff" stroke="#000000" stroke-width="4.5"/><path d="M337.5,453.33339v-142h239v142z" data-paper-data="{&quot;index&quot;:null}" fill="#cccccc" stroke="#000000" stroke-width="4.5"/><path d="M339.75,341.5834v-28h236.25v28z" data-paper-data="{&quot;index&quot;:null}" fill="url(#color-4)" stroke="none" stroke-width="0"/><g data-paper-data="{&quot;index&quot;:null}"><path d="M355.5,376.49232l1.38008,-25.53149l28.29165,-11.73069l14.49084,27.60161c0,0 -10.61175,9.13032 -17.74618,12.91718c-1.3318,0.7069 -26.41638,-3.25662 -26.41638,-3.25662z" fill="#bbbbbb" stroke="none" stroke-width="0"/><path d="M356.15915,367.57329l1.31828,-24.38829l27.02486,-11.20542l13.842,26.36572c0,0 -10.13661,8.72151 -16.95158,12.33881c-1.27217,0.67525 -25.23355,-3.11082 -25.23355,-3.11082z" fill="#ffffff" stroke="#000000" stroke-width="4.5"/></g><g data-paper-data="{&quot;index&quot;:null}"><path d="M406.5,386.74904l0.86097,-15.92793l17.64987,-7.31824l9.04017,17.21939c0,0 -6.62019,5.69599 -11.07103,8.05844c-0.83085,0.441 -16.47997,-2.03166 -16.47997,-2.03166z" fill="#bbbbbb" stroke="none" stroke-width="0"/><path d="M406.91121,381.18487l0.82241,-15.21474l16.85958,-6.99055l8.63539,16.44837c0,0 -6.32377,5.44095 -10.57532,7.69762c-0.79365,0.42126 -15.74206,-1.9407 -15.74206,-1.9407z" fill="#ffffff" stroke="#000000" stroke-width="4.5"/></g><path d="M-25.8444,186.5v-96h402.67773v96z" data-paper-data="{&quot;index&quot;:null}" fill="#ffffff" stroke="#000000" stroke-width="4.5"/><path d="M-18.40044,170.16667v-64h378.41685v64z" data-paper-data="{&quot;index&quot;:null}" fill="#cccccc" stroke="#000000" stroke-width="4.5"/><path d="M-31.50494,130.41667v-22h389.10086v22z" data-paper-data="{&quot;index&quot;:null}" fill="url(#color-5)" stroke="none" stroke-width="0"/><g data-paper-data="{&quot;index&quot;:null}"><path d="M338.87669,147.42095c0,0 -20.9362,3.15579 -22.04776,2.59295c-5.95457,-3.01512 -14.81139,-10.28476 -14.81139,-10.28476l12.0944,-21.97661l23.61291,9.34006l1.15185,20.32837z" fill="#bbbbbb" stroke="none" stroke-width="0"/><path d="M338.32655,140.31955c0,0 -19.99875,3.0145 -21.06054,2.47686c-5.68794,-2.88012 -14.1482,-9.82425 -14.1482,-9.82425l11.55288,-20.99259l22.5556,8.92184l1.10027,19.41814z" fill="#ffffff" stroke="#000000" stroke-width="4.5"/></g><g data-paper-data="{&quot;index&quot;:null}"><path d="M291.70546,158.39203c0,0 -18.5562,2.79704 -19.5414,2.29818c-5.27767,-2.67237 -13.12765,-9.1156 -13.12765,-9.1156l10.71953,-19.47834l20.92861,8.27829l1.02091,18.01746z" fill="#bbbbbb" stroke="none" stroke-width="0"/><path d="M291.21784,152.09788c0,0 -17.72533,2.67181 -18.66641,2.19529c-5.04134,-2.55271 -12.53985,-8.70744 -12.53985,-8.70744l10.23956,-18.60617l19.99151,7.90762l0.9752,17.21071z" fill="#ffffff" stroke="#000000" stroke-width="4.5"/></g><g data-paper-data="{&quot;index&quot;:null}"><path d="M79.95897,143.33652c0,0 -14.38832,2.1688 -15.15223,1.78199c-4.09225,-2.07213 -10.17907,-7.06816 -10.17907,-7.06816l8.31184,-15.10334l16.22786,6.41892l0.79161,13.97058z" fill="#bbbbbb" stroke="none" stroke-width="0"/><path d="M79.58088,138.45609c0,0 -13.74407,2.0717 -14.47377,1.70221c-3.90901,-1.97935 -9.72329,-6.75167 -9.72329,-6.75167l7.93967,-14.42706l15.50125,6.1315l0.75616,13.34504z" fill="#ffffff" stroke="#000000" stroke-width="4.5"/></g><g data-paper-data="{&quot;index&quot;:null}"><path d="M111.64904,157.54597c0,0 -12.73987,1.92032 -13.41627,1.57783c-3.62341,-1.83473 -9.01286,-6.25837 -9.01286,-6.25837l7.35955,-13.37297l14.36867,5.68351l0.70091,12.36999z" fill="#bbbbbb" stroke="none" stroke-width="0"/><path d="M111.31426,153.22469c0,0 -12.16943,1.83435 -12.81553,1.50719c-3.46115,-1.75258 -8.60931,-5.97814 -8.60931,-5.97814l7.03003,-12.77417l13.72529,5.42902l0.66953,11.81612z" fill="#ffffff" stroke="#000000" stroke-width="4.5"/></g><g data-paper-data="{&quot;index&quot;:null}"><path d="M167.20629,147.6332c0,0 -19.2894,2.90756 -20.31353,2.38899c-5.48619,-2.77797 -13.64635,-9.47578 -13.64635,-9.47578l11.14307,-20.24797l21.75556,8.60538l1.06125,18.72936z" fill="#bbbbbb" stroke="none" stroke-width="0"/><path d="M166.69941,141.09036c0,0 -18.4257,2.77738 -19.40396,2.28203c-5.24053,-2.65358 -13.03532,-9.05149 -13.03532,-9.05149l10.64415,-19.34134l20.78142,8.22006l1.01373,17.89075z" fill="#ffffff" stroke="#000000" stroke-width="4.5"/></g></g></g></svg>