<svg version="1.1" xmlns="http://www.w3.org/2000/svg" xmlns:xlink="http://www.w3.org/1999/xlink" width="130.95219" height="105" viewBox="0,0,130.95219,105"><defs><linearGradient x1="159.21344" y1="253.62966" x2="159.21344" y2="303.28169" gradientUnits="userSpaceOnUse" id="color-1"><stop offset="0" stop-color="#ffffff"/><stop offset="1" stop-color="#b4b4b4"/></linearGradient><linearGradient x1="158.48326" y1="304.74204" x2="158.48326" y2="319.53102" gradientUnits="userSpaceOnUse" id="color-2"><stop offset="0" stop-color="#c9c9c9"/><stop offset="1" stop-color="#c9c9c9" stop-opacity="0"/></linearGradient><linearGradient x1="235.88701" y1="318.75143" x2="235.88701" y2="324.95343" gradientUnits="userSpaceOnUse" id="color-3"><stop offset="0" stop-color="#ffffff"/><stop offset="1" stop-color="#b4b4b4"/></linearGradient><linearGradient x1="234.87737" y1="305.48205" x2="234.87737" y2="311.68403" gradientUnits="userSpaceOnUse" id="color-4"><stop offset="0" stop-color="#ffffff"/><stop offset="1" stop-color="#b4b4b4"/></linearGradient><linearGradient x1="252.5603" y1="297.44107" x2="252.5603" y2="330.47032" gradientUnits="userSpaceOnUse" id="color-5"><stop offset="0" stop-color="#ffffff"/><stop offset="1" stop-color="#b4b4b4"/></linearGradient><linearGradient x1="200.67625" y1="318.58916" x2="200.67625" y2="324.79116" gradientUnits="userSpaceOnUse" id="color-6"><stop offset="0" stop-color="#ffffff"/><stop offset="1" stop-color="#b4b4b4"/></linearGradient><linearGradient x1="199.66662" y1="305.31978" x2="199.66662" y2="311.52178" gradientUnits="userSpaceOnUse" id="color-7"><stop offset="0" stop-color="#ffffff"/><stop offset="1" stop-color="#b4b4b4"/></linearGradient><linearGradient x1="185.74819" y1="296.9543" x2="185.74819" y2="329.98354" gradientUnits="userSpaceOnUse" id="color-8"><stop offset="0" stop-color="#ffffff"/><stop offset="1" stop-color="#b4b4b4"/></linearGradient><linearGradient x1="218.84954" y1="297.27882" x2="218.84954" y2="330.30806" gradientUnits="userSpaceOnUse" id="color-9"><stop offset="0" stop-color="#ffffff"/><stop offset="1" stop-color="#b4b4b4"/></linearGradient></defs><g transform="translate(-139.65894,-234.5)"><g data-paper-data="{&quot;isPaintingLayer&quot;:true}" fill-rule="nonzero" stroke-linecap="butt" stroke-linejoin="miter" stroke-miterlimit="10" stroke-dasharray="" stroke-dashoffset="0" style="mix-blend-mode: normal"><path d="M154.91351,335.57174v-34.72397h7.13951v34.72397z" fill="#ffffff" stroke="#000000" stroke-width="2"/><path d="M143.39294,298.41384c0,-10.60503 0,-35.28201 0,-40.72765c0,-2.08304 1.72154,-4.05654 3.40749,-4.05654c3.5823,0 17.25992,0 24.17697,0c2.45359,0 4.05654,2.24412 4.05654,4.54332c0,5.69204 0,30.28532 0,40.56538c0,2.80416 -2.10179,4.54332 -4.05654,4.54332c-3.79628,0 -17.23792,0 -23.85245,0c-2.26697,0 -3.73202,-1.8727 -3.73202,-4.86785z" fill="url(#color-1)" stroke="#000000" stroke-width="2"/><path d="M156.30432,319.53102v-14.78898h4.35788v14.78898z" fill="url(#color-2)" stroke="none" stroke-width="2"/><path d="M139.65894,327.25466v-92h60v92z" fill="none" stroke="none" stroke-width="NaN"/><path d="M220.05749,324.95343v-6.20199h31.65903v6.20199z" fill="url(#color-3)" stroke="#000000" stroke-width="2"/><path d="M219.04786,311.68403v-6.20199h31.65903v6.20199z" fill="url(#color-4)" stroke="#000000" stroke-width="2"/><path d="M249.42323,330.47032v-29.83286c0,0 2.00285,-3.19638 3.03011,-3.19638c1.0629,0 3.244,3.19638 3.244,3.19638v29.83286z" fill="url(#color-5)" stroke="#000000" stroke-width="2"/><path d="M184.84673,324.79116v-6.20199h31.65903v6.20199z" fill="url(#color-6)" stroke="#000000" stroke-width="2"/><path d="M183.83711,311.52178v-6.20199h31.65903v6.20199z" fill="url(#color-7)" stroke="#000000" stroke-width="2"/><path d="M182.61113,329.98354v-29.83286c0,0 2.00285,-3.19638 3.03011,-3.19638c1.0629,0 3.244,3.19638 3.244,3.19638v29.83286z" fill="url(#color-8)" stroke="#000000" stroke-width="2"/><path d="M215.71247,330.30806v-29.83286c0,0 2.00285,-3.19638 3.03011,-3.19638c1.0629,0 3.244,3.19638 3.244,3.19638v29.83286z" fill="url(#color-9)" stroke="#000000" stroke-width="2"/><path d="M188.11113,339.5v-49.5h82.5v49.5z" fill="none" stroke="none" stroke-width="0"/><path d="M144.5,326.5v-92h60v92z" fill="none" stroke="none" stroke-width="NaN"/></g></g></svg>