<svg version="1.1" xmlns="http://www.w3.org/2000/svg" xmlns:xlink="http://www.w3.org/1999/xlink" width="26.22377" height="39.04115" viewBox="0,0,26.22377,39.04115"><g transform="translate(-226.88811,-160.81278)"><g data-paper-data="{&quot;isPaintingLayer&quot;:true}" fill-rule="nonzero" stroke-linejoin="miter" stroke-miterlimit="10" stroke-dasharray="" stroke-dashoffset="0" style="mix-blend-mode: normal"><path d="M243.46106,170.53891c0.55967,3.02067 -1.4904,5.93331 -4.57895,6.50556c-3.08856,0.57225 -6.04603,-1.41259 -6.6057,-4.43326c-0.55967,-3.02067 1.4904,-5.93331 4.57895,-6.50556c3.08856,-0.57225 6.04603,1.41259 6.6057,4.43326z" data-paper-data="{&quot;index&quot;:null}" fill="#ffffff" stroke="#000000" stroke-width="2" stroke-linecap="butt"/><path d="M238.71296,177.44661l1.65787,9.29095" data-paper-data="{&quot;index&quot;:null}" fill="none" stroke="#000000" stroke-width="2" stroke-linecap="round"/><path d="M244.57779,194.3485l-4.21835,-7.6724" data-paper-data="{&quot;index&quot;:null}" fill="none" stroke="#000000" stroke-width="2" stroke-linecap="round"/><path d="M238.80111,195.41881l1.56972,-8.68125" data-paper-data="{&quot;index&quot;:null}" fill="none" stroke="#000000" stroke-width="2" stroke-linecap="round"/><path d="M236.64505,186.68719l-0.95522,-3.42807l2.89336,-3.29944" data-paper-data="{&quot;index&quot;:null}" fill="none" stroke="#000000" stroke-width="2" stroke-linecap="round"/><path d="M245.64581,182.6014l-3.53493,0.41025l-2.8091,-3.37147" data-paper-data="{&quot;index&quot;:null}" fill="none" stroke="#000000" stroke-width="2" stroke-linecap="round"/><path d="M233.44658,199.85393l-6.55847,-35.39755l19.6653,-3.6436l6.55847,35.39755z" data-paper-data="{&quot;index&quot;:null}" fill="none" stroke="none" stroke-width="0" stroke-linecap="butt"/><path d="M246.53185,183.36564l-0.57109,-3.08228l3.08228,-0.57109l0.57109,3.08228z" data-paper-data="{&quot;index&quot;:null}" fill="none" stroke="#000000" stroke-width="1" stroke-linecap="butt"/><path d="M248.19126,183.71844l-2.58331,-1.77568l1.77568,-2.58331l2.58331,1.77568z" data-paper-data="{&quot;index&quot;:null}" fill="none" stroke="#000000" stroke-width="1" stroke-linecap="butt"/><path d="M242.79402,169.82739l-9.15068,1.51053l-1.23487,0.32125l0.3673,-2.00964l1.36713,-2.10243l2.83386,-1.17225l2.92665,-0.17242l2.23492,2.08224l0.14248,1.26799z" data-paper-data="{&quot;index&quot;:null}" fill="#000000" stroke="#000000" stroke-width="1" stroke-linecap="round"/><path d="M233.46477,173.86734l9.49166,-1.66616l-0.18195,1.51302l-2.35697,2.74811l-3.8768,0.53338l-2.67188,-1.44653z" data-paper-data="{&quot;index&quot;:null}" fill="#000000" stroke="#000000" stroke-width="1" stroke-linecap="round"/><path d="M230.69011,170.86808l1.16545,0.80109l-1.39708,0.44377" data-paper-data="{&quot;index&quot;:null}" fill="none" stroke="#000000" stroke-width="1" stroke-linecap="round"/></g></g></svg>