<svg version="1.1" xmlns="http://www.w3.org/2000/svg" xmlns:xlink="http://www.w3.org/1999/xlink" width="645.25" height="502.00001" viewBox="0,0,645.25,502.00001"><defs><linearGradient x1="225" y1="323.50001" x2="225" y2="345.50001" gradientUnits="userSpaceOnUse" id="color-1"><stop offset="0" stop-color="#999999"/><stop offset="1" stop-color="#999999" stop-opacity="0"/></linearGradient><linearGradient x1="-9.875" y1="237.5834" x2="-9.875" y2="265.5834" gradientUnits="userSpaceOnUse" id="color-2"><stop offset="0" stop-color="#a4a4a4"/><stop offset="1" stop-color="#a4a4a4" stop-opacity="0"/></linearGradient><linearGradient x1="227" y1="43.5" x2="227" y2="21.5" gradientUnits="userSpaceOnUse" id="color-3"><stop offset="0" stop-color="#999999"/><stop offset="1" stop-color="#999999" stop-opacity="0"/></linearGradient></defs><g transform="translate(130.75,67.5)"><g data-paper-data="{&quot;isPaintingLayer&quot;:true}" fill-rule="nonzero" stroke-linecap="butt" stroke-linejoin="miter" stroke-miterlimit="10" stroke-dasharray="" stroke-dashoffset="0" style="mix-blend-mode: normal"><path d="M-69.5,434.50001v-120h582v120z" fill="#cccccc" stroke="none" stroke-width="0"/><path d="M-53.5,321.50001v-16h555v16z" fill="#ffffff" stroke="#000000" stroke-width="4.5"/><g><path d="M44.5,369.94876l0.95954,-17.7515l19.67058,-8.15609l10.07518,19.19081c0,0 -7.37813,6.34812 -12.33855,8.98104c-0.92598,0.49149 -18.36675,-2.26426 -18.36675,-2.26426z" fill="#bbbbbb" stroke="none" stroke-width="0"/><path d="M44.9583,363.74755l0.91657,-16.95666l18.7898,-7.79089l9.62404,18.33151c0,0 -7.04776,6.06387 -11.78607,8.57891c-0.88452,0.46949 -17.54434,-2.16288 -17.54434,-2.16288z" fill="#ffffff" stroke="#000000" stroke-width="4.5"/></g><g><path d="M85.5,362.94876l0.95954,-17.7515l19.67058,-8.15609l10.07518,19.19081c0,0 -7.37813,6.34812 -12.33855,8.98104c-0.92597,0.49149 -18.36674,-2.26426 -18.36674,-2.26426z" fill="#bbbbbb" stroke="none" stroke-width="0"/><path d="M85.9583,356.74755l0.91657,-16.95666l18.7898,-7.79089l9.62404,18.33151c0,0 -7.04776,6.06387 -11.78607,8.57891c-0.88451,0.46949 -17.54434,-2.16288 -17.54434,-2.16288z" fill="#ffffff" stroke="#000000" stroke-width="4.5"/></g><g><path d="M134.5,371.04391l1.33454,-24.689l27.35807,-11.34359l14.01268,26.69081c0,0 -10.26159,8.82904 -17.1606,12.49095c-1.28786,0.68358 -25.54469,-3.14916 -25.54469,-3.14916z" fill="#bbbbbb" stroke="none" stroke-width="0"/><path d="M135.1374,362.41919l1.27478,-23.58353l26.13308,-10.83565l13.38524,25.4957c0,0 -9.80211,8.43371 -16.39221,11.93165c-1.2302,0.65296 -24.40089,-3.00816 -24.40089,-3.00816z" fill="#ffffff" stroke="#000000" stroke-width="4.5"/></g><g><path d="M342.5,362.67228l1.07499,-19.88721l22.03718,-9.13738l11.28735,21.4997c0,0 -8.26581,7.11187 -13.82303,10.06157c-1.03738,0.55063 -20.57649,-2.53668 -20.57649,-2.53668z" fill="#bbbbbb" stroke="none" stroke-width="0"/><path d="M343.01343,355.72498l1.02685,-18.99676l21.05044,-8.72822l10.78194,20.53702c0,0 -7.89569,6.79343 -13.20407,9.61106c-0.99093,0.52597 -19.65515,-2.42311 -19.65515,-2.42311z" fill="#ffffff" stroke="#000000" stroke-width="4.5"/></g><path d="M-52.5,345.50001v-22h555v22z" fill="url(#color-1)" stroke="none" stroke-width="0"/><path d="M-126.5,383.33339v-166h254v166z" data-paper-data="{&quot;index&quot;:null}" fill="#ffffff" stroke="#000000" stroke-width="4.5"/><path d="M-128.5,377.33339v-142h239v142z" data-paper-data="{&quot;index&quot;:null}" fill="#cccccc" stroke="#000000" stroke-width="4.5"/><path d="M-128,265.5834v-28h236.25v28z" data-paper-data="{&quot;index&quot;:null}" fill="url(#color-2)" stroke="none" stroke-width="0"/><g data-paper-data="{&quot;index&quot;:null}"><path d="M92.49999,300.49231c0,0 -25.08458,3.96352 -26.41638,3.25662c-7.13443,-3.78686 -17.74618,-12.91718 -17.74618,-12.91718l14.49084,-27.60161l28.29165,11.73069l1.38008,25.53149z" fill="#bbbbbb" stroke="none" stroke-width="0"/><path d="M91.84084,291.57329c0,0 -23.96138,3.78607 -25.23355,3.11082c-6.81497,-3.6173 -16.95158,-12.33881 -16.95158,-12.33881l13.842,-26.36572l27.02486,11.20542l1.31828,24.38829z" fill="#ffffff" stroke="#000000" stroke-width="4.5"/></g><g data-paper-data="{&quot;index&quot;:null}"><path d="M41.49999,310.74904c0,0 -15.64912,2.47266 -16.47997,2.03166c-4.45084,-2.36245 -11.07103,-8.05844 -11.07103,-8.05844l9.04017,-17.21939l17.64987,7.31824l0.86097,15.92793z" fill="#bbbbbb" stroke="none" stroke-width="0"/><path d="M25.34673,307.12557c-4.25155,-2.25667 -10.57532,-7.69762 -10.57532,-7.69762l8.63539,-16.44837l16.85958,6.99055l0.82241,15.21474c0,0 -14.94841,2.36196 -15.74206,1.9407z" fill="#ffffff" stroke="#000000" stroke-width="4.5"/></g><g data-paper-data="{&quot;index&quot;:null}"><path d="M89.49999,353.86798c0,0 -24.16921,3.8189 -25.45241,3.13779c-6.87408,-3.64867 -17.09859,-12.44581 -17.09859,-12.44581l13.96204,-26.59439l27.25925,11.30262l1.32972,24.59981z" fill="#bbbbbb" stroke="none" stroke-width="0"/><path d="M88.8649,345.27443c0,0 -23.08699,3.64791 -24.31274,2.9973c-6.56629,-3.4853 -16.333,-11.88855 -16.333,-11.88855l13.33689,-25.4036l26.03868,10.79652l1.27017,23.49832z" fill="#ffffff" stroke="#000000" stroke-width="4.5"/></g><path d="M514.5,-67.5v120h-582v-120z" data-paper-data="{&quot;index&quot;:null}" fill="#cccccc" stroke="none" stroke-width="0"/><path d="M503.5,45.5v16h-555v-16z" data-paper-data="{&quot;index&quot;:null}" fill="#ffffff" stroke="#000000" stroke-width="4.5"/><path d="M504.5,21.5v22h-555v-22z" data-paper-data="{&quot;index&quot;:null}" fill="url(#color-3)" stroke="none" stroke-width="0"/></g></g></svg>