<svg version="1.1" xmlns="http://www.w3.org/2000/svg" xmlns:xlink="http://www.w3.org/1999/xlink" width="616.18334" height="275.25" viewBox="0,0,616.18334,275.25"><defs><linearGradient x1="225" y1="306.50001" x2="225" y2="328.50001" gradientUnits="userSpaceOnUse" id="color-1"><stop offset="0" stop-color="#999999"/><stop offset="1" stop-color="#999999" stop-opacity="0"/></linearGradient><linearGradient x1="163.72614" y1="161.16669" x2="163.72614" y2="183.16669" gradientUnits="userSpaceOnUse" id="color-2"><stop offset="0" stop-color="#999999"/><stop offset="1" stop-color="#999999" stop-opacity="0"/></linearGradient><linearGradient x1="478.86287" y1="161.16669" x2="478.86287" y2="183.16669" gradientUnits="userSpaceOnUse" id="color-3"><stop offset="0" stop-color="#999999"/><stop offset="1" stop-color="#999999" stop-opacity="0"/></linearGradient><linearGradient x1="15.41059" y1="161.16669" x2="15.41059" y2="183.16669" gradientUnits="userSpaceOnUse" id="color-4"><stop offset="0" stop-color="#999999"/><stop offset="1" stop-color="#999999" stop-opacity="0"/></linearGradient><linearGradient x1="301.27386" y1="161.16669" x2="301.27386" y2="183.16669" gradientUnits="userSpaceOnUse" id="color-5"><stop offset="0" stop-color="#999999"/><stop offset="1" stop-color="#999999" stop-opacity="0"/></linearGradient></defs><g transform="translate(69.5,-142.25001)"><g data-paper-data="{&quot;isPaintingLayer&quot;:true}" fill-rule="nonzero" stroke-linecap="butt" stroke-linejoin="miter" stroke-miterlimit="10" stroke-dasharray="" stroke-dashoffset="0" style="mix-blend-mode: normal"><path d="M-69.5,417.50001v-120h582v120z" fill="#cccccc" stroke="none" stroke-width="0"/><path d="M-53.5,304.50001v-16h555v16z" fill="#ffffff" stroke="#000000" stroke-width="4.5"/><g><path d="M42.5,374.41636l1.31508,-24.32904l26.95921,-11.17821l13.80838,26.30167c0,0 -10.11198,8.70032 -16.91041,12.30884c-1.26908,0.67361 -25.17226,-3.10325 -25.17226,-3.10325z" fill="#bbbbbb" stroke="none" stroke-width="0"/><path d="M43.1281,365.91739l1.2562,-23.23968l25.75208,-10.67769l13.19009,25.12398c0,0 -9.65921,8.31076 -16.15322,11.7577c-1.21225,0.64345 -24.04515,-2.9643 -24.04515,-2.9643z" fill="#ffffff" stroke="#000000" stroke-width="4.5"/></g><g><path d="M285.5,342.39381l0.91133,-16.85961l18.68228,-7.74631l9.56896,18.22661c0,0 -7.00743,6.02917 -11.71862,8.52981c-0.87945,0.4668 -17.44395,-2.1505 -17.44395,-2.1505z" fill="#bbbbbb" stroke="none" stroke-width="0"/><path d="M285.93526,336.50418l0.87053,-16.1047l17.84575,-7.39945l9.14051,17.41049c0,0 -6.69367,5.75922 -11.19391,8.14788c-0.84007,0.4459 -16.66287,-2.05421 -16.66287,-2.05421z" fill="#ffffff" stroke="#000000" stroke-width="4.5"/></g><g><path d="M88.5,350.39381l0.91133,-16.85961l18.68227,-7.74631l9.56897,18.22661c0,0 -7.00743,6.02917 -11.71862,8.52981c-0.87945,0.4668 -17.44395,-2.1505 -17.44395,-2.1505z" fill="#bbbbbb" stroke="none" stroke-width="0"/><path d="M88.93526,344.50418l0.87053,-16.1047l17.84575,-7.39946l9.14051,17.41049c0,0 -6.69366,5.75921 -11.19391,8.14789c-0.84007,0.4459 -16.66288,-2.05421 -16.66288,-2.05421z" fill="#ffffff" stroke="#000000" stroke-width="4.5"/></g><g><path d="M324.5,350.4414l1.09883,-20.32836l22.52603,-9.34006l11.53771,21.97661c0,0 -8.44916,7.26963 -14.12965,10.28476c-1.06039,0.56284 -21.03292,-2.59295 -21.03292,-2.59295z" fill="#bbbbbb" stroke="none" stroke-width="0"/><path d="M325.02482,343.34l1.04963,-19.41814l21.51739,-8.92184l11.0211,20.99258c0,0 -8.07084,6.94413 -13.49697,9.82426c-1.01291,0.53764 -20.09115,-2.47686 -20.09115,-2.47686z" fill="#ffffff" stroke="#000000" stroke-width="4.5"/></g><g><path d="M363.5,337.41885l0.69508,-12.85893l14.24909,-5.90816l7.29831,13.90155c0,0 -5.34461,4.59848 -8.93786,6.50574c-0.67076,0.35603 -13.30461,-1.6402 -13.30461,-1.6402z" fill="#bbbbbb" stroke="none" stroke-width="0"/><path d="M363.83198,332.92677l0.66395,-12.28316l13.61107,-5.64361l6.97152,13.27909c0,0 -5.1053,4.39259 -8.53766,6.21444c-0.64073,0.34009 -12.70888,-1.56676 -12.70888,-1.56676z" fill="#ffffff" stroke="#000000" stroke-width="4.5"/></g><path d="M-52.5,328.50001v-22h555v22z" fill="url(#color-1)" stroke="none" stroke-width="0"/><path d="M134.70339,207.50002v-63h58.59322v63z" fill="#ffffff" stroke="#000000" stroke-width="4.5"/><path d="M149.1966,193.16669v-34h29.19092v34z" fill="#cccccc" stroke="#000000" stroke-width="4.5"/><path d="M151.50568,183.16669v-22h24.44092v22z" fill="url(#color-2)" stroke="none" stroke-width="0"/><g data-paper-data="{&quot;index&quot;:null}"><path d="M155.16327,179.74625l0.43302,-8.01096l8.87701,-3.68071l4.54676,8.66049c0,0 -3.32962,2.8648 -5.56818,4.053c-0.41787,0.2218 -8.28861,-1.02182 -8.28861,-1.02182z" fill="#bbbbbb" stroke="none" stroke-width="0"/><path d="M155.37009,176.94775l0.41364,-7.65226l8.47953,-3.5159l4.34317,8.27271c0,0 -3.18054,2.73653 -5.31886,3.87152c-0.39916,0.21187 -7.91747,-0.97608 -7.91747,-0.97608z" fill="#ffffff" stroke="#000000" stroke-width="4.5"/></g><path d="M414.84012,207.50003v-63h129.59322v63z" fill="#ffffff" stroke="#000000" stroke-width="4.5"/><path d="M429.33333,193.16669v-34h99.19092v34z" fill="#cccccc" stroke="#000000" stroke-width="4.5"/><path d="M431.64241,183.16669v-22h94.44092v22z" fill="url(#color-3)" stroke="none" stroke-width="0"/><g data-paper-data="{&quot;index&quot;:null}"><path d="M438.5,187.00176l0.65177,-12.05784l13.36139,-5.54008l6.84363,13.03549c0,0 -5.01164,4.312 -8.38104,6.10044c-0.62897,0.33385 -12.47575,-1.53801 -12.47575,-1.53801z" fill="#bbbbbb" stroke="none" stroke-width="0"/><path d="M438.8113,182.78954l0.62259,-11.51793l12.76311,-5.29202l6.5372,12.45182c0,0 -4.78725,4.11893 -8.00577,5.82729c-0.60081,0.3189 -11.91712,-1.46916 -11.91712,-1.46916z" fill="#ffffff" stroke="#000000" stroke-width="4.5"/></g><g data-paper-data="{&quot;index&quot;:null}"><path d="M470.5,184.96212l0.49552,-9.16721l10.15826,-4.21196l5.20301,9.91049c0,0 -3.8102,3.27829 -6.37185,4.63798c-0.47819,0.25382 -9.48493,-1.1693 -9.48493,-1.1693z" fill="#bbbbbb" stroke="none" stroke-width="0"/><path d="M470.73667,181.75969l0.47334,-8.75674l9.70341,-4.02336l4.97004,9.46674c0,0 -3.6396,3.1315 -6.08655,4.43031c-0.45678,0.24245 -9.06023,-1.11695 -9.06023,-1.11695z" fill="#ffffff" stroke="#000000" stroke-width="4.5"/></g><path d="M-50.15988,207.50003v-63h129.59322v63z" data-paper-data="{&quot;index&quot;:null}" fill="#ffffff" stroke="#000000" stroke-width="4.5"/><path d="M-34.25079,193.16669v-34h99.19092v34z" data-paper-data="{&quot;index&quot;:null}" fill="#cccccc" stroke="#000000" stroke-width="4.5"/><path d="M-31.80987,183.16669v-22h94.44092v22z" data-paper-data="{&quot;index&quot;:null}" fill="url(#color-4)" stroke="none" stroke-width="0"/><g data-paper-data="{&quot;index&quot;:null}"><path d="M34.91667,187.00176l0.65177,-12.05784l13.36139,-5.54008l6.84363,13.03549c0,0 -5.01164,4.312 -8.38104,6.10044c-0.62897,0.33385 -12.47575,-1.53801 -12.47575,-1.53801z" fill="#bbbbbb" stroke="none" stroke-width="0"/><path d="M35.22797,182.78954l0.62259,-11.51793l12.76311,-5.29202l6.5372,12.45182c0,0 -4.78725,4.11893 -8.00577,5.82729c-0.60081,0.3189 -11.91712,-1.46916 -11.91712,-1.46916z" fill="#ffffff" stroke="#000000" stroke-width="4.5"/></g><path d="M271.70339,207.50002v-63h58.59322v63z" data-paper-data="{&quot;index&quot;:null}" fill="#ffffff" stroke="#000000" stroke-width="4.5"/><path d="M286.61248,193.16669v-34h29.19092v34z" data-paper-data="{&quot;index&quot;:null}" fill="#cccccc" stroke="#000000" stroke-width="4.5"/><path d="M289.0534,183.16669v-22h24.44092v22z" data-paper-data="{&quot;index&quot;:null}" fill="url(#color-5)" stroke="none" stroke-width="0"/></g></g></svg>