<svg version="1.1" xmlns="http://www.w3.org/2000/svg" xmlns:xlink="http://www.w3.org/1999/xlink" width="585.56613" height="254.85243" viewBox="0,0,585.56613,254.85243"><defs><linearGradient x1="154.56364" y1="86.64757" x2="154.56364" y2="117.24384" gradientUnits="userSpaceOnUse" id="color-1"><stop offset="0" stop-color="#8f8f8f"/><stop offset="1" stop-color="#8f8f8f" stop-opacity="0"/></linearGradient><linearGradient x1="94.88699" y1="320.75144" x2="94.88699" y2="326.95343" gradientUnits="userSpaceOnUse" id="color-2"><stop offset="0" stop-color="#ffffff"/><stop offset="1" stop-color="#b4b4b4"/></linearGradient><linearGradient x1="93.87735" y1="307.48205" x2="93.87735" y2="313.68404" gradientUnits="userSpaceOnUse" id="color-3"><stop offset="0" stop-color="#ffffff"/><stop offset="1" stop-color="#b4b4b4"/></linearGradient><linearGradient x1="111.56028" y1="299.44108" x2="111.56028" y2="332.47032" gradientUnits="userSpaceOnUse" id="color-4"><stop offset="0" stop-color="#ffffff"/><stop offset="1" stop-color="#b4b4b4"/></linearGradient><linearGradient x1="59.67623" y1="320.58917" x2="59.67623" y2="326.79117" gradientUnits="userSpaceOnUse" id="color-5"><stop offset="0" stop-color="#ffffff"/><stop offset="1" stop-color="#b4b4b4"/></linearGradient><linearGradient x1="58.6666" y1="307.31978" x2="58.6666" y2="313.52178" gradientUnits="userSpaceOnUse" id="color-6"><stop offset="0" stop-color="#ffffff"/><stop offset="1" stop-color="#b4b4b4"/></linearGradient><linearGradient x1="44.74817" y1="298.9543" x2="44.74817" y2="331.98354" gradientUnits="userSpaceOnUse" id="color-7"><stop offset="0" stop-color="#ffffff"/><stop offset="1" stop-color="#b4b4b4"/></linearGradient><linearGradient x1="77.84952" y1="299.27882" x2="77.84952" y2="332.30806" gradientUnits="userSpaceOnUse" id="color-8"><stop offset="0" stop-color="#ffffff"/><stop offset="1" stop-color="#b4b4b4"/></linearGradient></defs><g transform="translate(138.2194,-86.64757)"><g data-paper-data="{&quot;isPaintingLayer&quot;:true}" fill-rule="nonzero" stroke-linecap="butt" stroke-linejoin="miter" stroke-miterlimit="10" stroke-dasharray="" stroke-dashoffset="0" style="mix-blend-mode: normal"><path d="M-138.2194,117.24384v-30.59627h585.56613v30.59627z" data-paper-data="{&quot;index&quot;:null}" fill="url(#color-1)" stroke="none" stroke-width="0"/><path d="M79.05747,326.95343v-6.20199h31.65903v6.20199z" fill="url(#color-2)" stroke="#000000" stroke-width="2"/><path d="M78.04784,313.68404v-6.20199h31.65903v6.20199z" fill="url(#color-3)" stroke="#000000" stroke-width="2"/><path d="M108.42322,332.47032v-29.83286c0,0 2.00285,-3.19638 3.03011,-3.19638c1.0629,0 3.244,3.19638 3.244,3.19638v29.83286z" fill="url(#color-4)" stroke="#000000" stroke-width="2"/><path d="M43.84671,326.79117v-6.20199h31.65903v6.20199z" fill="url(#color-5)" stroke="#000000" stroke-width="2"/><path d="M42.83709,313.52178v-6.20199h31.65903v6.20199z" fill="url(#color-6)" stroke="#000000" stroke-width="2"/><path d="M41.61111,331.98354v-29.83286c0,0 2.00285,-3.19638 3.03011,-3.19638c1.0629,0 3.244,3.19638 3.244,3.19638v29.83286z" fill="url(#color-7)" stroke="#000000" stroke-width="2"/><path d="M74.71246,332.30806v-29.83286c0,0 2.00285,-3.19638 3.03011,-3.19638c1.0629,0 3.244,3.19638 3.244,3.19638v29.83286z" fill="url(#color-8)" stroke="#000000" stroke-width="2"/><path d="M47.11111,341.5v-49.5h82.5v49.5z" fill="none" stroke="none" stroke-width="0"/></g></g></svg>